<?xml version="1.0" encoding="utf-8"?>
<!-- Generator: Adobe Illustrator 28.1.0, SVG Export Plug-In . SVG Version: 6.00 Build 0)  -->
<svg version="1.1" id="Calque_4" xmlns="http://www.w3.org/2000/svg" xmlns:xlink="http://www.w3.org/1999/xlink" x="0px" y="0px"
	 viewBox="0 0 841.9 595.3" style="enable-background:new 0 0 841.9 595.3;" xml:space="preserve">
<style type="text/css">
	.st0{fill:#DC9158;}
</style>
<path class="st0" d="M420.9,8C261.3,8,131.3,137.9,131.3,297.6s129.9,289.6,289.6,289.6s289.6-129.9,289.6-289.6S580.6,8,420.9,8z
	 M284,160.2c14.7,0,26.6,11.9,26.6,26.6s-11.9,26.6-26.6,26.6c-14.7,0-26.6-11.9-26.6-26.6S269.3,160.2,284,160.2z M269.8,384.6
	c-7,0-12.7-5.7-12.7-12.7c0-92.6,61.6-177.8,153.3-206.3c6.7-2.1,13.8,1.6,15.8,8.3c2.1,6.7-1.7,13.8-8.3,15.8
	c-81,25.2-135.5,100.3-135.5,182.2C282.4,378.9,276.8,384.6,269.8,384.6z M421.6,382.3c-2.2,1.6-4.8,2.3-7.3,2.3
	c-4,0-7.9-1.9-10.4-5.4l-78.4-111.3c5.1-7.1,10.6-13.9,16.7-20.3l82.4,117C428.7,370.4,427.3,378.3,421.6,382.3z M489.2,456.2
	c0,7-5.7,12.7-12.7,12.7s-12.7-5.7-12.7-12.7V301.8h12.7c4.2,0,8.4-0.2,12.7-0.5V456.2z M536,392.8c-14.7,0-26.6-11.9-26.6-26.6
	c0-14.7,11.9-26.6,26.6-26.6c14.7,0,26.6,11.9,26.6,26.6C562.6,380.9,550.7,392.8,536,392.8z M595.5,257
	c-35.4,23.1-76.6,35.3-119,35.3c-13.2,0-26.3-1.2-39.2-3.5c-6.9-1.2-11.4-7.8-10.2-14.7s7.9-11.4,14.7-10.2
	c11.4,2.1,23,3.1,34.7,3.1c37.5,0,73.9-10.8,105.2-31.2c5.8-3.8,13.7-2.2,17.5,3.7C603,245.4,601.4,253.2,595.5,257z"/>
</svg>
