<?xml version="1.0" encoding="utf-8"?>
<!-- Generator: Adobe Illustrator 28.1.0, SVG Export Plug-In . SVG Version: 6.00 Build 0)  -->
<svg version="1.1" id="Calque_2" xmlns="http://www.w3.org/2000/svg" xmlns:xlink="http://www.w3.org/1999/xlink" x="0px" y="0px"
	 viewBox="0 0 100 100" style="enable-background:new 0 0 100 100;" xml:space="preserve">
<style type="text/css">
	.st0{fill:#1D1D1B;}
</style>
<path class="st0" d="M98.1,63.8c-3.2,0-8.4,1.1-14.5,2.4c-0.9,0.2-1.7,0.4-2.6,0.6l3.2-24.9c0.7-0.2,1.4-0.5,2-0.9
	c1.1-0.8,1.7-2,1.9-3.3l1.6-12.3c0.2-1.3-0.2-2.6-1-3.7c-0.8-1.1-2-1.7-3.3-1.9c-1.3-0.2-2.6,0.2-3.7,1c-1.1,0.8-1.7,2-1.9,3.3
	l-1.6,12.3c-0.2,1.3,0.2,2.6,1,3.7c0.5,0.6,1.1,1.1,1.7,1.4l-3.4,26c-4.9,1-9.7,1.8-13,1.6c-4.8-0.3-9-1.1-13-2.1V28.7
	C53.6,28,55,26.1,55,24V11.5c0-2.8-2.2-5-5-5c-2.8,0-5,2.2-5,5V24c0,2.2,1.4,4,3.3,4.7v37.4c-1.8-0.5-3.6-1.1-5.3-1.6
	c-7.6-2.4-14.8-4.7-24-4.3l-3-23.1c0.7-0.3,1.2-0.8,1.7-1.4c0.8-1.1,1.2-2.4,1-3.7L17,19.6c-0.2-1.3-0.9-2.5-1.9-3.3
	c-1.1-0.8-2.4-1.2-3.7-1c-1.3,0.2-2.5,0.9-3.3,1.9c-0.8,1.1-1.2,2.4-1,3.7l1.6,12.3c0.2,1.3,0.9,2.5,1.9,3.3c0.6,0.5,1.3,0.8,2,0.9
	l3,22.9c-4.3,0.4-9,1.4-14.3,3.3c-0.9,0.3-1.3,1.2-1,2.1c0.3,0.9,1.2,1.3,2.1,1c5.1-1.7,9.6-2.7,13.7-3.1l1.7,13
	c0.1,0.8,0.8,1.4,1.6,1.4c0.1,0,0.1,0,0.2,0c0.9-0.1,1.5-1,1.4-1.9l-1.7-12.8c8.6-0.3,15.5,1.9,22.6,4.2c2.4,0.8,4.8,1.5,7.3,2.2
	c0.1,0.1,0.3,0.1,0.4,0.1c4.4,1.2,9.2,2.2,14.7,2.5c0.4,0,0.7,0,1.1,0c3.2,0,7.3-0.6,11.5-1.5l-1.3,9.8c-0.1,0.9,0.5,1.7,1.4,1.9
	c0.1,0,0.1,0,0.2,0c0.8,0,1.5-0.6,1.6-1.4l1.4-10.9c1.2-0.3,2.5-0.5,3.7-0.8c5.6-1.2,10.9-2.4,13.7-2.3c0.9,0,1.7-0.7,1.7-1.6
	C99.8,64.6,99,63.8,98.1,63.8z M81.5,36.8l1.6-12.3c0.1-0.4,0.3-0.8,0.6-1.1c0.3-0.2,0.7-0.4,1-0.4c0.1,0,0.1,0,0.2,0
	c0.4,0.1,0.8,0.3,1.1,0.6c0.3,0.4,0.4,0.8,0.3,1.2l-1.6,12.3c-0.1,0.4-0.3,0.8-0.6,1.1c-0.4,0.3-0.8,0.4-1.2,0.3
	c-0.4-0.1-0.8-0.3-1.1-0.6C81.6,37.6,81.5,37.2,81.5,36.8z M48.3,11.5c0-0.9,0.8-1.7,1.7-1.7c0.9,0,1.7,0.8,1.7,1.7V24
	c0,0.9-0.8,1.7-1.7,1.7c-0.9,0-1.7-0.8-1.7-1.7V11.5z M12,32.8l-1.6-12.3c-0.1-0.4,0.1-0.9,0.3-1.2s0.7-0.6,1.1-0.6
	c0.1,0,0.1,0,0.2,0c0.4,0,0.7,0.1,1,0.3c0.4,0.3,0.6,0.7,0.6,1.1l1.6,12.3c0.1,0.4-0.1,0.9-0.3,1.2c-0.3,0.4-0.7,0.6-1.1,0.6
	c-0.4,0.1-0.9-0.1-1.2-0.3C12.3,33.6,12.1,33.2,12,32.8z"/>
</svg>
