<?xml version="1.0" encoding="UTF-8"?>
<svg id="Calque_1" xmlns="http://www.w3.org/2000/svg" version="1.1" viewBox="0 0 100 100">
  <!-- Generator: Adobe Illustrator 30.0.0, SVG Export Plug-In . SVG Version: 2.1.1 Build 123)  -->
  <g id="Calque_11">
    <path d="M57.44,13.84c-.67-1.44,1.49-2.4,2.17-.91,2.11,4.89,4.13,8.79,1.88,14.22,4.22,12.19.62,40.16,8.21,47.51,3.31,3.22,6.16,5.57,10.82,6.3,7.06,1.06,5.28,5.95-2.55,5.8-6.16-.15-9.94-2.78-16.09-1.49-7.68,1.58-9.17-1.44-7.53-8.35-.09-9.47-3.46-17.67-6.48-26.38l-1.73,2.34c.62.91.62,2.02,0,3.02l-2.4,3.61c-.76,1.11-2.17,1.58-3.37,1.06-1.64,2.17-3.31,4.28-4.95,6.39-.38.44-1.06.62-1.58.23l-2.55-1.73c-.91,2.49,0,8.5.76,10.99.62,1.73,1.35,3.37,2.64,4.81,4.07,4.95-1.35,7.21-5.95,6.39-4.37-.82-5.42-4.81-6.62-9.17-.91-3.17-1.82-6.54-4.13-8.73-2.93-2.7-4.95-8.79.67-9.32,1.2-.15,2.26-.76,3.17-1.49l-2.17-1.49c-.53-.38-.67-1.11-.38-1.64l4.04-6.36-.67-.53c-1.29-.82-1.64-2.55-.82-3.84l2.4-3.69c.91-1.29,2.64-1.58,3.9-.76l.53.29,1.58-2.55-.29-.15c-1.29-.91-1.58-2.64-.76-3.9l2.4-3.61c.91-1.29,2.64-1.58,3.9-.76,1.44-2.26,2.84-4.51,4.37-6.77.38-.53,1.11-.67,1.64-.38l1.73,1.2c.53-.53.97-.97,1.49-1.49l-4.31-6.68c-.82-1.29,1.11-2.55,2.02-1.29l4.81,7.45c.29.44.29,1.2-.15,1.58-.67.62-1.2,1.11-1.82,1.82l10.32,6.77c5.77-7.45,5.33-10.17,1.88-18.29h0ZM28.48,49.96l2.84-4.37-4.57-3.02c-.15-.09-.44-.09-.53.15l-2.49,3.61c-.09.23,0,.44.15.62l4.6,3.02ZM33.38,46.94l-2.93,4.28,10.76,7.06c.15.15.44.09.53-.09l2.49-3.61c.09-.23.09-.44-.15-.62l-10.7-7.03ZM44.37,51.3l1.82-2.4-14.01-9.17-1.58,2.55c4.6,2.93,9.47,5.95,13.78,9.03h0ZM38.33,59.28l-13.01-8.56-3.43,5.31,12.4,8.5,4.04-5.25h0ZM35.87,39.26l2.84-4.37-4.57-2.99c-.15-.15-.44-.09-.53.15l-2.49,3.61c-.09.23,0,.44.15.53,1.52,1.06,3.08,2.02,4.6,3.08h0ZM40.73,36.27l-2.93,4.28,10.76,7.06c.15.15.44.09.53-.09l2.4-3.66c.15-.15.15-.38-.09-.53,0,0-10.67-7.06-10.67-7.06ZM50.14,49.72c3.08,9.09,6.62,17.44,6.62,27.38,0,4.13-3.17,7.45,4.66,5.86,6.92-1.44,10.08,1.29,16.53,1.44,1.88.09,3.31-.15,4.13-.53-.38-.15-1.06-.38-1.88-.44-5.48-.97-8.35-3.22-12.19-7.01-8.12-7.88-5.1-33.97-8.12-46.25-.67.97-1.44,2.11-2.34,3.31l1.2.82c.53.38.67,1.11.23,1.64l-5.16,6.71c.29.82.15,1.82-.29,2.49l-2.4,3.69c-.32.35-.62.64-1,.88h0ZM52.16,40.93l4.22-5.42-15.18-10-3.69,5.72c4.81,3.17,10.08,6.39,14.66,9.7h0ZM29.33,64l-5.48-3.75c-1.44,1.35-3.08,2.34-4.95,2.49-3.17.29-.53,4.13.67,5.28,2.84,2.64,3.9,6.3,4.81,9.85.97,3.61,1.88,6.83,4.81,7.45,2.17.38,6.01.29,3.61-2.49-1.44-1.82-2.34-3.69-3.02-5.63-.91-2.87-2.11-10.55-.44-13.19h0Z"/>
  </g>
</svg>