<?xml version="1.0" encoding="UTF-8"?>
<svg id="Calque_1" xmlns="http://www.w3.org/2000/svg" version="1.1" viewBox="0 0 100 100">
  <!-- Generator: Adobe Illustrator 30.0.0, SVG Export Plug-In . SVG Version: 2.1.1 Build 123)  -->
  <path d="M58.61,9.12c-.78-1.66,1.73-2.78,2.51-1.05,2.44,5.66,4.78,10.17,2.17,16.45,4.88,14.11.71,46.46,9.5,54.97,3.83,3.73,7.12,6.44,12.51,7.29,8.17,1.22,6.1,6.88-2.95,6.71-7.12-.17-11.5-3.22-18.62-1.73-8.89,1.83-10.61-1.66-8.72-9.67-.1-10.95-4-20.45-7.49-30.52l-2,2.71c.71,1.05.71,2.34,0,3.49l-2.78,4.17c-.88,1.29-2.51,1.83-3.9,1.22-1.9,2.51-3.83,4.95-5.73,7.39-.44.51-1.22.71-1.83.27l-2.95-2c-1.05,2.88,0,9.83.88,12.72.71,2,1.56,3.9,3.05,5.56,4.71,5.73-1.56,8.34-6.88,7.39-5.05-.95-6.27-5.56-7.66-10.61-1.05-3.66-2.1-7.56-4.78-10.11-3.39-3.12-5.73-10.17.78-10.78,1.39-.17,2.61-.88,3.66-1.73l-2.51-1.76c-.61-.44-.78-1.29-.44-1.9l4.71-7.29-.78-.61c-1.49-.95-1.9-2.95-.95-4.44l2.78-4.27c1.05-1.49,3.05-1.83,4.51-.88l.61.34,1.83-2.95-.34-.17c-1.49-1.05-1.83-3.05-.88-4.51l2.78-4.17c1.05-1.49,3.05-1.83,4.51-.88,1.66-2.65,3.29-5.26,5.05-7.87.44-.61,1.29-.78,1.9-.44l2,1.39c.61-.61,1.12-1.12,1.73-1.73l-5.02-7.73c-.95-1.49,1.29-2.95,2.34-1.49l5.56,8.61c.34.51.34,1.39-.17,1.83-.78.71-1.39,1.29-2.1,2.1l11.9,7.83c6.71-8.61,6.21-11.77,2.2-21.16h0ZM25.1,50.9l3.29-5.05-5.29-3.49c-.17-.1-.51-.1-.61.17l-2.88,4.17c-.1.27,0,.51.17.71l5.32,3.49ZM30.77,47.41l-3.39,4.95,12.45,8.17c.17.17.51.1.61-.1l2.88-4.17c.1-.27.1-.51-.17-.71l-12.38-8.14ZM43.45,52.46l2.1-2.78-16.18-10.61-1.83,2.95c5.32,3.39,10.95,6.88,15.91,10.45h0ZM36.5,61.68l-15.06-9.9-4,6.17,14.35,9.83,4.71-6.1ZM33.65,38.52l3.29-5.05-5.29-3.46c-.17-.17-.51-.1-.61.17l-2.88,4.17c-.1.27,0,.51.17.61,1.73,1.22,3.56,2.37,5.32,3.56h0ZM39.28,35.06l-3.39,4.95,12.45,8.17c.17.17.51.1.61-.1l2.78-4.27c.17-.17.17-.44-.1-.61l-12.34-8.14ZM50.16,50.63c3.56,10.51,7.66,20.18,7.66,31.67,0,4.78-3.66,8.61,5.39,6.78,8-1.66,11.67,1.49,19.13,1.66,2.17.1,3.83-.17,4.78-.61-.44-.17-1.22-.44-2.17-.51-6.34-1.12-9.67-3.73-14.11-8.11-9.39-9.12-5.9-39.31-9.39-53.51-.78,1.12-1.66,2.44-2.71,3.83l1.39.95c.61.44.78,1.29.27,1.9l-6,7.73c.34.95.17,2.1-.34,2.88l-2.78,4.27c-.34.44-.68.78-1.12,1.05h0ZM52.5,40.46l4.88-6.27-17.57-11.56-4.27,6.61c5.56,3.66,11.67,7.39,16.96,11.23h0ZM26.05,67.14l-6.34-4.34c-1.66,1.56-3.56,2.71-5.73,2.88-3.66.34-.61,4.78.78,6.1,3.29,3.05,4.51,7.29,5.56,11.39,1.12,4.17,2.17,7.9,5.56,8.61,2.51.44,6.95.34,4.17-2.88-1.66-2.1-2.71-4.27-3.49-6.51-1.02-3.32-2.41-12.21-.51-15.26h0Z"/>
</svg>