<?xml version="1.0" encoding="UTF-8"?>
<svg id="Calque_1" xmlns="http://www.w3.org/2000/svg" version="1.1" viewBox="0 0 100 100">
  <!-- Generator: Adobe Illustrator 30.0.0, SVG Export Plug-In . SVG Version: 2.1.1 Build 123)  -->
  <path d="M51.42,82.96c-.8-.33-.98-.98-1-1.78-.1-2.34-.21-4.69-.93-6.93-.49-1.55-1.13-3.04-1.67-4.59-1.91-5.33-1.96-10.69-.23-16.08.05-.21.13-.39.18-.62-1.73,0-3.38.08-5.02,0-9.38-.46-17.73-3.61-25.07-9.46-.23-.21-.41-.46-.62-.72v-.77c5.02-7.86,10.05-15.69,15.07-23.55.08-.13.15-.26.23-.39.75-1.16,1.16-1.29,2.37-.67,2.91,1.42,5.82,2.83,8.71,4.28,6.39,3.14,12.78,6.26,19.14,9.4,5.33,2.65,8.35,8.24,7.81,14.17-.36,3.92-.57,7.83-.85,11.75-.1,1.44-.21,2.91-.31,4.35,0,.15-.03.31-.05.44-.13.75-.67,1.21-1.37,1.16-.72-.05-1.24-.64-1.19-1.42.15-2.42.33-4.84.49-7.24.23-3.27.54-6.54.67-9.82.21-4.84-1.78-8.68-6.11-10.9-9.1-4.64-18.32-9.07-27.54-13.6-1,1.57-2.01,3.14-3.04,4.74,1.24.72,2.45,1.42,3.63,2.11,3.35,1.93,6.72,3.86,10.07,5.82.36.21.62.21.98.03,2.16-1.13,4.77-.36,5.98,1.73,1.24,2.11.57,4.74-1.52,6.08-.31.18-.44.39-.44.75-.05,2.45-2.04,4.38-4.48,4.38s-4.41-1.91-4.53-4.35c0-.26-.15-.59-.36-.7-4.66-2.73-9.35-5.41-14.02-8.12-.03-.03-.08-.03-.21-.08-2.06,3.22-4.12,6.47-6.31,9.87,1.96,1.19,3.84,2.45,5.82,3.5,6.67,3.53,13.81,5.02,21.33,4.64.77-.05,1.55-.13,2.29-.21,1.31-.13,2.01.77,1.44,1.98-1.55,3.48-2.19,7.11-1.91,10.9.18,2.24.62,4.41,1.52,6.47,1.37,3.17,2.27,6.42,2.4,9.87,0,.31.05.59.08.93h1.42v-7.76c0-.62.21-1.11.67-1.52.93-.77,1.83-1.6,2.76-2.42.72-.62,1.11-.67,1.91-.23.93.52,1.88,1.06,2.81,1.55.59.31.85.77.85,1.47-.03,2.73,0,5.44,0,8.17v.72h1.96c.13-1.7.23-3.38.36-5.08.05-.67.08-1.34.13-1.98.08-.77.64-1.31,1.34-1.26.72.03,1.26.59,1.21,1.39-.18,2.76-.39,5.51-.57,8.27-.05.59-.41.95-.85,1.26-5.05.05-10.25.05-15.43.05ZM27.69,30.16c.28.15.49.28.72.41,4.66,2.71,9.35,5.41,14.02,8.09,1.19.7,1.21.77,1.03,2.16-.1.82.21,1.47.9,1.93.67.44,1.52.39,2.16-.1.62-.46.9-1.24.7-2.01-.36-1.39-.15-1.73,1.21-2.11.77-.23,1.31-.88,1.42-1.67.08-.75-.33-1.52-.98-1.88-.7-.39-1.55-.28-2.16.23-.98.8-1.19.82-2.27.18-4.66-2.71-9.35-5.41-14.02-8.09-.21-.1-.41-.23-.64-.36-.7,1.06-1.37,2.11-2.09,3.22ZM56.96,80.33h3.86v-8.06c0-.15-.13-.36-.28-.44-.46-.28-.95-.54-1.47-.82-.64.57-1.29,1.11-1.88,1.65-.1.1-.21.28-.21.44-.05,2.4-.03,4.79-.03,7.24Z"/>
  <path d="M53.74,57.29v-6.44c0-.36-.08-.57-.41-.77-2.11-1.31-2.78-3.94-1.57-6.05,1.24-2.14,3.84-2.89,6.08-1.7.31.15.52.15.8,0,2.22-1.19,4.84-.44,6.08,1.7,1.21,2.11.54,4.74-1.57,6.05-.36.23-.41.46-.41.82v11.57c0,1.47-.93,2.01-2.19,1.31-.44-.23-.9-.44-1.29-.72-.64-.49-1.11-.39-1.62.18-.52.54-1.11,1-1.67,1.49-.44.39-.93.54-1.47.26-.54-.26-.75-.72-.75-1.31v-6.39ZM60.15,60.72v-10.98c0-1,.23-1.31,1.16-1.65.88-.31,1.37-.95,1.39-1.8.03-.77-.46-1.52-1.19-1.83-.77-.33-1.57-.13-2.22.54-.77.8-1.42.8-2.19,0-.64-.67-1.44-.88-2.22-.54-.72.31-1.21,1.06-1.19,1.83.03.82.54,1.49,1.42,1.8.95.33,1.16.64,1.16,1.65v11.13c.05.05.08.13.13.18,1.08-1.67,2.34-1.47,3.74-.33Z"/>
  <path d="M77.78,33c-.49-.26-1.11-.49-1.62-.85-.52-.33-.93-.31-1.37.1-.28.23-.59.44-.9.62-.62.33-1.34.15-1.7-.39-.36-.54-.28-1.26.26-1.67.72-.57,1.47-1.13,2.27-1.57.33-.18.88-.15,1.26-.03.49.15.93.52,1.42.72.23.08.57.05.8-.05.39-.21.75-.52,1.13-.75.62-.39,1.31-.23,1.73.31.41.54.33,1.29-.21,1.73-.75.57-1.52,1.11-2.32,1.62-.18.08-.41.1-.75.21Z"/>
  <path d="M77.37,36.37c.31.21.77.36.98.67.75,1.13,1.62,1.57,2.96.98.72-.31,1.39.18,1.6.88.18.64-.18,1.34-.9,1.55-.82.26-1.65.46-2.47.67-.54.13-1,0-1.39-.44-.18-.21-.41-.39-.54-.62-.46-.82-1.11-.9-1.93-.57-.23.1-.49.15-.75.18-.59.08-1.19-.31-1.37-.85-.21-.59.03-1.31.59-1.52,1.03-.36,2.06-.59,3.22-.93Z"/>
  <path d="M66.57,28.28c.03-.1.08-.31.18-.52.31-.7.64-1.37.95-2.04.26-.57.67-.93,1.29-.85,1.39.15,2.34-.21,2.78-1.7.21-.7,1.03-.9,1.65-.62.62.31.9,1,.62,1.67-.33.8-.72,1.6-1.11,2.4-.23.46-.62.7-1.13.7h-.05c-1.37-.18-2.37.18-2.76,1.67-.18.64-.9.85-1.49.67-.62-.15-.98-.64-.93-1.39Z"/>
  <path d="M68.81,67.5c0,.7-.54,1.26-1.24,1.29s-1.31-.59-1.31-1.29.62-1.29,1.31-1.29c.7.03,1.24.59,1.24,1.29Z"/>
  <path d="M39.65,64.43c-1.65.41-2.5-.44-2.99-1.88-.18-.57-.54-.8-1.13-.72-.33.05-.7.03-1.03,0-.72-.05-1.21-.54-1.24-1.24-.03-.67.44-1.26,1.13-1.31.93-.05,1.88-.1,2.81.03.39.05.9.44,1.06.8.52,1.26,1.19,2.04,2.71,1.78.7-.13,1.26.57,1.26,1.26s-.57,1.26-1.31,1.29c-.41,0-.82,0-1.26,0Z"/>
  <path d="M36.27,67.47c.33.23.77.36,1.03.67.8,1.03,1.67,1.31,2.89.67.72-.39,1.47,0,1.73.72.26.7-.08,1.37-.85,1.67-.75.28-1.52.54-2.29.82-.52.18-.98.08-1.37-.28-.36-.33-.75-.64-1.06-1.03-.31-.36-.62-.36-1-.18-.33.15-.72.28-1.08.39-.75.23-1.42-.1-1.67-.8-.23-.67.08-1.34.85-1.62.9-.33,1.83-.64,2.83-1.03Z"/>
  <path d="M40.52,74.48c.67.15,1.24.26,1.8.44.49.15.8.08,1.08-.36.21-.31.49-.62.75-.88.49-.52,1.24-.57,1.75-.15.54.44.67,1.19.21,1.78-.54.7-1.11,1.37-1.7,2.04-.36.39-.8.54-1.34.39-.03,0-.05,0-.05-.03-1.24-.49-2.27-.46-3.07.88-.39.67-1.26.64-1.8.18-.52-.44-.59-1.21-.13-1.8.54-.67,1.08-1.34,1.65-1.96.26-.23.62-.36.85-.52Z"/>
</svg>