<?xml version="1.0" encoding="UTF-8"?>
<svg id="Calque_1" xmlns="http://www.w3.org/2000/svg" version="1.1" viewBox="0 0 100 100">
  <!-- Generator: Adobe Illustrator 30.0.0, SVG Export Plug-In . SVG Version: 2.1.1 Build 123)  -->
  <path d="M90.17,91.45c-.62,0-1.25-.39-1.25-1.28,0-16.32,0-33.17-1.44-49.83-.59-7.54-4.26-12.72-11.15-15.8-.03-.03-.1-.03-.13-.03-.07,0-.1,0-.16.03-.1.07-.16.13-.16.23-1.64,12.42-6.06,24.26-12.82,34.25-.1.13-.07.33.07.43,3.54,2.82,6.06,6.82,7.11,11.28.03.13.16.23.3.26h.1c1.57.1,3.21.16,4.75.43h.07c.07,0,.16-.03.23-.1s.1-.16.1-.26l-1.44-23.04c0-.36.1-.66.3-.89.23-.23.59-.39.95-.39.52,0,1.18.3,1.21,1.15l1.51,23.77c0,.13.1.26.23.3,2.29.69,7.05,3.44,7.57,6.06.2.95-.2,1.8-1.15,2.56-.13.1-.16.26-.1.39.62,1.31.66,3.05-1.11,3.93-.13.07-.2.23-.16.39.23.89.16,1.64-.26,2.23-.49.69-1.38,1.11-2.49,1.21-.16,0-.26.13-.3.26-.26,1.48-1.25,2.23-2.95,2.23s-3.7-.82-4.2-1.25c-.07-.03-.13-.07-.2-.1l-2.16-.16c-.16,0-.3.13-.33.3-.07.59-.62,1.05-1.28,1.05h-.13l-16.36-1.7h-.07c-14.72,1.9-28.81,2.07-43.14,2.07-.36,0-.66-.13-.92-.36-.16-.23-.3-.56-.3-.89.16-2.46.69-3.77,2.26-5.61l.82-.98c.07-.07.1-.16.07-.26-.2-1.34-.46-2.69-.72-3.97-.75-3.61-1.44-7.01-.75-10.65.2-1.08.23-2.33.3-3.67.13-3.54.33-7.54,3.34-8.78.1-.03.2-.13.2-.26l2.36-15.64c1.64-11.28,7.24-17.8,17.64-20.55,1.11-.3,2.13-.46,3.05-.59,3.51-.56,5.83-.92,6.13-6.69l.16-2.75c.03-.92.69-1.21,1.25-1.21.36,0,.72.13.95.39.23.23.33.52.3.92l-.16,2.85c-.43,7.47-2.69,7.9-7.18,8.72-1.15.2-2.43.43-3.84.82-9.31,2.46-14.32,8.33-15.83,18.45l-2.13,14.65c0,.1,0,.2.07.26s.16.1.26.1c1.7,0,3.41.03,5.05.03,1.64.03,3.34.03,5.05.03.16,0,.3-.13.33-.3l1.08-7.67c.1-.79.66-1.05,1.15-1.05.39,0,.75.16.98.43s.33.59.26.98l-.98,7.24c0,.1,0,.2.07.26s.16.1.26.1c6.79,0,12.98-.2,18.88-.62.56-.03,1.08-.07,1.54-.07.98,0,1.84.07,2.66.23h.07c.1,0,.2-.07.26-.13,6.72-9.83,11.01-21.34,12.49-33.21.03-.16-.1-.33-.26-.36-3.67-.79-5.47-1.87-5.9-8.56l-.1-2.85c-.03-.39.07-.69.26-.92.23-.23.56-.36.92-.36.56,0,1.21.33,1.31,1.25l.1,2.75c.36,5.38,1.97,5.9,5.54,6.56,6.52,1.18,11.44,3.21,15.05,6.23,4.13,3.47,6.42,8.19,6.95,14.39,1.44,16.68,1.44,33.63,1.44,50.02-.07.92-.69,1.31-1.31,1.31ZM71.03,73.59c-.1,0-.16.03-.23.1s-.1.16-.1.23c.2,2.95.16,6.2.13,9.34,0,1.21-.03,2.43-.03,3.61,0,.16.13.3.3.33l2.69.26c.2,0,.85.36,1.34.59,1.11.56,1.93.95,2.43.95h0c.26,0,.39-.1.49-.2s.16-.26.13-.49c0-.07-.03-.13-.1-.2l-1.61-1.44c-.56-.49-.49-1.02-.39-1.28.2-.52.72-.95,1.25-.95.26,0,.52.1.75.3l1.61,1.44s.03,0,.03.03c.36.23.66.36.92.36.43,0,.66-.26.72-.39.1-.1.13-.26.07-.39-.56-1.05-1.51-1.97-2.92-3.21-.59-.49-.49-1.05-.39-1.31.2-.52.72-.92,1.21-.92.3,0,.56.1.82.33l2.03,1.87c.07.07.13.1.23.1.07,0,.13-.03.2-.07.13-.1.16-.26.1-.39-.33-.75-1.18-1.57-1.97-2.33l-.89-.89c-.56-.52-.46-1.02-.33-1.28.2-.49.69-.85,1.21-.85.3,0,.56.13.82.36l1.54,1.44c.07.07.13.1.23.1.07,0,.13-.03.2-.07.13-.1.16-.26.1-.43-2.33-4.33-10.23-4.65-12.59-4.65ZM18.68,77.13c.52,0,1.02.36,1.21.89.1.26.2.79-.33,1.31l-5.7,5.38c-1.31,1.11-2.33,2.59-2.69,3.9-.03.1,0,.2.07.3.07.07.16.13.26.13,12.23,0,25.27-.13,38.65-1.7.13,0,.23-.1.26-.2s.03-.23-.03-.33c-.72-.89-1.34-1.87-1.93-2.82-.39-.52-.33-.95-.16-1.21.23-.46.72-.75,1.21-.75.36,0,.69.16.92.49.3.36.56.75.85,1.18.89,1.28,1.8,2.59,3.08,3.38.03.03.1.03.13.03l11.54,1.25h.03c.13,0,.26-.1.3-.2.07-.13,0-.3-.13-.39-4.85-3.41-7.64-9.34-7.64-16.36,0-.85.66-1.21,1.28-1.21s1.28.36,1.28,1.21c0,6.13,2.39,11.37,6.56,14.39.07.03.13.07.2.07s.1,0,.16-.03c.1-.07.16-.16.16-.3,0-1.21.03-2.43.07-3.74.07-2.62.13-5.34-.07-7.83-.59-8.95-8.56-16.26-17.77-16.26-.39,0-.79,0-1.18.03-6.2.46-12.85.69-20.29.69-3.61,0-7.44-.07-11.77-.16h-.1c-3.9,0-4.1,4.26-4.23,7.7-.07,1.18-.1,2.29-.26,3.18-.62,3.25.13,6.95.79,10.23.1.49.2.95.3,1.44.03.13.1.23.23.26h.1c.1,0,.16-.03.23-.1l3.67-3.47c.2-.26.46-.36.75-.36ZM58.87,52.05c-.1,0-.23.07-.3.16-.36.59-.72,1.11-1.05,1.67-.36.56-.72,1.11-1.08,1.7-.07.1-.07.2-.03.3s.1.16.2.2c1.54.49,2.82,1.02,3.97,1.67.07.03.1.03.16.03.1,0,.2-.07.26-.13.36-.52.69-1.08,1.05-1.61.33-.52.66-1.08,1.02-1.61.07-.07.07-.16.03-.26s-.1-.16-.16-.2l-3.93-1.87c-.03-.07-.1-.07-.13-.07ZM68.96,22.19c-.07,0-.13.03-.2.07-.07.07-.13.13-.13.23-1.25,9.51-4.03,18.32-8.56,26.98-.03.07-.03.16-.03.26.03.1.1.16.16.2l3.93,1.87s.1.03.13.03c.13,0,.23-.07.3-.16,4.72-8.52,7.7-17.9,8.88-27.93.03-.16-.07-.3-.23-.36l-.52-.16c-1.25-.39-2.46-.75-3.7-1.02t-.03,0Z"/>
</svg>