<?xml version="1.0" encoding="UTF-8"?>
<svg id="Calque_1" xmlns="http://www.w3.org/2000/svg" version="1.1" viewBox="0 0 100 100">
  <!-- Generator: Adobe Illustrator 30.0.0, SVG Export Plug-In . SVG Version: 2.1.1 Build 123)  -->
  <path d="M42.85,13.93c1.83.48,2.9,1.69,3.49,3.44.17.48.39.68.96.68,2.11.06,3.66,1.1,4.53,3.01.87,1.94.62,3.8-.79,5.44-.31.37-.34.65-.34,1.1.03.82-.08,1.66-.14,2.59,2.17.59,2.79,2.51,3.21,4.51,2.82.48,4.42,1.89,4.87,4.31.34,1.91-.28,3.52-1.72,4.79-.28.25-.39.48-.42.87-.08.87-.31,1.72-.48,2.68,1.66.76,2.34,2.34,2.45,4.22.03.48.2.76.73.93,2.08.65,3.27,2.14,3.55,4.28.25,2.06-.54,3.72-2.28,4.87-.39.25-.54.54-.62.99-.17.82-.54,1.58-.84,2.45,1.89,1.15,2,3.15,1.86,5.24,1.86.7,3.04,1.97,3.44,3.91.48,2.31-.73,4.73-2.87,5.69-.39.17-.59.37-.68.79-.25,1.13-.9,2.03-1.91,2.59-6.62,3.72-13.24,3.69-19.85-.03-1.01-.56-1.58-1.49-1.91-2.59-.08-.25-.31-.56-.56-.68-1.97-.96-3.01-2.53-3.04-4.67-.03-2.17,1.04-3.8,3.04-4.73.37-.17.45-.37.45-.73.03-.84.17-1.66.2-2.51,0-.25-.23-.48-.31-.73-.28-.96-.99-1.32-1.89-1.72-1.86-.82-2.82-2.39-2.9-4.39-.08-1.91.7-3.46,2.34-4.53.37-.25.48-.45.42-.9-.08-.82-.08-1.63-.17-2.45-.03-.25-.31-.48-.42-.76-.42-.87-1.15-1.13-2.06-1.38-1.91-.54-3.1-1.91-3.49-3.86-.39-1.91.14-3.58,1.63-4.87.37-.31.45-.56.31-1.01-.23-.76-.34-1.55-.51-2.34-.03-.14-.08-.31-.2-.42-.73-.68-1.35-1.32-2.53-1.41-1.94-.17-3.32-1.46-3.97-3.38-.65-1.89-.25-3.6,1.04-5.13.14-.17.2-.54.14-.76-.17-.56-.48-1.07-.65-1.63-.51-1.52-.2-2.9.9-4.08,1.07-1.15,2.45-1.38,3.94-1.07.65.14,1.1.73,1.07,1.38-.03.68-.54,1.24-1.21,1.35-.08,0-.2.03-.28.03-1.83-.03-2.22.56-1.49,2.22.31.7.65,1.41.93,2.11.34.82.11,1.44-.65,1.91-1.13.7-1.52,1.8-1.01,2.93s1.61,1.61,2.84,1.24c.9-.28,1.55-.06,1.89.84.39,1.1,1.13,1.41,2.2,1.46,5.97.23,10.76-1.94,14.42-6.67.48-.62.54-1.18.25-1.89-.56-1.27-.42-1.66.76-2.42.9-.59,1.21-1.77.76-2.82-.48-1.04-1.58-1.58-2.65-1.27-1.21.37-1.69.14-2.22-1.04-.34-.76-.65-1.49-1.01-2.25-.54-1.1-1.49-1.21-2.25-.25-.14.17-.25.34-.39.51-.51.54-1.3.62-1.86.2-.59-.42-.76-1.24-.37-1.89.68-1.13,1.63-1.89,2.9-2.28.48,0,.96,0,1.44,0ZM37.5,53.64c.08.68.2,1.44.28,2.2.17,1.52.03,1.72-1.44,2.22-1.04.37-1.63,1.38-1.44,2.51s1.04,1.89,2.17,1.91c1.3,0,1.66.31,1.86,1.58.08.65.31,1.21,1.01,1.46,5.72,2.2,11.1,1.52,16.14-2,.84-.59,1.13-1.27.99-2.25-.17-.99.23-1.49,1.18-1.77,1.21-.34,1.91-1.35,1.75-2.51-.2-1.24-1.13-2.03-2.39-2-1.01.03-1.49-.42-1.66-1.41-.14-.93-.23-1.86-.42-2.79-.2-1.04-1.13-1.41-1.94-.73-3.1,2.51-6.84,3.21-10.62,3.6-1.77.23-3.6,0-5.46-.03ZM39.78,68.68s0,0,0,.06v2.11c0,1.58-.17,1.77-1.72,2.08-1.07.23-1.83,1.18-1.8,2.28.03,1.1.79,2,1.83,2.2,1.46.28,1.66.51,1.69,1.97,0,.65.2,1.15.79,1.46,5.41,2.96,10.81,3.07,16.31.25.87-.45,1.24-1.01,1.21-2-.06-1.04.42-1.49,1.44-1.63,1.3-.2,2.08-1.07,2.08-2.31-.03-1.21-.82-2.08-2.08-2.25-1.01-.14-1.41-.59-1.44-1.63,0-.9.03-1.83,0-2.73-.03-1.1-.87-1.55-1.86-1.07-.73.37-1.46.76-2.22,1.04-2.96,1.13-6.05,1.21-9.15,1.01-1.69-.08-3.35-.54-5.07-.84ZM33.14,39c0-.08-.03-.03,0,0,.2.82.42,1.61.65,2.39.31,1.13.06,1.66-.99,2.11s-1.58,1.52-1.3,2.65c.28,1.07,1.24,1.8,2.34,1.72,1.58-.11,1.77,0,2.25,1.52.2.59.54.96,1.15,1.1,6,1.35,11.26-.06,15.74-4.28.68-.65.87-1.3.59-2.2-.34-1.07-.06-1.58.99-2.06,1.1-.48,1.61-1.58,1.3-2.7-.34-1.18-1.38-1.86-2.59-1.63-1.01.17-1.55-.14-1.86-1.13-.28-.9-.51-1.8-.79-2.68-.34-1.01-1.3-1.3-2.03-.54-2.82,2.99-6.51,4.22-10.34,5.15-1.66.37-3.41.37-5.13.56Z"/>
  <path d="M64.48,36.32c-.08.96-.14,1.8-.23,2.68-.08.9-.73,1.46-1.52,1.38-.79-.08-1.32-.76-1.27-1.63.08-1.24.17-2.48.25-3.72.08-1.21.68-1.69,1.91-1.58.51.03,1.01.06,1.61.08.08-.96.14-1.86.23-2.76.11-.96.73-1.55,1.55-1.44.84.11,1.32.76,1.24,1.72-.08,1.3-.17,2.62-.28,3.91-.11,1.1-.62,1.52-1.72,1.46-.59-.03-1.15-.08-1.77-.11Z"/>
  <path d="M68.22,53.22c-.9-.06-1.69-.14-2.48-.2-1.01-.06-1.61-.62-1.55-1.52.06-.84.68-1.35,1.66-1.3,1.3.08,2.62.17,3.91.28.84.08,1.35.65,1.35,1.49,0,.62-.06,1.27-.11,1.97.9.06,1.8.14,2.7.2.93.08,1.46.59,1.49,1.38.03.79-.51,1.46-1.3,1.44-1.58-.06-3.13-.17-4.67-.31-.7-.06-1.13-.7-1.13-1.46.03-.62.06-1.27.11-1.97Z"/>
  <path d="M72.36,42.57c.73-.65,1.41-1.24,2.08-1.8.73-.62,1.58-.59,2.11.06.51.62.42,1.44-.25,2.06-1.01.9-2.06,1.8-3.07,2.68-.76.65-1.49.59-2.17-.14-.39-.42-.76-.87-1.21-1.38-.65.56-1.27,1.1-1.91,1.63-.79.68-1.61.68-2.17,0-.54-.65-.42-1.49.34-2.14.93-.82,1.86-1.63,2.82-2.42.79-.65,1.52-.62,2.22.14.39.37.79.82,1.21,1.32Z"/>
  <path d="M36.12,20.89c0,.79-.62,1.38-1.41,1.35-.76,0-1.38-.62-1.41-1.38,0-.76.68-1.44,1.44-1.41.79.03,1.38.65,1.38,1.44Z"/>
</svg>