<?xml version="1.0" encoding="UTF-8"?>
<svg id="Calque_1" xmlns="http://www.w3.org/2000/svg" version="1.1" viewBox="0 0 100 100">
  <!-- Generator: Adobe Illustrator 30.1.0, SVG Export Plug-In . SVG Version: 2.1.1 Build 136)  -->
  <defs>
    <style>
      .st0 {
        fill: #1d1d1b;
      }

      .st1 {
        display: none;
      }
    </style>
  </defs>
  <path class="st0" d="M14.23,81.21c7.73-8.67,15.51-17.35,22.94-26.22,0,0,1.05-1.29,1.05-1.29,2.24-2.63,2.51-6.48,1.37-9.72-2.56-6.8-1.81-14.68,1.72-20.95,5.5-10.03,18.1-15.06,28.88-11.33,5.23,1.72,9.72,5.28,12.58,9.83.88,1.4.46,3.26-.95,4.14-1.35.85-3.11.49-4.03-.78-2.38-3.22-5.85-5.52-9.61-6.44-11.71-3.01-22.78,7.54-19.82,19.33.21.85.57,1.69.93,2.48,2.76,6.29,2.44,14.07-1.47,19.88-7.25,10.32-14.99,20.23-22.62,30.22-6.32,7.51-17.24-1.51-10.98-9.14h0Z"/>
  <g class="st1">
    <path class="st0" d="M14.23,81.21c7.73-8.67,15.51-17.35,22.94-26.22,0,0,1.05-1.29,1.05-1.29,2.24-2.63,2.51-6.48,1.37-9.72-2.56-6.8-1.81-14.68,1.72-20.95,5.5-10.03,18.1-15.06,28.88-11.33,5.23,1.72,9.72,5.28,12.58,9.83.88,1.4.46,3.26-.95,4.14-1.35.85-3.11.49-4.03-.78-2.38-3.22-5.85-5.52-9.61-6.44-11.71-3.01-22.78,7.54-19.82,19.33.21.85.57,1.69.93,2.48,2.76,6.29,2.44,14.07-1.47,19.88-7.25,10.32-14.99,20.23-22.62,30.22-6.32,7.51-17.24-1.51-10.98-9.14h0Z"/>
  </g>
</svg>