<?xml version="1.0" encoding="UTF-8"?>
<svg id="Calque_1" xmlns="http://www.w3.org/2000/svg" version="1.1" viewBox="0 0 100 100">
  <!-- Generator: Adobe Illustrator 30.0.0, SVG Export Plug-In . SVG Version: 2.1.1 Build 123)  -->
  <path d="M17.24,91.42c-.84,0-1.71,0-2.49-.23-2.17-.61-3.53-2.13-3.98-4.37-.61-3.04-1.16-6.15-1.71-9.15-.19-1.1-.39-2.17-.58-3.27-.06-.36-.1-.71-.16-1.1-.03-.16-.03-.32-.06-.49v-4.72c.06-.45.13-.91.16-1.36.13-.97.26-2.01.39-3.01.87-5.63,2.72-11,4.43-15.53.32-.84.65-1.65.97-2.46.74-1.81,1.52-3.72,1.97-5.66.84-3.49,1.46-7.21,1.84-11.13.42-4.43.74-8.93,1.04-13.26.13-1.84.23-3.65.39-5.5.06-.97.58-1.65,1.29-1.65.13,0,.26.03.39.06.68.19,1,.71.97,1.49l-.03.55c-.13,2.49-.26,5.11-.42,7.63-.16,2.2-.32,4.4-.52,6.57-.1,1.04-.16,2.07-.26,3.11v.81l2.26.36c1.49.26,2.98.49,4.43.74.61.1,1.23.19,1.81.29,1.23.19,2.52.39,3.75.61.13.03.23.03.29.03.52,0,.74-.32.91-.65l.39-.78c3.14-6.31,6.37-12.81,8.34-19.76.19-.65.68-1.07,1.26-1.07.13,0,.29.03.42.06.78.26,1.07.91.84,1.78-1.65,5.76-4.14,11.19-6.34,15.75-1.91,3.95-3.75,7.83-5.4,11.77-.74,1.81-1.07,3.78-1.36,5.56-.39,2.49.32,4.82,2.17,6.92.45.52.91,1.04,1.33,1.55l.58.68c1.39,1.62,2.04,3.78,1.81,6.08-.19,2.33-1.33,4.53-2.94,5.89-1.13.94-2.46,1.81-4.27,2.81-4.88,2.72-5.47,3.2-6.44,8.93-.45,2.85-.81,5.79-1.13,9.32-.32,3.49-2.72,5.76-6.08,5.76h-.26ZM30.83,50.47c-.13.1-.26.23-.39.32-.26.23-.52.45-.78.68-.58.55-1.13,1.07-1.68,1.58-6.4,6.5-11.74,13.71-16.11,19.92-.61.87-.78,1.65-.58,2.68.42,2.04.81,4.14,1.2,6.18.13.74.29,1.52.42,2.26.06.39.16.81.23,1.2.45,2.72,1.33,3.46,4.08,3.46,2.26,0,3.46-1.1,3.65-3.4.36-4.08.84-8.44,1.94-12.68.71-2.72,2.17-4.69,4.43-6.02.49-.29.97-.55,1.46-.81.78-.42,1.58-.87,2.33-1.36l.06-.03c1.07-.68,2.17-1.39,3.07-2.3,2.01-2.04,2.17-5.43.39-7.73-.71-.94-1.46-1.81-2.23-2.72-.36-.42-.71-.84-1.07-1.26l-.23-.26-.19.26ZM14.62,52.22c-1.62,4.63-3.3,10.19-3.65,16.37l-.06,1.04,9.7-12.55-5.82-5.34-.16.49ZM22.03,54.8l.97-.87c1.39-1.23,2.72-2.43,4.04-3.59.06-.06.13-.16.16-.23.03-.03.03-.06.06-.13l.29-.49h-11.32l5.79,5.3ZM20.41,31.81c-.49,4.37-1.29,9.51-3.62,14.46l-.23.45h13.36l-.03-.36c-.42-4.43,1.07-8.47,2.75-12.52l.16-.39-12.32-2.01-.06.36Z"/>
  <path d="M63.37,91.45h-20.25c-4.3,0-7.7-3.4-7.76-7.7-.03-1.23-.03-2.81.13-4.4.16-1.71.81-3.33,1.91-4.63,6.82-8.22,9.74-18.18,11.71-26.88.74-3.33,1.29-6.76,1.78-10.09.23-1.52.49-3.11.74-4.66,1.46-8.67,3.07-16.24,4.98-23.13.03-.13.06-.26.13-.36.23-.61.71-1,1.26-1,.13,0,.23.03.36.03.74.19,1.1.84.94,1.58-.26,1.07-.52,2.13-.81,3.17-.26.97-.52,1.97-.74,2.98-1.75,7.25-3.23,15.07-4.75,25.33-.29,1.88-.65,3.75-1.04,5.6-.16.84-.32,1.68-.49,2.52-.03.13-.06.29-.1.45l-.13.61,14.17,3.23.19-.52c.06-.19.16-.39.23-.55l4.92-12.87c.06-.19.16-.39.23-.58.26-.52.71-.84,1.23-.84.16,0,.32.03.49.1.68.26,1,.97.74,1.68-.74,2.01-1.52,4.04-2.26,6.02l-8.44,21.87c-.42,1.13-.45,2.1-.06,2.88s1.2,1.36,2.39,1.71c6.76,1.97,14.59,4.3,22.25,6.57,2.91.87,4.79,3.69,4.4,6.53-.42,3.07-3.01,5.27-6.11,5.27-7.41.03-14.81.06-22.22.06ZM38.01,78.9l-.03.29v4.17c.03,3.23,2.2,5.43,5.43,5.43h41.89c2.01,0,3.53-1.16,3.75-2.91.26-1.71-.84-3.23-2.72-3.82-1.23-.39-2.46-.74-3.69-1.1-2.85-.84-5.76-1.71-8.6-2.65-.39-.13-.71-.19-1.04-.19-.68,0-1.23.29-1.78.91-2.04,2.26-4.63,3.36-7.92,3.36h-.26c-1.75-.03-3.65-.03-5.98-.03h-8.96c-.45,0-1.07,0-1.68-.06-2.81-.29-5.34-1.46-7.57-3.4l-.1-.1-.74.1ZM39.79,76.09l.16.19s.06.1.13.13c.1.13.26.26.39.42,2.01,1.88,4.43,2.85,7.25,2.94h.19c1.04,0,1.78-.32,2.49-1.07,1.58-1.62,3.23-3.23,4.82-4.82.68-.65,1.33-1.29,2.01-1.94.13-.13.26-.26.39-.42l.23-.26.39-.42-13.1-2.62-5.34,7.86ZM53.44,79.74h6.76c1.71,0,3.11,0,4.4-.06,1.65-.03,3.17-.78,4.46-2.2l.29-.32-.39-.19c-.97-.45-2.01-.71-3.01-.97-2.1-.52-4.11-1.04-5.4-3.11l-.23-.36-6.89,7.21ZM46.22,65.77l13.65,2.72,4.53-11.84-13.78-3.17-4.4,12.29Z"/>
  <path d="M77.47,27.89c-.52,0-.94-.19-1.16-.55-.26-.36-.29-.87-.1-1.42.45-1.23.94-2.49,1.42-3.72.23-.55.42-1.1.65-1.65l1.29-3.4c.94-2.46,1.88-4.92,2.85-7.41.29-.74.74-1.16,1.33-1.16.1,0,.23,0,.36.03.39.1.68.32.84.65.19.36.19.87,0,1.39-.87,2.33-1.78,4.66-2.68,7.02l-1.84,4.59c-.58,1.55-1.2,3.07-1.78,4.63-.26.65-.65.97-1.16,1h0Z"/>
  <path d="M74.75,34.59c-.71,0-1.29-.61-1.29-1.33s.58-1.29,1.29-1.29h.06c.71.03,1.29.65,1.26,1.36,0,.65-.61,1.26-1.33,1.26h0Z"/>
</svg>