<?xml version="1.0" encoding="UTF-8"?>
<svg id="Calque_1" xmlns="http://www.w3.org/2000/svg" version="1.1" viewBox="0 0 100 100">
  <!-- Generator: Adobe Illustrator 30.0.0, SVG Export Plug-In . SVG Version: 2.1.1 Build 123)  -->
  <path d="M43.39,19.3c5.04,0,9.15-4.1,9.15-9.15S48.43,1,43.39,1s-9.15,4.11-9.15,9.15,4.11,9.15,9.15,9.15ZM43.39,3.68c3.57,0,6.47,2.9,6.47,6.47s-2.9,6.47-6.47,6.47-6.47-2.9-6.47-6.47,2.9-6.47,6.47-6.47ZM85.18,41.48h-24.59l-1.7-15.32c-.25-2.27-1.37-4.3-3.16-5.74-1.79-1.43-4.02-2.09-6.29-1.84-2.27.25-4.31,1.38-5.74,3.17-1.43,1.79-2.08,4.02-1.83,6.29l.6,5.39c.08.73.74,1.27,1.48,1.18.73-.08,1.27-.74,1.18-1.48l-.6-5.39c-.36-3.23,1.98-6.14,5.2-6.5,1.55-.18,3.09.27,4.32,1.26,1.23.98,2,2.39,2.18,3.94l1.67,15.03h-6.57c1.09-1.32,2.11-2.89,2.34-4.3l1.32-8.08c.12-.73-.38-1.42-1.11-1.54-.73-.12-1.42.38-1.54,1.11l-1.32,8.08c-.2,1.2-1.95,3.45-3.68,5.1-.01.01-.02.02-.04.03-.2.19-.4.37-.59.54l-5.54,4.8h0s-2.91,2.53-2.91,2.53c-.77.67-1.98.95-2.8.18-.43-.4-.68-1.02-.66-1.59.01-.3.1-.71.45-1l12.16-9.99c.25-.21.42-.5.47-.82l1.26-7.75c.12-.73-.38-1.42-1.11-1.54-.73-.12-1.42.38-1.54,1.11l-1.18,7.25-7.18,5.89H14.82c-2.24,0-4.06,1.82-4.06,4.05s1.82,4.06,4.06,4.06h4.5v48.06c0,.74.61,1.34,1.34,1.34s1.34-.6,1.34-1.34v-48.06h6.5c.74,0,1.34-.6,1.34-1.34s-.6-1.34-1.34-1.34h-13.68c-.76,0-1.38-.62-1.38-1.38s.62-1.38,1.38-1.38h20.07l-1.34,1.1c-.88.73-1.39,1.79-1.43,2.98-.05,1.35.51,2.7,1.5,3.64.86.8,1.93,1.21,3.05,1.2,1.16,0,2.35-.44,3.35-1.3l2.52-2.18h16.15c-.05.75-.21,1.61-.45,2.54-.02.06-.04.12-.05.19-1.17,4.47-4.09,10.53-6.21,14.93-.8,1.66-1.49,3.11-2.01,4.27-.09.19-.12.4-.11.61l1.02,18.65h-3.73l-3.68-18.87,2.45-18.15c.1-.73-.41-1.41-1.15-1.51s-1.41.41-1.51,1.15l-2.48,18.37c-.02.14-.02.29.01.44l3.62,18.57h-2.11c-3.62,0-5.86,5.62-6.11,6.26-.16.41-.1.87.14,1.23.25.36.66.58,1.09.59l15.15.13h.01c.37,0,.71-.15.97-.41.26-.27.39-.63.37-1l-.3-5.53s0-.07-.01-.11l-1.07-19.62c.48-1.08,1.12-2.39,1.84-3.9,1.14-2.37,2.44-5.07,3.6-7.76l-.16,7.48c0,.2.04.4.12.59l7.76,16.97-4.33,2.09-4.87-9.23c-.35-.66-1.16-.91-1.81-.56-.65.35-.91,1.16-.56,1.81l4.82,9.14-.41.2c-3.27,1.58-2.84,7.61-2.77,8.29.04.44.29.82.67,1.04.21.12.44.18.67.18.2,0,.39-.04.57-.13l12.66-5.96c.66-.31.95-1.1.65-1.77l-2.3-5.03-8.18-17.89.31-15.18c.28-1.12.46-2.16.52-3.11h16.64s0,48.06,0,48.06c0,.74.6,1.34,1.34,1.34s1.34-.6,1.34-1.34v-48.06h4.5c2.24,0,4.06-1.82,4.06-4.06,0-2.24-1.82-4.06-4.05-4.06h0ZM39.56,96.2c.86-1.49,1.95-2.73,2.75-2.73h8.73l.15,2.84-11.63-.11ZM58.45,95.22c.12-1.71.57-3.31,1.29-3.66l7.11-3.43,1.18,2.58-9.57,4.51ZM85.18,46.92h-39.56l2.85-2.47s.12-.11.32-.29h36.39c.76,0,1.38.62,1.38,1.38,0,.76-.62,1.38-1.38,1.38h0Z"/>
</svg>