<?xml version="1.0" encoding="UTF-8"?>
<svg id="Calque_1" xmlns="http://www.w3.org/2000/svg" version="1.1" viewBox="0 0 100 100">
  <!-- Generator: Adobe Illustrator 30.0.0, SVG Export Plug-In . SVG Version: 2.1.1 Build 123)  -->
  <path d="M25.77,9.34c.16-.72.89-1.25,1.71-1.18.72.16,1.25.89,1.18,1.71-.72,3.87-1.81,7.75-3.25,11.52,2.63,1.54,4.96,2.33,7.75,3.15,2.33.53,2.33.62,4.33,3.32,2.17,2.89,3.51,4.76,4.6,8.37.53,1.97,1.54,4.23-.62,5.48,1.97,2.53,6.57,7.91,7.39,11h2.27c.82-3.05,5.32-8.47,7.39-11-2.27-1.25-1.18-3.51-.62-5.48.98-3.61,2.17-5.12,4.23-8.01,1.71-2.33,1.81-2.95,4.6-3.68,2.95-.89,5.12-1.54,7.85-3.15-1.44-3.78-2.53-7.65-3.25-11.52-.26-1.9,2.53-2.33,2.79-.53.62,3.61,1.61,7.03,2.89,10.34,2.27-1.71,4.4-3.68,6.47-5.68,1.35-1.25,3.32.82,1.97,2.17-5.97,5.42-9.95,9.03-17.96,11.1-1.81.46-2.07,1.35-3.05,2.69-1.9,2.63-2.95,3.97-3.78,7.12-.26.62-.72,1.81-.26,2.33l3.97-4.96c1.18-1.44,3.32.36,2.17,1.81-1.9,2.43-3.87,4.86-5.75,7.29-1.71,2.07-4.86,6.04-6.4,8.73-.36.62-.82,1.61-.53,2.33.46-.16,1.25-1.44,1.54-1.81l6.76-8.63c1.08-1.54,3.32.26,2.27,1.71l-7.85,10.08c-.46.89-.62,1.54-.62,1.97.46-.1,1.08-.53,1.71-1.25,1.44-1.71,2.79-3.61,4.23-5.42,2.17-2.69,4.04-5.12,5.48-7.29,1.08-1.54,3.41,0,2.43,1.61-1.54,2.27-3.51,4.76-5.68,7.49-1.08,1.25-2.17,2.69-3.41,4.23.46-.16.98-.62,1.61-1.25,3.05-3.25,5.48-6.4,7.85-9.45.82-.98,1.54-2.07,2.53-3.32,1.18-1.44,3.41.26,2.27,1.81-.72.89-1.61,2.07-2.53,3.32-1.61,2.17-3.32,4.33-5.32,6.57.16.1.36.16.62.1,6.11-2.27,14.58-19.8,19.27-25.74,1.18-1.44,3.41.26,2.27,1.81-1.61,2.07-3.41,5.32-4.86,7.75,5.32,17.73.98,34.67-3.87,51.94-.46,1.81-3.25.98-2.69-.82,2.53-8.9,5.06-18.35,5.84-27.64-14.77-1.97-29.87,2.43-32.04,19.27.26,2.63.46,5.58.26,8.83-.1,1.9-2.95,1.81-2.89-.1,1.18-24.13-12.41-29.35-32.6-27.81.82,9.19,3.32,18.55,5.84,27.45.53,1.81-2.27,2.63-2.69.82-4.86-16.94-9.36-34.67-3.94-51.97-1.54-2.43-3.25-5.68-4.86-7.75-.53-.62-.46-1.54.16-2.07.62-.46,1.54-.36,1.97.26,1.81,2.27,3.61,5.58,5.12,8.11.26.16.46.46.53.82,4.4,6.93,10.28,15.56,13.69,16.84.16.1.36,0,.53-.1-2.69-3.25-5.22-6.57-7.85-9.91-1.18-1.54,1.08-3.25,2.27-1.81,3.41,4.33,6.57,8.73,10.44,12.77.53.62,1.18,1.08,1.54,1.25-2.95-3.87-6.3-7.65-9-11.69-1.08-1.61,1.35-3.15,2.33-1.61,2.79,4.14,6.3,8.11,9.36,12.15.53.62,1.25,1.61,2.07,1.81.16-1.08-.82-2.27-1.44-3.05l-6.93-9c-1.18-1.44,1.08-3.25,2.27-1.71l7.75,10.08c.1,0,.46.46.53.26.1-.46,0-1.25-.53-2.27-2.89-5.06-8.47-11.26-12.25-16.02-1.18-1.44,1.08-3.25,2.27-1.81l3.87,4.99c.53-.53,0-1.71-.16-2.33-.89-3.25-2.17-4.86-4.04-7.49-1.44-1.9-1.44-1.97-2.79-2.33-7.75-1.81-12.28-5.84-17.92-11.06-.53-.53-.62-1.44-.1-2.07.53-.53,1.44-.62,1.97-.1,2.17,1.97,4.33,3.97,6.57,5.68,1.28-3.35,2.17-6.76,2.79-10.37h0ZM48.75,55.53c-.26.89-.98,1.71-1.9,1.9.36,3.61-3.15,4.23-5.68,2.17-2.07,2.07-4.96-.89-6.4-2.33-2.95,2.95-8.01-2.89-9.72-4.86-2.89-.72-6.11-1.61-8.83-2.95-.26,3.05-.36,6.4-.16,10.28,13.79-.98,28.79.16,34.01,15.56,4.96-14.12,20.42-17.56,33.75-15.76.16-3.61.1-6.93-.26-9.91-2.95,1.81-6.4,3.05-9.72,3.87-1.71,1.9-6.04,6.47-8.73,3.78-1.18,1.18-2.33,2.43-3.61,2.79-1.08.36-2.07.36-2.89-.46-2.53,2.07-5.94,1.44-5.58-2.17-.98-.26-1.61-.98-1.97-1.9-.79,0-1.51.1-2.3,0h0ZM22.19,48.61c-1.54-2.07-3.05-4.33-4.5-6.57-.46,1.44-.72,2.89-.98,4.4,1.61.98,3.68,1.61,5.48,2.17h0ZM82.24,42.01c-1.61,2.53-3.41,5.12-5.22,7.49,2.17-.72,4.33-1.71,6.11-3.05-.26-1.54-.53-2.99-.89-4.43h0ZM45.96,37.87c-1.44-1.18.36-3.41,1.81-2.27,2.07,1.71,2.53,1.61,4.69,0,1.54-1.08,3.25,1.18,1.71,2.27-3.18,2.43-5.06,2.53-8.21,0h0Z"/>
</svg>