<?xml version="1.0" encoding="utf-8"?>
<!-- Generator: Adobe Illustrator 28.1.0, SVG Export Plug-In . SVG Version: 6.00 Build 0)  -->
<svg version="1.1" id="Calque_1" xmlns="http://www.w3.org/2000/svg" xmlns:xlink="http://www.w3.org/1999/xlink" x="0px" y="0px"
	 viewBox="0 0 100 100" style="enable-background:new 0 0 100 100;" xml:space="preserve">
<style type="text/css">
	.st0{fill:#1D1D1B;}
</style>
<path class="st0" d="M98.1,63.8c-3.2,0-8.4,1.1-14.5,2.4c-6.8,1.5-14.4,3.1-19,2.9c-8.4-0.5-15.1-2.6-21.6-4.6
	c-5-1.6-10-3.1-15.4-3.9c0.1-0.8,0.3-1.6,0.6-2.4c2.2-6.1,9-9.9,15.2-8c2.9,0.8,5.4,2.8,7.9,5.5c2.9,3.2,6.6,8.9,12.3,7.6
	c1.9-0.4,3.4-1.5,4.7-2.8c0.7-0.7,2.6-2.4,3.4-3.1c2.9-2.7,10.4-9.6,13.4-12.3c5.3-5.2-2.3-13-7.6-7.8c0,0-12.9,13.4-15.8,16.5
	c-4.4-4.4-9.7-10.1-16.4-11.3c-9.8-2.3-20.4,4.1-23.1,13.7c-0.4,1.3-0.6,2.6-0.7,3.9C15.7,60,9.2,60.9,1.4,63.6
	c-0.9,0.3-1.3,1.2-1,2.1c0.3,0.9,1.2,1.3,2.1,1c7.4-2.5,13.6-3.4,19.1-3.3c0.8,6.8,5.3,12.9,11,16.5c2.6,1.7,5.4-2,2.9-4
	c-4-3-7.2-7.4-7.7-12.1c5.1,0.7,9.7,2.2,14.5,3.7c6.7,2.1,13.6,4.3,22.4,4.8c0.4,0,0.7,0,1.1,0c5,0,11.9-1.5,18.7-3
	c5.6-1.2,10.9-2.4,13.7-2.3c0.9,0,1.7-0.7,1.7-1.6C99.8,64.6,99,63.8,98.1,63.8z M62.5,54.3C62.5,54.3,62.5,54.3,62.5,54.3
	C62.7,54.4,62.6,54.4,62.5,54.3z"/>
<path class="st0" d="M35.3,68.3c-0.9-0.2-1.8,0.4-2,1.3c-0.2,0.9,0.4,1.8,1.3,2c0.4,0.1,10.3,2.4,8.9,12.5c-0.1,0.9,0.5,1.7,1.4,1.9
	c0.1,0,0.2,0,0.2,0c0.8,0,1.5-0.6,1.6-1.4C48.2,74,39.9,69.3,35.3,68.3z"/>
</svg>
