<?xml version="1.0" encoding="UTF-8"?>
<svg id="Calque_1" xmlns="http://www.w3.org/2000/svg" version="1.1" viewBox="0 0 100 100">
  <!-- Generator: Adobe Illustrator 30.0.0, SVG Export Plug-In . SVG Version: 2.1.1 Build 123)  -->
  <path d="M30.48,36.89c4.75-3.93,5.69-4.43,17.15-10.35l.06-.03c5.16-2.67,12.25-6.33,22.72-11.9.32-.18.53-.44.64-.76.12-.32.06-.7-.09-1-.23-.44-.67-.7-1.17-.7-.21,0-.41.06-.62.15-10.46,5.54-17.56,9.2-22.72,11.87l-.06.03c-11.43,5.92-12.6,6.54-17.59,10.67-4.07,3.37-6.13,12.78-8.5,23.71-1.99,9.17-4.28,19.58-8.06,27.44-.15.32-.18.67-.06,1,.12.32.35.59.67.76.18.09.38.12.56.12.5,0,.97-.29,1.17-.73,3.93-8.15,6.21-18.73,8.27-28.05,2.2-10,4.25-19.43,7.62-22.22Z"/>
  <path d="M87.69,39.88c-.23-.38-.64-.59-1.08-.59-.26,0-.5.09-.73.21-4.92,3.22-15.74,8.03-23.71,11.11-4.48,1.73-8.18,5.33-10.67,10.43-2.34,4.84-5.33,10.26-7.94,15.04l-.03.06c-2.26,4.13-4.19,7.71-5.39,10.2-.32.64-.03,1.44.62,1.76.18.09.38.12.56.12.5,0,.97-.29,1.17-.73,1.17-2.46,3.11-6.01,5.36-10.11,2.64-4.84,5.6-10.29,8-15.18,1.52-3.11,4.37-7.24,9.23-9.12,6.24-2.4,18.35-7.53,24.21-11.37.29-.21.5-.5.56-.82.09-.35.03-.7-.15-1Z"/>
  <path d="M33.32,46.77c.12,2.34,1.91,5.1,6.51,5.16,2.4.03,3.55.91,4.28,1.7,1.14,1.2,2.55,1.88,3.96,1.88h.15c1.26-.03,2.43-.62,3.28-1.61.79-.91.94-2.05,1.11-3.17v-.03c.18-1.17.35-2.37,1.32-3.25,4.63-4.04,12.6-8.35,21.02-12.93,2.34-1.26,4.84-2.61,7.39-4.02.32-.18.56-.47.64-.82.09-.35.03-.73-.15-1.03l-5.54-9.09c-.18-.29-.5-.53-.85-.62-.35-.06-.7,0-1.03.21l-2.34,1.61c-10.58,7.3-25.03,17.32-31.39,18.08-5.66.64-8.53,4.57-8.35,7.91Z"/>
  <path d="M40.18,69.66c2.55-2.23,3.81-4.6,3.75-7.01-.06-2.37-1.47-4.28-2.76-5.31-2.14-1.67-4.43-2.58-6.42-2.58-.82,0-1.58.15-2.29.47-2.29,1.06-3.55,3.63-3.75,7.68-.44,8.82-9,23.19-9.09,23.33-.23.41-.23.91-.03,1.32.23.41.67.67,1.14.67h9.35c.62,0,1.14-.44,1.29-1.06.03-.12,2.55-11.84,8.79-17.53ZM38.42,67.73c-5.63,5.1-8.38,14.07-9.32,17.67-.03.12-.15.21-.26.21h-5.33c-.09,0-.21-.06-.23-.15-.06-.09-.06-.21,0-.29,2.32-4.19,7.71-14.77,8.09-22.13.15-2.99.91-4.81,2.23-5.42.35-.15.73-.23,1.17-.23,1.38,0,3.17.76,4.81,2.05.76.62,1.7,1.85,1.73,3.31.06,1.61-.91,3.28-2.87,4.98Z"/>
</svg>