<svg viewBox="0 0 64 80">
    <path d="M55.242,61.774L50.6,41.745c-1.995-9.067-4.522-11.78-7.722-15.215c-0.696-0.748-1.419-1.532-2.172-2.415V13.423    c0-2.125-1.728-3.854-3.851-3.854c-0.671,0-1.303,0.173-1.854,0.476V8.28c0-2.125-1.729-3.854-3.854-3.854    c-0.67,0-1.3,0.172-1.85,0.475V4.851C29.298,2.728,27.569,1,25.443,1c-1.816,0-3.343,1.264-3.746,2.958    c-0.574-0.34-1.244-0.536-1.958-0.536c-2.125,0-3.854,1.729-3.854,3.854v7.283c-0.734-0.502-1.622-0.796-2.576-0.796    c-2.523,0-4.576,2.053-4.576,4.576v12.802c0,5.388,2.663,10.322,7.152,13.311V62c0,0.553,0.448,1,1,1s1-0.447,1-1V43.907    c0-0.347-0.18-0.669-0.474-0.851c-4.182-2.584-6.678-7.038-6.678-11.914V18.341c0-1.42,1.156-2.576,2.576-2.576    s2.576,1.156,2.576,2.576v6.505c0,0.552,0.448,1,1,1c3.245,0,7.438,3.188,8.083,5.479c0.124,0.441,0.525,0.729,0.962,0.729    c0.089,0,0.181-0.012,0.271-0.038c0.531-0.149,0.841-0.702,0.691-1.233c-0.87-3.091-5.265-6.337-9.007-6.856V7.277    c0-1.022,0.832-1.854,1.854-1.854c1.022,0,1.854,0.832,1.854,1.854v13.124c0,0.552,0.448,1,1,1s1-0.448,1-1V4.851    c0-1.021,0.83-1.851,1.851-1.851c1.022,0,1.854,0.831,1.854,1.851v15.752c0,0.552,0.448,1,1,1s1-0.448,1-1V8.28    c0-1.022,0.83-1.854,1.85-1.854c1.022,0,1.854,0.832,1.854,1.854v13.268c0,0.552,0.448,1,1,1s1-0.448,1-1v-8.124    c0-1.022,0.832-1.854,1.854-1.854c1.021,0,1.851,0.832,1.851,1.854v17.719c0,2.216-0.53,4.39-1.536,6.35l-4.085-2.704    c-2.636-1.744-5.058-0.741-6.192,0.925c-1.181,1.734-1.226,4.427,1.017,6.002l3.357,2.355c0.775,0.646,1.081,1.548,1.502,2.797    c0.085,0.251,0.174,0.515,0.272,0.787c-0.005,0.014-0.013,0.021-0.013,0.041V62c0,0.553,0.448,1,1,1s1-0.447,1-1V51.424    c0.68,0.896,1.565,1.822,2.762,2.754l2.02,8.065C39.925,62.697,40.333,63,40.78,63c0.081,0,0.163-0.01,0.244-0.03    c0.536-0.134,0.861-0.677,0.728-1.213l-2.104-8.404c-0.056-0.223-0.187-0.42-0.371-0.558c-3.202-2.397-3.951-4.613-4.611-6.568    c-0.467-1.381-0.908-2.687-2.183-3.743l-3.422-2.405c-1.208-0.849-1.173-2.271-0.514-3.239c0.604-0.884,1.823-1.449,3.436-0.383    l6.043,4.001c0.46,0.305,1.081,0.179,1.386-0.282c0.305-0.46,0.179-1.081-0.282-1.386l-0.284-0.188    c1.217-2.292,1.86-4.85,1.86-7.459v-4.013c0.238,0.258,0.476,0.514,0.708,0.764c3.108,3.337,5.354,5.748,7.234,14.292l4.645,20.04    C53.4,62.688,53.812,63,54.267,63c0.075,0,0.151-0.008,0.227-0.025C55.031,62.85,55.366,62.313,55.242,61.774z"/>
    <path d="M25.834,42.71c-1.016-0.501-1.776-1.368-2.14-2.44c-0.364-1.071-0.288-2.221,0.213-3.236    c0.245-0.495,0.042-1.095-0.454-1.339c-0.495-0.246-1.095-0.042-1.339,0.454c-0.738,1.494-0.849,3.186-0.314,4.764    c0.536,1.579,1.654,2.854,3.149,3.591c0.143,0.07,0.293,0.104,0.441,0.104c0.369,0,0.724-0.205,0.898-0.558    C26.533,43.554,26.329,42.954,25.834,42.71z"/>
</svg>