<?xml version="1.0" encoding="UTF-8"?>
<svg id="Calque_1" xmlns="http://www.w3.org/2000/svg" version="1.1" viewBox="0 0 100 100">
  <!-- Generator: Adobe Illustrator 30.0.0, SVG Export Plug-In . SVG Version: 2.1.1 Build 123)  -->
  <path d="M80.44,48.79s.04-.12.08-.15c2.98-2.55,4.95-6.11,5.91-10.51,1.89-8.89-1.28-17.62-8.7-23.96-5.95-5.14-13.99-8.08-22.11-8.08-5.95,0-11.67,1.58-16.46,4.56-6.69,4.17-11.05,10.51-11.98,17.35-.54,4.52.58,8.46,3.21,11.44,2.82,3.17,7.3,5.02,12.25,5.02.54,0,1.08-.04,1.62-.08.04,0,.12.04.15.08s.04.12.04.15c-.39,2.4,1.04,3.94,2.82,5.95,2.51,2.78,5.64,6.22,4.6,13.45-.08.5.08,1,.39,1.39s.77.58,1.24.58c.27,0,.5-.08.73-.19l7-2.67c1.31-.5,1.08-1.89.89-3.01,0-.08,0-.15.08-.19s.15-.04.19,0c2.74,1.43,5.33,2.16,7.73,2.16,2.71,0,5.06-.97,6.84-2.74,2.4-2.4,3.56-6.03,3.48-10.55ZM47.9,44.85c.66-2.09,5.14-4.6,7.46-4.6.19,0,.35,0,.5.04.12.04.23.04.35.04.97,0,1.47-.81,1.58-1.55.08-.77-.27-1.62-1.31-1.86-.5-.08-1-.15-1.47-.15-2.4,0-4.1,1.16-5.76,2.28-1.31.89-2.59,1.74-4.1,1.97-.77.12-1.47.12-2.24.12-.08,0-.15-.04-.19-.12s0-.15.04-.19c2.51-2.51,2.36-3.83,2.05-6.49-.08-.23-.08-.54-.12-.89-.04-.27-.04-.58-.12-.89,0-.04,0-.12.04-.15s.08-.08.12-.08c2.43-.23,5.57-.93,9.04-1.97.08-.04.15,0,.19.04.77.77,2.86.93,4.56,1.08,1.7.15,2.78.27,3.21.7.31.31.73,1.24,1.39,2.71.46,1.04.93,2.09,1.28,2.63.04.04.04.12.04.15-1.47,5.6-3.17,8.93-8.31,11.52-.04.04-.08.04-.12,0-3.21-.73-5.95-1.39-7.38-2.47-.73-.43-.97-1.08-.73-1.86ZM30.97,33.37s.08-.04.12-.04.08,0,.08.04c1.31.73,2.16,1.12,2.94,1.12.81,0,1.55-.46,2.86-1.55l.31-.23c.39-.31.85-.66,1.35-1,.04-.04.08-.04.15-.04.27.04.62.15,1,.23s.81.19,1.31.31c.08.04.15.12.15.19,0,.46.04.89.08,1.31.04.35.04.7.04,1,.23,2.09.15,2.9-3.17,5.68-.04.04-.12.04-.19.04l-.35-.12c-3.44-1.2-5.8-3.52-6.76-6.76,0-.08.04-.15.08-.19ZM37.62,28.38c-.7.39-1.2.85-1.66,1.24-.73.62-1.28,1.08-2.16,1.08-.46,0-.97-.15-1.58-.43-.97-.46-1.62-.93-1.74-1.2,0-.04-.04-.08-.04-.12.31-3.56,2.05-7.38,4.6-10.28.31-.43.58-.62.81-.62.5,0,.66.81.73,1.16.54,2.86,3.17,4.95,6.3,4.95.43,0,.85-.04,1.24-.12.31-.04.62-.08.89-.08,1.82,0,3.13,1.12,4.44,2.2.46.39.97.81,1.47,1.16.08.04.08.12.08.19s-.08.12-.15.15l-.23.08c-2.36.66-4.75,1.31-7.19,1.31-1.43,0-2.71-.23-3.9-.7-.81-.46-1.08-.54-1.89,0ZM52.15,9.64l.31.23c5.1,3.79,9.51,7.07,11.17,11.29.04.04,0,.12,0,.15-.04.04-.08.08-.15.08-.85.08-1.51.43-2.16,1.78,0,0,0,.04-.04.04-.27.31-.66.5-1.08.5-.62,0-1.08-.39-1.24-.93-.77-3.56-1.74-3.86-3.09-4.29-.43-.15-.77-.31-1.31-1.2-1.08-1.82-2.59-2.71-4.68-2.71-2.55,0-5.41,1.31-7.96,2.51-.66.31-1.28.58-1.86.85-.04.04-.12.04-.15,0s-.08-.08-.12-.12c-.23-.89-.54-1.58-1.35-2.2-.04-.04-.08-.08-.08-.15s.04-.12.08-.15c3.79-3.01,8.5-4.99,13.64-5.68,0-.04.04,0,.08,0ZM61.12,28.19c0,.08,0,.12-.08.15-.04.04-.08.04-.15.04-.66-.12-1.35-.19-2.05-.27s-1.39-.15-2.05-.27c-.08,0-.12-.04-.15-.12-.12-.19-.19-.43-.39-.62-.04-.04-.08-.12-.04-.15,0-.04.04-.12.08-.15.31-.19.66-.54.97-.85.04-.04.08-.04.15-.04.04,0,.08,0,.12.04l.15.12c.85.5,1.58.97,2.47.97.23,0,.43-.04.66-.08.04,0,.12,0,.15.04.04.04.08.08.08.15l.08,1.04ZM42.76,20.38c.19-.08.46-.19.73-.35h.04c1.58-.73,4.21-1.97,6.11-1.97.97,0,1.66.31,2.01.97,1.2,2.09,2.28,2.47,3.21,2.67h.04l.04.04c.27.12.39.27.62.97,0,.08,0,.12-.04.19-1.35,1.55-2.2,2.01-2.94,1.47l-.04-.04c-2.09-3.17-5.14-3.83-7.3-3.83-1.08,0-1.93.15-2.32.27-.08.04-.19-.04-.23-.12-.04-.15,0-.23.08-.27ZM61.35,49.87c2.78-2.24,4.21-5.1,5.49-8.66.04-.08.08-.12.15-.12h.04c.08,0,.12.04.15.08,2.55,3.32,2.98,5.1.7,9.08-.04.04-.08.08-.15.08-2.13.12-4.25.08-6.22-.12-.08,0-.15-.08-.15-.15-.08-.08-.08-.15,0-.19ZM66.6,28.85s-.08.08-.15.08c-1.47,0-1.86-.23-1.93-.31-.04-.04-.04-.08-.04-.12-.04-.43-.23-2.63-.35-3.52,0-.08.04-.15.12-.19.27-.12.5-.12.85-.12.08,0,.15.04.19.12.5,1.12.81,2.16,1.04,2.98v.04c.08.31.19.58.27.85.04.08.04.15,0,.19ZM82.91,28.19s-.08.08-.12.08c-1.39.19-2.43.77-3.59,1.35-.66.35-1.31.7-2.05.97-2.78,1.08-3.83.62-6.07-.54l-.31-.15s-.04-.04-.08-.04c-.27-.35-.77-1.78-1.43-3.75-.35-.97-.66-1.89-.81-2.28-.04-.08,0-.19.08-.23.77-.39,1.28-.77,1.35-1.08,0,0,0-.04.04-.04.31-.5.66-.73,1.12-.77h.08c1.43-.23,3.09-.46,5.1-3.98.04-.04.08-.08.15-.08.04,0,.08,0,.12.04,3.36,3.01,5.49,6.49,6.42,10.36.04.04,0,.12,0,.15ZM72.17,49.37s-.08-.15-.04-.19c2.01-4.44.43-6.45-3.4-11.32l-.23-.31c-1.28-1.62-1.97-2.9-2.9-5.02-.04-.08-.04-.15.04-.19.04-.04.08-.08.15-.08h.04c.19.04.39.08.58.12.66.12,1.35.23,1.74.04.08-.04.15-.04.23.04,1.35,1.24,2.9,1.74,4.52,2.24,3.01.97,6.15,1.97,8.27,8,0,.04,0,.12-.04.15-2.16,3.4-4.95,5.49-8.73,6.61-.12,0-.19,0-.23-.08ZM79.01,33.45c.54-.23,1.08-.5,1.62-.77.85-.46,1.74-.89,2.71-1.12h.04s.08,0,.12.04.08.08.08.15c.12,2.24-.04,4.1-.46,6.03,0,.08-.08.15-.19.15-.08,0-.12-.04-.15-.12-1.12-2.05-2.36-3.09-3.83-4.02-.08-.04-.08-.12-.08-.19.04-.08.08-.12.15-.15ZM57.48,9.48c5.91.35,11.67,2.36,16.16,5.68.08.04.12.15.04.23-1.43,2.63-2.28,2.86-3.17,2.86l-.15.04c-1.12.19-2.13.39-3.13,2.09-.04.08-.12.08-.19.08h0c-.08,0-.15-.04-.15-.12-2.24-4.68-4.72-6.65-8.19-9.43-.46-.35-.93-.73-1.39-1.12-.08-.04-.08-.15-.08-.23.12,0,.19-.08.27-.08v-.19.19ZM58.68,59.88l.12.39c.04.08-.04.19-.12.23l-2.9,1.12s-.12,0-.19-.04-.08-.08-.08-.15c0-3.44-.81-6.45-2.51-9.2-.04-.08-.04-.15,0-.23.04-.04.08-.08.15-.08h.04c3.75.93,8.15,1.89,12.56,1.89,4.14,0,7.73-.85,11.01-2.55.08-.04.15-.04.19,0,.08.04.08.12.08.19-.5,4.6-3.13,7.19-7.11,7.19-2.59,0-5.57-1.12-8.15-3.09-.54-.39-1.12-.62-1.66-.62-.62,0-1.12.27-1.51.77-.73,1.12-.27,2.9.08,4.17Z"/>
  <path d="M92.19,35.73c1.12-10.44-1.39-18.71-7.38-24.7-5.49-5.49-13.8-8.85-24.58-10.01-1.66-.19-3.29-.27-4.91-.27-8.85,0-16.62,2.74-23.11,8.15-6.15,5.1-10.9,12.52-13.76,21.45-1.28,4.14-1.08,8.27.54,11.13.04.08.04.15,0,.19-1.12,1.82-3.59,5.49-5.53,8.43-.15.19-.31.43-.5.66-1.16,1.55-3.05,4.17-3.25,5.76-.35,3.52,3.63,4.91,5.41,5.33.04,0,.12.04.12.12.04.04.04.12,0,.15-1,2.13-.7,2.9,2.05,4.87.08.08.12.19.04.27-1.51,2.28-.81,4.17,2.28,6.26.04.04.08.12.08.15-.19,3.59.46,6.11,2.01,7.77,1.43,1.51,3.63,2.24,6.72,2.24,1.39,0,3.01-.15,4.87-.46,1.74-.31,3.4-.58,4.91-.58,3.56,0,5.68,1.58,6.72,5.02.73,2.36,1.28,4.87,1.82,7.34.27,1.2.54,2.43.81,3.63.19.81.77,1.28,1.55,1.28h0c.54,0,1.12-.27,1.43-.66.31-.39.43-.89.27-1.43-.31-1.31-.62-2.63-.89-3.94-.5-2.4-1.04-4.87-1.78-7.23-1.62-5.06-4.79-7.34-10.24-7.34-1.47,0-3.13.15-5.29.5-1.58.27-3.29.54-4.72.54-1.74,0-2.9-.39-3.71-1.28-.97-1.04-1.39-2.74-1.24-5.26v-.43c.04-.89.04-1.66-.81-2.16-.04-.04-.12-.08-.19-.12l-.08-.04c-.77-.43-2.2-1.2-2.13-1.93.04-.31.27-.54.77-.7h4.29c1.12,0,1.62-.89,1.62-1.7s-.5-1.7-1.62-1.7h-4.1s-.08,0-.12-.04c-1.12-.73-1.7-1.16-1.82-1.74-.08-.5.19-1,.77-1.86.31-.5.31-1.16.04-1.7-.27-.5-.73-.85-1.31-.89-.39-.04-3.75-.35-4.99-1.62-.39-.39-.15-.73.12-1.12.04-.04.08-.08.08-.15.27-.43.62-.93,1-1.55.5-.77,1.04-1.62,1.66-2.59,3.67-5.26,5.8-8.5,6.3-9.62.27-.54.35-1.35-.19-1.89-1.93-2.4-1.28-6.88-.58-9.16C27.14,14.01,39.51,4.07,55.51,4.07c1.39,0,2.86.08,4.29.23,20.87,2.24,30.92,12.99,28.99,31.11-.62,6.03-2.67,12.87-6.11,20.33-6.11,13.02-.35,27.75,4.72,40.74.31.81.66,1.62.97,2.43.39.97,1.16,1.08,1.47,1.08.58,0,1.12-.31,1.47-.73.19-.31.43-.81.12-1.55-.27-.7-.54-1.35-.81-2.09l-.12-.31c-4.6-11.75-10.36-26.32-4.83-38.22,3.52-7.34,5.76-14.73,6.53-21.37Z"/>
</svg>