<?xml version="1.0" encoding="UTF-8"?>
<svg id="Calque_1" xmlns="http://www.w3.org/2000/svg" version="1.1" viewBox="0 0 100 100">
  <!-- Generator: Adobe Illustrator 30.0.0, SVG Export Plug-In . SVG Version: 2.1.1 Build 123)  -->
  <path d="M85.89,50.64c-2.15-2.02-5.24-3.69-8.69-3.92,1.27-2.07,2-4.89,2.3-8.61.03-.4-.1-.8-.36-1.1-.26-.3-.64-.49-1.04-.52-2.53-.16-4.72.03-6.6.54v-14.02c0-2.49-2.03-4.52-4.52-4.52h-9.48v-.51c0-1.93-1.57-3.49-3.49-3.49h-6.66c-.7-3.42-3.73-6-7.35-6s-6.65,2.58-7.35,6h-6.66c-1.93,0-3.49,1.57-3.49,3.49v.51h-9.48c-2.49,0-4.52,2.03-4.52,4.52v63.97c0,2.49,2.03,4.52,4.52,4.52h46.98c.06,0,.12,0,.19-.02.17.01.33.02.5.02,1.15,0,2.22-.3,3.17-.87,1.04.63,2.02.84,2.78.87h.18c1.08,0,2.16-.33,3.19-.96.98.63,2.1.96,3.31.96.84,0,1.71-.15,2.61-.46,2.29-.79,5.18-3.58,8.59-8.31,2.87-3.98,6.25-9.28,6.83-14.97.73-7.06-1.22-13.15-5.46-17.12h0ZM76.31,39.44h.04c-.8,6.53-3.06,8.77-9.05,9.03-.04-.2-.08-.4-.13-.61-.14-1.58-.03-3.93,1.41-5.7,1.45-1.8,4.05-2.72,7.73-2.72h0ZM25.5,17.98c0-.27.22-.49.49-.49h8.01c.83,0,1.5-.67,1.5-1.5,0-2.48,2.02-4.5,4.5-4.5s4.5,2.02,4.5,4.5c0,.83.67,1.5,1.5,1.5h8.01c.27,0,.49.22.49.49v6.01c0,.27-.22.49-.49.49h-28.02c-.27,0-.49-.22-.49-.49v-6.01ZM11.5,86.97V23.01c0-.84.68-1.52,1.52-1.52h9.48v2.51c0,1.93,1.57,3.49,3.49,3.49h28.01c1.93,0,3.49-1.57,3.49-3.49v-2.51h9.48c.84,0,1.52.68,1.52,1.52v14.98c0,.1.01.2.03.3-.89.55-1.67,1.21-2.31,2-.85,1.05-1.37,2.21-1.69,3.36-.56-.42-1.23-.78-2.04-1.07-.78-.27-1.64.14-1.91.92-.27.78.14,1.64.92,1.91,1.59.56,2.31,1.53,2.7,3.02.01.07.01.13.02.2-6.23-3.78-12.49-1.38-16.11,2.02-4.25,3.99-6.19,10.07-5.47,17.12.58,5.69,3.96,10.99,6.83,14.97,1.77,2.45,3.39,4.37,4.87,5.77H13.02c-.84-.02-1.52-.7-1.52-1.54h0ZM88.37,67.45c-.51,4.98-3.62,9.84-6.28,13.52-4.14,5.73-6.37,6.96-7.14,7.23-.7.24-1.6.41-2.47.18.01-.02.03-.03.04-.05.53-.63.45-1.58-.18-2.11s-1.58-.45-2.11.18c-.83.98-2.12,2.14-3.5,2.09-1.01-.03-2.02-.71-2.98-2.02-.49-.67-1.43-.81-2.1-.32-.67.49-.81,1.43-.32,2.1.04.05.08.09.12.14-.85.2-1.72.03-2.4-.2-.77-.27-3-1.5-7.14-7.23-2.65-3.68-5.77-8.53-6.28-13.52-.63-6.1.98-11.29,4.54-14.63,2.73-2.56,6.99-4.27,11.4-2.23-.68.42-1.35.91-1.98,1.5-.6.57-.63,1.52-.07,2.12.57.6,1.52.63,2.12.07,3.18-2.98,7.11-2.96,10.8.07.28.23.62.34.95.34.43,0,.86-.19,1.16-.55.53-.64.43-1.59-.21-2.11-.66-.54-1.33-1-2.01-1.39,4.45-2.12,8.76-.4,11.51,2.18,3.54,3.35,5.15,8.54,4.54,14.64h0ZM27.5,37.99c0-.83.67-1.5,1.5-1.5h29c.83,0,1.5.67,1.5,1.5s-.67,1.5-1.5,1.5h-29c-.83,0-1.5-.67-1.5-1.5ZM37.5,55.99c0,.83-.67,1.5-1.5,1.5h-7c-.83,0-1.5-.67-1.5-1.5s.67-1.5,1.5-1.5h7c.83,0,1.5.67,1.5,1.5ZM37.5,73.99c0,.83-.67,1.5-1.5,1.5h-7c-.83,0-1.5-.67-1.5-1.5s.67-1.5,1.5-1.5h7c.83,0,1.5.67,1.5,1.5ZM23.5,37.99c0,.83-.67,1.5-1.5,1.5h-2c-.83,0-1.5-.67-1.5-1.5s.67-1.5,1.5-1.5h2c.83,0,1.5.67,1.5,1.5ZM23.5,55.99c0,.83-.67,1.5-1.5,1.5h-2c-.83,0-1.5-.67-1.5-1.5s.67-1.5,1.5-1.5h2c.83,0,1.5.67,1.5,1.5ZM23.5,73.99c0,.83-.67,1.5-1.5,1.5h-2c-.83,0-1.5-.67-1.5-1.5s.67-1.5,1.5-1.5h2c.83,0,1.5.67,1.5,1.5Z"/>
</svg>