<?xml version="1.0" encoding="UTF-8"?>
<svg id="Calque_1" xmlns="http://www.w3.org/2000/svg" version="1.1" viewBox="0 0 100 100">
  <!-- Generator: Adobe Illustrator 30.0.0, SVG Export Plug-In . SVG Version: 2.1.1 Build 123)  -->
  <path d="M98.13,74.31c1.83-2.72,1.12-6.38-1.6-8.18-.83-.56-1.8-.92-2.81-.97l-19.88-1.71,4.25-4.7c.53-.59,1.27-.95,2.04-.97l13.32-.8c3.16-.15,5.61-2.81,5.46-5.97-.12-2.98-2.51-5.35-5.46-5.46h-14.21c-3.51,0-6.91,1.21-9.63,3.43l-2.57,2.07-8.65-4.31-1.62-2.42v-.09c1.82-3.9.92-8.45-2.06-11.38.32.03.65.05.98.05,5.14,0,9.27-4.16,9.27-9.3s-4.16-9.27-9.3-9.27-9.27,4.16-9.27,9.27c0,2.61,1.08,4.96,2.81,6.65-3.02-.28-6.1.95-8.04,3.55-.3.38-.56.8-.77,1.24l-12.23,23.66c-4.23.32-7.56,3.47-8.31,7.43-.25-1.97-1.1-3.89-2.59-5.43-3.66-3.78-9.69-3.9-13.47-.24-1.86,1.8-2.92,4.28-2.92,6.88s1.06,5.08,2.92,6.88h-1.6c-.74,0-1.33.59-1.33,1.33v11.05c0,.74.59,1.33,1.33,1.33h95.55c.74,0,1.33-.59,1.33-1.33v-11.05c0-.59-.38-1.09-.95-1.24ZM49.07,23.61c0-3.66,2.95-6.62,6.62-6.62s6.62,2.95,6.62,6.62-2.95,6.62-6.62,6.62-6.62-2.95-6.62-6.62ZM42.74,36.21c.83-1.65,2.36-2.84,4.16-3.25v.09h.03c1.8-.41,3.69-.03,5.2,1.06,2.27,1.71,3.34,4.58,2.75,7.33l-2.16-3.16c-.56-.5-1.39-.44-1.89.09-.35.38-.44.92-.27,1.39l5.82,8.68c.12.21.3.35.5.44l10.96,5.49c.8.47,1.12,1.45.74,2.3-.18.47-.53.83-1,1-.47.18-1.03.15-1.48-.09l-10.37-4.25-11.67-8.36c-.65-.32-1.48-.09-1.8.59-.27.53-.18,1.15.24,1.57l7.38,5.29-2.89,6.17h-15.83l11.58-22.39ZM58.9,57.56l-1.39,1.06h-7.5l2.16-4.58,2.16,1.57c.09.06.18.12.27.15l4.31,1.8ZM28.86,61.37h29.15c.3,0,.59-.09.83-.3l2.92-2.36,3.28,1.33c.59.3,1.24.44,1.92.44.56,0,1.12-.09,1.62-.32,2.27-.92,3.4-3.49,2.48-5.79-.32-.77-.83-1.45-1.51-1.95l1.68-1.36c2.27-1.83,5.08-2.84,8-2.84h14.21c1.68-.09,3.1,1.24,3.19,2.92.09,1.68-1.24,3.1-2.92,3.19h-.35l-13.47.65c-1.45.06-2.78.71-3.75,1.77l-12.85,14.38c-1.92,2.04-4.58,3.22-7.38,3.22h-27.06c-3.6,0-6.5-2.92-6.5-6.5s2.92-6.5,6.5-6.5ZM19.76,69.01c.25,1.93,1.12,3.74,2.48,5.15h-5.23c1.49-1.44,2.4-3.26,2.75-5.15ZM3.55,67.34c0-3.78,3.07-6.88,6.88-6.88s6.88,3.07,6.88,6.88-3.1,6.85-6.91,6.85-6.85-3.07-6.85-6.85ZM96.44,85.24H3.55v-8.36h92.9v8.36ZM93.22,74.22h-29.36c.5-.38.95-.8,1.36-1.24l6.32-7.06,21.92,1.86c1.71.15,2.98,1.54,2.98,3.22,0,1.77-1.45,3.22-3.22,3.22Z"/>
</svg>