<?xml version="1.0" encoding="UTF-8"?>
<svg id="Calque_1" xmlns="http://www.w3.org/2000/svg" version="1.1" viewBox="0 0 100 100">
  <!-- Generator: Adobe Illustrator 30.0.0, SVG Export Plug-In . SVG Version: 2.1.1 Build 123)  -->
  <path d="M98.82,59.83c-.46-1.63-1.94-2.74-3.6-2.71l-8.95.28-23.78-10.55c-2.49-1.14-5.35-.65-7.29,1.29l-4.58,4.55-1.85,1.81c-.12-.52-.22-1.05-.31-1.57-.86-4.89-2.21-18.21-2.21-22.85,0-.37.12-.65.37-.89l1.32-1.35c1.57-1.6,1.66-4.06.18-5.75l-9.6-11.17c-1.26-1.48-3.54-1.66-5.08-.4-1.32,1.08-1.72,2.89-1.02,4.4l3.84,8.09v43l-12.12,7.54c-1.91,1.17-3.2,2.92-4.06,4.83-.98,2.21-.98,6.8,1.11,9.54,1.97,2.58,4.89,4.34,8.31,4.34h24.92c2.46,0,4.49-2,4.49-4.49s-2-4.49-4.49-4.49h-10.55c3.54-2.09,7.44-4.43,8.24-4.98l.09-.09c2.25-1.88,4.15-5.04,2.4-10.18l6.86-9.38,13.63,4.8c.98.37,1.11.43,1.32.92l.71,1.75c.65,1.66,2.21,2.68,3.91,2.68.4,0,.83-.06,1.26-.18l14.09-4.31c1.88-.55,2.95-2.55,2.43-4.46h0ZM50.41,75.92c-.92.62-5.6,3.41-12.33,7.38h-6.92c-.8,0-1.48.65-1.48,1.48s.65,1.48,1.48,1.48h23.28c.83,0,1.54.68,1.54,1.54s-.68,1.54-1.54,1.54h-24.92c-3.23,0-6-2.09-6.89-5.2-.89-3.11.37-6.34,3.11-8.06l12.83-7.97c.43-.28.71-.74.71-1.26V22.65c0-.22-.06-.43-.15-.65l-4-8.37c-.12-.28-.03-.62.22-.83.12-.12.31-.15.46-.15.18,0,.37.06.49.22l9.63,11.13c.43.52.4,1.26-.06,1.75l-1.32,1.35c-.8.8-1.23,1.85-1.23,2.98,0,4.74,1.38,18.36,2.25,23.35.89,5.11,2.37,9.01,4.52,11.97,3.94,6.31,2.09,9.01.34,10.52h0ZM95.56,61.5l-14.09,4.31c-.65.18-1.32-.12-1.57-.77l-.71-1.75c-.71-1.78-2.03-2.25-3.08-2.61l-14.67-5.17c-.62-.22-1.29,0-1.69.52l-6.52,8.92c-.22-.37-.43-.77-.68-1.17-.03-.03-.03-.06-.06-.09-1.17-1.6-2.12-3.54-2.86-5.91l3.08-2.98,4.61-4.55c1.08-1.05,2.58-1.32,4-.68l24.08,10.7c.22.09.43.12.65.12l9.29-.28c.31,0,.58.22.68.52.06.34-.15.77-.46.86h0Z"/>
  <path d="M10.7,75.92c3.66,0,6.64,2.98,6.64,6.64s-2.98,6.64-6.64,6.64-6.64-2.98-6.64-6.64,2.98-6.64,6.64-6.64M10.7,72.85c-5.35,0-9.72,4.34-9.72,9.72s4.34,9.72,9.72,9.72,9.72-4.34,9.72-9.72-4.34-9.72-9.72-9.72h0Z"/>
</svg>