<?xml version="1.0" encoding="UTF-8"?>
<svg id="Calque_1" xmlns="http://www.w3.org/2000/svg" version="1.1" viewBox="0 0 100 100">
  <!-- Generator: Adobe Illustrator 30.1.0, SVG Export Plug-In . SVG Version: 2.1.1 Build 136)  -->
  <path d="M60.77,69.02h0c-.55.05-1.08.2-1.58.44-.51-.25-1.04-.4-1.59-.44-.91-.07-1.87.14-2.63.6-1.34.79-2.17,2.25-2.17,3.8,0,.53.09,1.04.27,1.52.09.26.22.51.41.83.03.05.06.11.15.22.03.04.23.24.42.44.11.12.22.23.3.31l2.71,2.72c.58.58,1.36.92,2.16.92s1.56-.34,2.14-.93l2.6-2.6c.75-.76.81-.84.87-.93.2-.3.37-.63.49-.97.18-.48.27-1,.27-1.52,0-1.69-.99-3.26-2.51-3.99-.71-.34-1.51-.49-2.3-.43ZM63.29,73.42c0,.24-.05.49-.14.76l-.09.26c-.03.07-.06.11-.07.13-.05.07-.39.41-.67.69l-2.6,2.6c-.16.16-.36.25-.55.26-.17,0-.37-.1-.54-.26l-2.59-2.59c-.24-.25-.62-.65-.68-.73-.07-.12-.13-.25-.18-.38-.09-.24-.14-.48-.14-.74,0-.76.41-1.47,1.07-1.86.35-.21.75-.3,1.13-.31.04,0,.09,0,.15,0,.4.03.78.18,1.1.42.41.3.95.3,1.36,0,.33-.24.71-.38,1.1-.42.39-.03.77.04,1.11.21.76.37,1.23,1.11,1.23,1.95Z"/>
  <path d="M62.45,59.46c.73-.75,1.5-1.87,1.7-3.43.36-2.77-1.2-5.83-4.63-9.08-1.98-1.88-4.61-3.85-7.79-5.84-.79-.59-2.05-1.91-2.04-2.93,0-.19.06-.39.18-.58.94.73,2.27,1.47,3.8,1.47.61,0,1.21-.12,1.78-.36,1.7-.71,2.78-2.25,3.67-3.5.48-.69.8-1.11.9-1.23.13.02.26.03.38.03,2.75,0,2.75-3.71,2.75-5.3,0-.23.18-.81.31-1.18,2.09-2.51,3.23-5.68,3.23-8.93,0-.93-.1-1.89-.28-2.78v-.1c-1.36-6.44-7.12-11.12-13.7-11.12-5.44,0-10.77,2.21-13.92,5.78-6.78,7.69-7.07,12.88-7.29,16.71-.1,1.74-.19,3.12-.95,4.23-4.54,6.62-3.25,12.82-1.58,17.5-.34,3.96-.04,23.75,1.22,26.14.45.85,2.19,2.41,3.69,3.65-3.38,6.91-3.42,15.45-3.42,15.54,0,.69.56,1.26,1.26,1.26s1.26-.57,1.26-1.26c0-.08.05-7.65,2.92-13.92,6.85,5.34,17.9,12.56,22.05,12.56h.1c1.31-.04,3.13-.66,4.98-1.68l.29,2.88c.07.64.6,1.13,1.25,1.13h.13c.33-.04.64-.2.85-.46.21-.26.31-.59.27-.92l-.43-4.14c3.07-2.28,5.35-5.19,6.42-8.24,1.69-4.82,1.41-12.5-9.35-21.89ZM61.36,26.06c-.1.12-.18.26-.24.42-.33.96-.52,1.63-.52,2.22,0,1.97-.23,2.6-.33,2.77-1.46-.26-2.4,1.09-3.24,2.29-.68.98-1.53,2.19-2.57,2.63-1.54.63-3.28-.91-3.7-1.33l-.03-.03s-.02-.02-.03-.03l-.02-.02c-.44-.4-1.1-.45-1.58-.11-1.28.9-1.93,2.01-1.94,3.3-.04,2.75,2.98,4.91,3.14,5.02,2.39,1.49,4.46,2.97,6.15,4.41-.07.03-.13.06-.2.09-.44.19-.96.41-1.52.58-.54.16-1.08.24-1.64.24-5.81,0-12.03-8.4-12.08-8.48-.08-.11-.17-.21-.29-.29l-.13-.08h0,0s-.13-.11-.13-.11h-.02s-.03-.02-.04-.02l-.09-.05c-.08-.05-.14-.09-.25-.14l-.22.45.13-.5c-.12-.07-.27-.14-.37-.19-.09-.05-.19-.09-.27-.12l-.28-.11.1-.19c.13-.26.26-.54.39-.82.03-.07.07-.14.1-.21l.09-.19c.08-.18.16-.36.23-.54.04-.09.08-.19.12-.29l.09-.21c.07-.17.14-.35.21-.53l.09-.22c.05-.11.09-.22.13-.32.04-.11.08-.21.13-.32l.08-.2c.05-.12.09-.24.14-.37l.27-.75c.05-.14.11-.28.16-.43l.2-.56c.06-.17.12-.35.19-.53l.14-.4c.73-2.16,1.34-3.7,1.87-4.72.24-.46.43-.77.61-.99.49-.63.89-.67,2.03-.79.63-.07,1.42-.16,2.37-.42.29-.08.63-.17,1.04-.26,3.33-.85,10.08-2.58,14.33-5.89-.02,2.71-1.01,5.32-2.78,7.37ZM31.13,41.95c-.08.13-.17.28-.26.45l-.06.11c-.24.46-.45.91-.62,1.32-.69-4.09.1-7.73,2.4-11.09,1.17-1.71,1.28-3.58,1.39-5.55.2-3.42.46-8.11,6.66-15.15,2.67-3.03,7.28-4.92,12.02-4.92,5.13,0,9.76,3.56,11.09,8.5-.18.19-.38.38-.6.57-3.75,3.32-10.92,5.13-13.98,5.9l-1.05.27c-.82.21-1.47.29-2.08.35-1.42.15-2.5.36-3.53,1.59l-.12.15h0c-.12.16-.25.34-.39.54l-.06.1.44.24-.52-.1c-.11.19-.23.38-.34.6l-.22.45c-.54,1.14-1.13,2.66-1.8,4.64-.19.57-.38,1.1-.56,1.6l-.61,1.63c-.12.31-.24.61-.35.88-.03.07-.06.15-.09.23l-.12.3c-.07.18-.15.36-.22.52l-.06.15c-.02.05-.04.11-.08.17l-.09.19c-.06.14-.12.27-.18.41-.02.05-.04.09-.06.13l-.06.12c-.08.16-.15.31-.23.47l-.32.61h-.04c-.1,0-.22,0-.32.02-.33.03-.66.09-.99.19l-.07.02c-.09.02-.17.05-.3.1l-.49.2c-.11.05-.22.11-.38.21-.11.05-.21.12-.32.2l.3.4-.42-.33-.26.19c-.05.04-.1.08-.12.1l-.36.3c-.06.05-.11.1-.19.19-.07.07-.15.15-.19.2-.06.06-.12.13-.17.19-.08.09-.14.16-.22.26l-.13.18c-.08.1-.15.19-.23.31l-.19.29c-.05.08-.1.16-.15.24-.04.06-.07.12-.08.14ZM69.57,80.12l-.14.4c-.65,1.84-1.78,3.59-3.36,5.18-5.91-3.58-9.89-3.32-11.57-2.92-6-6.13-12.67-13.1-13.39-14.09-.21-.97.79-7.85,2.62-16.46.15-.68-.28-1.35-.96-1.5-.33-.07-.67-.01-.95.17-.28.18-.48.46-.55.79-2.32,10.88-3.11,17.01-2.36,18.22.98,1.58,14.19,15.03,14.32,15.17.37.37.94.48,1.42.26.03-.02,3.36-1.33,9.42,2.09-2.33,1.74-4.86,2.79-6.09,2.82h-.05c-3.32,0-15.15-7.68-21.55-12.78-.1-.12-.23-.22-.37-.28-2.83-2.28-3.46-3.14-3.59-3.41-.74-1.42-1.44-20.56-.92-24.98.23-1.92.77-3.68,1.6-5.25,1.05-1.98,2.4-2.87,3.94-2.68,1.01.12,1.83.64,2.05.79,1.29,1.71,7.41,9.37,14.01,9.37.82,0,1.61-.12,2.36-.35l.22-.08c.61-.2,1.15-.41,1.67-.63l.25-.12c.1-.05.2-.1.33-.16l.27-.13c.08-.04.17-.08.25-.12,2.32,2.37,3.43,4.52,3.2,6.26-.19,1.56-1.4,2.41-1.76,2.63-.37.2-.62.57-.65.99-.03.41.12.8.43,1.08l.48.41c7.98,6.75,11.23,13.41,9.42,19.3Z"/>
</svg>