<?xml version="1.0" encoding="UTF-8"?>
<svg id="Calque_1" xmlns="http://www.w3.org/2000/svg" version="1.1" viewBox="0 0 100 100">
  <!-- Generator: Adobe Illustrator 30.1.0, SVG Export Plug-In . SVG Version: 2.1.1 Build 136)  -->
  <path d="M80.19,68.36c-.1,0-.2-.01-.29-.04l-4.22-1.05c-1.14-.29-2.38-.43-3.68-.43-2.11,0-3.67.38-3.84.42-.11.03-.21.04-.32.04h0c-.19,0-.38-.05-.55-.13-.67-.34-16.3-8.26-31.36-14.05-.53-.21-.85-.76-.76-1.32,1.31-8.28,2.78-34.72,2.84-35.85.04-.65.57-1.15,1.21-1.15.39.02.69.16.9.4.22.24.33.55.31.88-.15,2.62-1.44,25.54-2.69,34.82-.02.18.08.36.25.43,13.64,5.33,27.28,12.12,29.87,13.43.06.03.12.04.18.04.03,0,.05,0,.08,0,.69-.14,2.11-.37,3.86-.37,1.5,0,2.94.17,4.28.5l4.22,1.05c.31.08.58.27.74.55.17.28.21.6.14.92-.13.54-.62.92-1.17.92Z"/>
  <path d="M84.49,69.33c-.25,0-.49-.07-.69-.21-.55-.38-.69-1.14-.31-1.69,2.32-3.35,3.36-7.84,3.36-10.8,0-13.16-13.28-24.44-24.14-24.44-.07,0-.13,0-.2-.02-.02,0-.04,0-.06,0s-.04,0-.07,0c-.12.02-.24.04-.37.05-.65.08-1.36.12-2.11.12-1.55,0-2.74-.17-2.75-.18-.66-.1-1.12-.71-1.03-1.38.09-.59.6-1.04,1.2-1.04.06,0,.12,0,.17.01,0,0,1.06.15,2.41.15.64,0,1.25-.03,1.81-.1,2.25-.27,4.09-1.31,5.17-2.93,1.28-1.9,1.49-4.58.62-7.75-1.96-7.14-9.12-11.77-9.19-11.81-.27-.17-.46-.44-.53-.76s-.01-.64.16-.91c.22-.35.61-.56,1.02-.56.23,0,.45.07.65.19.33.21,8.01,5.14,10.22,13.22,1.34,4.88.23,7.99-.94,9.74-.37.55-.8,1.06-1.29,1.51-.11.1-.15.25-.12.39s.15.25.29.29c4.5,1.15,9.03,3.72,12.74,7.25,5.56,5.29,8.76,12.2,8.76,18.95,0,4.01-1.52,8.91-3.79,12.18-.23.33-.6.52-1,.52Z"/>
  <path d="M69.75,94.91c-.32,0-.62-.13-.85-.36-.23-.23-.35-.54-.35-.86.03-3.39,2.28-6.96,4.17-9.36.08-.1.11-.24.07-.37-.04-.13-.14-.22-.26-.26-5.28-1.66-8.97-5.4-9.97-6.51-.05-.05-.11-.09-.18-.12-2.25-.65-10.22-3.01-18.53-6.03-7.27-2.64-12.93-5.1-16.82-7.31-.06-.04-.13-.05-.2-.05-.14,0-.27.07-.35.2-.02.03-.03.06-.04.09-.05.11-7.02,15.31-.63,26.68.33.58.12,1.32-.46,1.65-.18.1-.38.16-.59.16-.44,0-.84-.24-1.06-.62-7.01-12.46.25-28.27.56-28.94.04-.09.1-.17.16-.25.07-.09.1-.2.09-.31-.02-.11-.08-.21-.17-.27-1.73-1.2-2.95-2.35-3.62-3.41-4.9-7.81-2.19-43.77-1.86-47.85.05-.63.58-1.12,1.21-1.12.42.03.71.18.92.43.21.25.31.56.29.88-.86,10.86-2.27,40.35,1.5,46.37,1.04,1.66,5.28,5.35,21.91,11.39,9.59,3.49,18.73,6.08,18.82,6.1.23.07.45.21.6.4.19.23,4.77,5.63,11.45,6.65.47.07.93.11,1.37.11,2.11,0,3.89-.81,5.31-2.42,1.48-1.68,2.14-3.76,2.25-5.04.02-.21-.13-.4-.34-.43-.98-.15-2.54-.59-5.39-1.52l-.67-.22c-.23-.03-.37-.07-.5-.13-.89-.42-.85-1.23-.7-1.6.13-.34.43-.75,1.1-.75.21,0,.45.04.7.12.2.06.47.15.8.26,2.96.97,4.62,1.43,5.24,1.46.19-.02.29-.03.4-.03.52,0,1,.25,1.32.68,1.06,1.44.21,4.84-1.19,7.16-1.9,3.14-4.87,4.87-8.36,4.87-.28,0-.57-.01-.86-.03-.01,0-.02,0-.03,0-.11,0-.22.05-.3.13-.78.88-4.68,5.43-4.71,9.16,0,.66-.55,1.2-1.21,1.2h-.01Z"/>
</svg>