<?xml version="1.0" encoding="UTF-8"?>
<svg id="Calque_1" xmlns="http://www.w3.org/2000/svg" version="1.1" viewBox="0 0 100 100">
  <!-- Generator: Adobe Illustrator 30.0.0, SVG Export Plug-In . SVG Version: 2.1.1 Build 123)  -->
  <defs>
    <style>
      .st0 {
        fill-rule: evenodd;
      }
    </style>
  </defs>
  <path class="st0" d="M62.91,90.67h0l-13.32-29.43c-3.54-7.77-1.94-16.03,4.44-21.1h0c1.67-1.32,2.5-2.5,2.91-4.23.49-1.94.56-4.65.49-9.16-.07-5.55-4.44-9.79-9.92-9.79s-9.92,4.37-9.92,9.72v61.91c0,3.05-2.5,5.41-5.48,5.41s-5.48-2.43-5.48-5.41V26.54c-.14-11.38,9.3-20.54,20.82-20.54s20.82,9.02,20.96,20.54c.07,4.51.07,8.61-.9,12.21-.97,3.75-2.98,6.94-6.59,9.85h0c-.42.35-1.32,1.18-1.8,2.5-.49,1.25-.69,3.12.49,5.83l13.32,29.43c1.25,2.78,0,5.97-2.85,7.15h0c-.69.28-1.39.42-2.15.42-2.08-.07-4.09-1.25-5-3.26h0Z"/>
</svg>