<?xml version="1.0" encoding="UTF-8"?>
<svg id="Calque_1" xmlns="http://www.w3.org/2000/svg" version="1.1" viewBox="0 0 100 100">
  <!-- Generator: Adobe Illustrator 30.0.0, SVG Export Plug-In . SVG Version: 2.1.1 Build 123)  -->
  <path d="M72.94,93.48c-.35,0-.7-.03-1.04-.09-.79-.13-1.57-.42-2.25-.83-.35-.21-.68-.46-.98-.73-.3-.27-.58-.57-.84-.9-.27-.35-.5-.71-.68-1.07-.1-.2-.19-.4-.28-.61-.05-.11-.08-.21-.12-.32-.04-.11-.07-.21-.1-.32-.59-1.83-1.11-3.65-1.71-5.81l-.41-1.47c-.41-1.47-.81-2.93-1.24-4.4-.14-.47-.24-.94-.34-1.41-.11-.53-.22-1.06-.36-1.58-.07-.25-.14-.5-.22-.74-.09-.25-.17-.49-.28-.72-.11-.23-.23-.46-.37-.67-.14-.21-.3-.41-.48-.58-.17-.17-.38-.33-.62-.5-.23-.15-.47-.28-.72-.4-.27-.12-.54-.23-.81-.32-.3-.1-.6-.19-.9-.27-.34-.09-.68-.17-1.01-.26l-1.25-.29c-.43-.1-.85-.2-1.28-.31-.47-.12-.94-.24-1.41-.36l-.33-.09-.26.25c-.9,1.34-1.77,2.54-2.64,3.65-.45.58-.92,1.15-1.4,1.72-.24.28-.48.56-.72.84-.22.25-.45.5-.69.74-.46.47-.93.9-1.39,1.27-.5.4-.97.74-1.45,1.03-.49.3-1.01.56-1.52.78-.52.22-1.05.4-1.59.54-.54.14-1.11.23-1.68.29-.4.04-.8.06-1.2.06-.2,0-.4,0-.6-.01-.31-.01-.63-.04-.94-.08l-2.11-.28c-1.87-.25-3.73-.51-5.6-.78-4.05-.58-7.72-1.12-11.2-1.66l-1.52-.24-.12-.02c-.18-.04-.36-.08-.55-.13-.36-.1-.69-.21-1-.35-.31-.13-.61-.29-.9-.48-.28-.18-.55-.38-.8-.6-.26-.23-.49-.47-.7-.73-.21-.26-.42-.55-.61-.86-.19-.31-.36-.64-.51-.99-.1-.22-.18-.44-.26-.67-.11-.32-.19-.66-.26-.99-.12-.63-.16-1.28-.11-1.92.05-.62.18-1.22.39-1.78.2-.55.48-1.08.83-1.57.17-.24.36-.47.57-.69.21-.22.43-.42.66-.61.24-.19.49-.36.76-.52.26-.15.53-.29.82-.4.59-.24,1.22-.4,1.87-.47.17-.02.34-.03.51-.04.1,0,.2,0,.3,0h.22c.14,0,.28.01.43.02.16,0,.3.02.44.03.64.05,1.25.12,1.86.22.73.11,1.45.23,2.17.36.54.1,1.08.19,1.63.28,2.43.39,5.04.81,7.63,1.3l1.53.29c.36.07.73.14,1.1.2l.25.04.22-.17c2.67-2.72,4.83-5.64,6.62-8.99l.09-.09v-.21c.01-.25.03-.51.06-.77.04-.44.11-.87.2-1.31.09-.44.19-.88.32-1.31.13-.44.27-.88.43-1.32l4.41-11.3,1.47-3.59-.77-.05-2.89.28c-.24.02-.48.07-.69.16-.22.09-.42.21-.59.37-.09.08-.18.17-.25.26-.16.19-.29.4-.42.61-.15.26-.29.52-.42.78-.1.2-.2.4-.29.59-.25.5-.49,1.02-.73,1.54l-.59,1.29c-.28.62-.57,1.25-.86,1.87-.24.5-.48,1.01-.73,1.5-.13.25-.25.5-.39.75l-.2.36-.17.3c-.21.36-.46.7-.72,1-.25.3-.53.58-.84.83-.58.49-1.23.87-1.93,1.13-.68.26-1.4.4-2.14.41h0c-.4,0-.75-.03-1.09-.08-.36-.06-.73-.15-1.09-.27-.36-.12-.72-.28-1.05-.47-.17-.1-.34-.2-.51-.31-.14-.1-.28-.19-.41-.3-.48-.38-.91-.83-1.28-1.35-.37-.52-.67-1.07-.9-1.66-.23-.6-.38-1.22-.45-1.83-.03-.31-.04-.63-.03-.94.01-.32.05-.63.1-.93.03-.16.07-.31.11-.46.04-.15.09-.3.14-.45l.09-.23c.03-.06.06-.14.09-.21.09-.2.58-1.21.58-1.21.84-1.73,1.75-3.54,2.8-5.51.97-1.82,1.96-3.63,2.96-5.44.25-.46.84-1.52.88-1.59l.14-.23c.13-.21.28-.42.45-.63.32-.39.68-.75,1.05-1.04.38-.29.8-.55,1.24-.77.44-.21.92-.39,1.42-.53.26-.08.52-.13.77-.19.26-.05.52-.09.78-.13l3.56-.35,1.54-.14s10.64-.92,10.92-.95c.38-.04.76-.08,1.14-.12.51-.06,2.3-.25,2.3-.25l-.28-.69-.06-.1c-.43-.74-.75-1.53-.97-2.36-.21-.82-.32-1.66-.32-2.5,0-.85.12-1.68.33-2.49.22-.82.55-1.61.99-2.36.33-.56.71-1.09,1.15-1.58.43-.48.9-.91,1.4-1.28.99-.74,2.14-1.3,3.33-1.62.82-.22,1.67-.33,2.52-.33.39,0,.78.02,1.17.07.61.07,1.23.21,1.85.41.62.21,1.22.47,1.78.79.57.33,1.1.71,1.59,1.13.47.42.91.88,1.29,1.39.75.98,1.32,2.12,1.65,3.31.33,1.19.43,2.46.3,3.69-.07.63-.2,1.25-.4,1.85-.2.63-.47,1.23-.78,1.79-.39.7-.87,1.35-1.42,1.93-.54.57-1.15,1.08-1.82,1.51-.66.42-1.38.77-2.13,1.02-.76.25-1.55.42-2.35.48l-.83.07.31.71,5.48,8.53.5-.48.06-.08c.29-.36.58-.73.86-1.1l.33-.43c.39-.5.74-.96,1.12-1.4.18-.22.37-.44.56-.65l.57-.61c.37-.4.76-.79,1.16-1.17.43-.41.83-.74,1.22-1.02.29-.21.58-.4.89-.56.46-.24.94-.43,1.43-.55.47-.12.96-.18,1.45-.19h0c.52,0,.97.05,1.42.16.47.11.93.27,1.37.49.45.23.87.5,1.26.82.4.33.75.69,1.06,1.08.31.4.58.82.79,1.26.21.44.37.9.47,1.38.1.46.15.95.14,1.42-.01.48-.08.97-.22,1.46-.03.11-.07.24-.11.36-.03.1-.06.19-.1.27-.05.14-.1.26-.16.39-.11.26-.23.52-.36.77-.13.26-.27.5-.41.74-.15.25-.3.48-.46.72-.16.23-.33.46-.51.68-.09.11-.39.47-.39.47l-.39.44c-.44.5-.89,1-1.34,1.5-.91,1-1.83,1.99-2.77,2.97-.93.98-1.89,1.95-2.85,2.9l-.24.23-.25.23-.23.2-.24.19c-.3.24-.62.47-.96.68-.34.21-.67.39-.98.53-.32.15-.66.28-1,.39-.35.11-.69.19-1.03.25-.35.06-.71.1-1.06.11-.1,0-.19,0-.29,0-.62,0-1.25-.07-1.87-.21-.73-.16-1.47-.42-2.21-.78-.18-.09-.37-.18-.55-.28-.16-.09-.3-.17-.45-.26-.23-.14-.46-.28-.69-.43-.48-.31-.95-.63-1.42-.95l-.46-.31c-.4-.27-.79-.54-1.19-.8l-.52-.35-.31.53-3.73,8.95.39.28c.35.16.6.28.85.41l1.11.52.15.06s.08.04.15.06c.06.03.13.05.22.08l3.09,1.11,2.79.99.31.11.41.16c.29.12.57.25.84.4.27.15.53.3.79.48.24.17.48.35.7.54.22.19.43.4.63.62.39.43.73.92,1,1.45.07.13.13.27.19.41.06.13.11.27.17.41l.15.45.38,1.29c.95,3.18,2.06,6.94,3.12,10.74.5,1.8,1,3.61,1.48,5.41.24.9.48,1.79.71,2.69l.45,1.76.03.15c.08.4.12.82.11,1.23-.01.42-.07.83-.17,1.22-.1.4-.24.8-.42,1.18-.17.36-.39.73-.64,1.09-.51.7-1.13,1.3-1.85,1.79-.36.24-.75.46-1.14.63-.44.19-.9.34-1.36.43-.41.09-.82.13-1.24.14h-.17ZM54.1,32.72c.06,0,.12,0,.18,0,.06,0,.12.01.18.03.1.02.2.05.28.08.11.04.19.08.25.12.09.06.16.11.22.18.07.07.13.14.18.22.06.09.11.19.16.29.04.11.08.22.11.34l.02.13s0,.09,0,.13c0,.08-.01.17-.04.24-.05.18-.15.36-.28.52-.15.18-.34.33-.56.46-.12.07-.25.13-.38.18-.14.05-.28.09-.42.12-.17.04-.33.06-.49.08-.17.02-.34.04-.51.05l-.48.03c-.21.01-.42.03-.63.05l-.28.03-.17.25c-.65,1.63-1.26,3.17-1.88,4.71-.98,2.45-1.97,4.91-2.92,7.37l-.57,1.49c-.19.5-.73,1.92-.81,2.13-.08.22-.16.43-.23.65-.05.13-.09.27-.14.41-.04.14-.09.28-.13.42-.16.55-.28,1.09-.35,1.61-.08.51-.12,1.03-.12,1.54s.04.98.12,1.45c.08.48.2.94.35,1.37.15.43.35.86.59,1.26.25.41.52.8.81,1.14.29.34.64.68,1.03,1.01.38.31.79.61,1.24.88.46.28.94.53,1.44.75.5.22,1.03.42,1.63.61l.76.24c1.35.42,2.7.84,4.06,1.23,1.69.49,3.21.88,4.64,1.2.28.06.55.13.82.23.24.08.47.18.7.3.21.11.4.23.59.37.17.13.33.27.48.43.16.16.29.34.42.52.13.19.24.4.35.61.11.23.21.47.29.71.09.27.17.55.24.83.48,1.97,1.05,4.04,1.82,6.72.36,1.25.73,2.5,1.11,3.76.32,1.09.65,2.18.96,3.28.12.4.23.79.36,1.19.13.4.28.81.45,1.19l.1.22c.08.17.12.26.17.35.1.18.2.35.31.51.22.32.46.59.73.81.27.23.58.4.9.51.31.12.65.18,1.01.19h.04c.21,0,.35,0,.49-.02.09,0,.18-.02.27-.03.11-.02.21-.04.3-.06.38-.09.74-.23,1.05-.41.34-.2.62-.43.86-.7.24-.28.44-.6.59-.95.15-.37.25-.75.29-1.16,0-.11.02-.21.02-.31,0-.11,0-.21,0-.32,0-.23-.02-.44-.04-.66-.04-.4-.11-.82-.21-1.28-.04-.2-.1-.41-.15-.61-.05-.19-.1-.37-.15-.55l-.5-1.83-2.05-7.3c-.59-2.13-1.29-4.66-1.95-7.28-.1-.38-.22-.76-.35-1.13-.12-.34-.27-.69-.45-1.04-.18-.35-.36-.66-.56-.94-.2-.29-.42-.57-.67-.83-.24-.25-.5-.5-.78-.72-.28-.22-.58-.43-.89-.61-.32-.19-.66-.36-1-.51-.37-.16-.74-.29-1.11-.41-1.45-.45-2.99-.96-5-1.66-1.01-.35-2.03-.71-3.04-1.08l-2.32-.82c-.38-.13-.76-.26-1.14-.4-.27-.1-.55-.2-.82-.31-.08-.04-.19-.09-.28-.16-.08-.06-.16-.12-.23-.2-.06-.06-.11-.14-.16-.22-.04-.07-.08-.15-.11-.24-.06-.15-.08-.33-.08-.51,0-.18.04-.37.1-.53.07-.18.16-.34.27-.48.12-.14.25-.26.4-.34.08-.04.16-.08.25-.11.08-.03.17-.05.27-.06.05,0,.1,0,.15,0,.05,0,.1,0,.14,0,.11.01.23.03.34.07.26.08.52.18.79.27l.29.1c.2.07.4.14.6.21l.41.14.27-.36.98-2.15c.09-.22.19-.44.28-.66.83-1.98,5.09-12.12,5.09-12.12.12-.29.24-.58.37-.87.08-.17.16-.34.25-.51l.12-.2s.06-.09.1-.14c.07-.09.14-.16.21-.22.08-.06.16-.11.23-.14.08-.04.17-.07.27-.09.09-.02.19-.03.29-.03s.22,0,.33.03c.07.01.13.03.2.04.07.02.13.04.2.06.1.04.2.09.29.15.09.06.16.12.22.18.06.06.11.13.16.22.04.07.07.15.09.24.02.09.04.19.04.3,0,.09,0,.19-.02.28-.54,1.31-1.76,4.27-1.76,4.27l.29.29c.5.39.96.75,1.43,1.09.42.31.85.6,1.28.89.39.25.78.5,1.19.72.36.2.73.39,1.11.56.34.15.69.29,1.05.4.33.11.67.19.99.24.31.05.63.08.95.08h.19c.31-.02.62-.06.91-.12.29-.06.58-.16.87-.28.29-.12.57-.26.84-.42.28-.16.55-.35.81-.55.28-.21.54-.44.79-.68.07-.06.14-.13.21-.2l1.11-1.12c1.23-1.27,2.53-2.65,4.09-4.35l1.5-1.66.22-.25c.2-.24.39-.49.57-.74.18-.26.34-.52.49-.8.15-.27.28-.55.39-.84.1-.25.18-.52.22-.8.04-.3.04-.57,0-.82-.02-.23-.08-.48-.17-.73-.08-.23-.2-.47-.35-.7-.15-.22-.32-.43-.51-.62-.1-.1-.2-.19-.3-.27-.12-.09-.22-.17-.34-.25-.22-.15-.44-.27-.66-.37-.23-.1-.46-.18-.7-.23-.21-.04-.41-.06-.62-.06h-.11c-.22,0-.47.04-.72.11-.23.07-.46.16-.7.29-.13.07-.24.14-.34.21l-.17.12-.19.15c-.23.18-.45.39-.67.6-.21.21-.42.44-.62.66l-.29.33-.68.81c-.45.54-.89,1.08-1.34,1.62l-.36.44c-.51.62-1.01,1.23-1.52,1.84-.22.26-.77.9-.77.9l-.11.12c-.12.13-.25.27-.39.39-.11.1-.23.2-.35.29-.09.07-.2.14-.3.19-.08.04-.17.08-.26.1-.06.02-.13.03-.21.03-.06,0-.12,0-.18-.02-.07-.02-.14-.04-.21-.09-.09-.05-.18-.11-.26-.18-.04-.04-.09-.08-.14-.12-.05-.04-.08-.07-.11-.11-.09-.09-.14-.15-.2-.21l-.18-.21c-.12-.15-.23-.31-.35-.48-.12-.18-.24-.36-.36-.54l-1.18-1.78c-1.13-1.71-2.19-3.39-3.17-4.99-.21-.34-.42-.67-.65-.99-.23-.32-.48-.63-.74-.93-.25-.28-.5-.55-.77-.8-.27-.25-.56-.5-.85-.72-.58-.44-1.2-.82-1.85-1.12-.3-.14-.63-.27-1.02-.4-.35-.12-.7-.21-1.06-.29-.38-.08-.76-.14-1.14-.18-.38-.04-.76-.07-1.15-.07h-.18c-.16,0-.33,0-.49,0-.22,0-.44.02-.66.04-.46.03-2.79.2-2.79.2-2.06.16-4.12.33-6.18.51,0,0-4.26.36-6.17.52-.44.04-.86.11-1.25.23-.39.11-.77.26-1.11.45-.36.19-.69.41-.98.66-.3.25-.58.53-.83.84-.25.3-.48.64-.69.99-.05.08-.1.17-.15.27-.07.13-.33.61-.33.61l-.84,1.58c-1.11,2.1-2.22,4.21-3.3,6.33-.31.61-.63,1.22-.93,1.83-.31.65-.57,1.23-.79,1.79-.06.15-.12.31-.17.46-.03.1-.07.2-.1.31-.05.18-.08.38-.1.58-.03.38,0,.77.09,1.14.08.35.23.7.43,1.03.2.32.44.61.72.86.29.26.61.46.95.62.33.15.67.25,1.03.3.14.02.29.03.44.03.2,0,.4-.02.59-.05.35-.07.68-.18.99-.35.3-.16.6-.38.87-.65.13-.13.26-.28.38-.43.12-.16.23-.32.33-.48.2-.32.38-.65.55-.99l.99-2.09c.96-2.03,1.96-4.13,2.9-6.21.07-.16.15-.31.24-.46.09-.15.18-.29.29-.43.09-.13.2-.24.3-.35s.22-.21.34-.3c.12-.1.25-.18.38-.25.06-.03.13-.07.19-.1l.22-.09.26-.09.15-.04c.14-.04.22-.05.3-.07l.24-.04,2.64-.3c.87-.1,1.75-.19,2.62-.28.87-.09,1.75-.18,2.62-.27.8-.08,2.83-.28,2.83-.28.06,0,.12,0,.18,0h.03ZM17.53,65.75c-1.81,0-3.17,1.02-3.65,2.72-.56,2.03.5,4.08,2.53,4.87.43.17.92.29,1.46.38l3.85.58c5.25.79,10.49,1.58,15.74,2.34.39.06.78.09,1.16.09,1.53,0,2.87-.46,3.99-1.37,2.15-1.76,4.15-4.02,6.13-6.92l.66-.99-.54-.24c-.25-.11-.5-.22-.75-.35-.4-.2-.79-.41-1.17-.64-.37-.23-.73-.47-1.08-.73-.36-.27-.69-.55-.99-.83-.34-.32-.64-.62-.89-.93-.55-.65-1.01-1.33-1.38-2.04l-.42-.82-.46.81c-1.37,2.42-3.05,4.5-5.16,6.33-.46.37-.9.54-1.45.54-.07,0-.14,0-.22,0-.73-.05-1.47-.15-2.21-.29-3.71-.75-7.51-1.34-11.19-1.91-1.04-.16-2.09-.33-3.13-.49-.28-.04-.55-.07-.82-.07ZM67.09,9.39c-.29,0-.57.02-.86.05-.87.11-1.73.39-2.49.82-.79.44-1.5,1.05-2.06,1.77-.56.72-.98,1.56-1.21,2.43-.22.85-.29,1.76-.18,2.62.11.87.39,1.73.82,2.49.44.79,1.05,1.5,1.77,2.06.72.56,1.56.98,2.43,1.21.57.15,1.17.23,1.76.23.29,0,.57-.02.86-.05.87-.11,1.73-.39,2.49-.82.79-.44,1.5-1.05,2.06-1.77.56-.72.98-1.56,1.21-2.43.22-.84.29-1.75.18-2.62-.11-.87-.39-1.73-.82-2.49-.44-.79-1.05-1.5-1.77-2.06-.72-.56-1.56-.98-2.43-1.21-.57-.15-1.17-.23-1.76-.23Z"/>
</svg>