<svg fill="currentColor" viewBox="0 0 100 100">
  <path d="M66.66,46.32c.33,5.09-4,8.07-8.16,9.54,2.99,3.79,9.77,10.43,9.77,10.43l9.23-9.14-10.85-10.83Z"/>
  <path d="M36.17,27.89c-1.71,1.82-1.38,4.42.3,6.09l10.54,10.53c5.19-1.51,7.93-4.27,13.86-3.98l-15.32-15.37c-1.76-1.76-4.32-2.23-6.27-.39-1.03.97-2.13,2.07-3.11,3.12Z"/>
  <rect x="12" y="55.51" width="9.82" height="25.42" rx="1.9" ry="1.9" transform="translate(-43.3 31.97) rotate(-45.03)"/>
  <path d="M56.31,55.14c2.92-.54,5.67-1.85,7.58-4.08,1.24-1.45,1.95-3.3,1.36-5.14-.97-3.06-4.07-4.65-7.21-4.1-5.49.98-8.3,3.89-12.47,4.1-5.26.26-4.87-3.32-6.87-2.36-1.9.91,1.02,4.58,5.75,4.89,5.19.34,8.32-2.82,13.58-4.04,1.92-.44,4.01.26,4.7,2.13.43,1.18-.25,2.4-1.1,3.23-4.17,4.1-7.89,1.7-13.87,6.26-2.27,1.73-4.27,3.45-6.27,5.35-2.62,2.48-5.56,4.34-9.05,5.39l-3.09.93c-.92.28-1.22,1.42-.56,2.11.32.34.81.47,1.26.35,10.42-2.78,11.08-5.58,18.76-11.75,2.23-1.79,4.69-2.76,7.48-3.28Z"/>
  <path d="M6.61,50.89c4.56-3.12,6.92-8.25,5.99-13.79l-.91-5.41c-.87-5.15.91-11.02,6.5-12.72,5.9-1.8,11.21,1.01,15.34,4.88l.11,2.01c0,1.2-.64,2.59.49,3.41.33-.75.74-1.63,1.22-2.1l3.34-3.33c.44-.44,1.38-.84,2.02-1.17-.86-1.08-2.21-.44-3.26-.45l-2.09-.3c-1.94-1.54-3.85-3.07-6.07-4.21-7.31-3.75-16.87-1.78-19.51,6.35-.87,2.68-1.08,5.37-.61,8.18l.9,5.37c.76,4.54-1.21,8.63-4.95,11.19-.53.36-.71,1.09-.4,1.65.02.03.03.05.05.08.37.64,1.23.78,1.84.36Z"/>
  <path d="M15.81,54.94c-.52.5-.52,1.32,0,1.82,0,0,.01.01.02.02.49.48,1.27.48,1.77,0l17.69-16.98c.99-.95,2.17-1.39,3.46-2.04l-1.93-1.94c-1.49.72-2.64,1.49-3.81,2.6l-17.18,16.51Z"/>
  <path d="M57.43,58.26l-1.23-1.86c-1.06.22-2.15.52-3.14.87l.03,6.56c-.93.31-1.78.14-2.47-.41-.51-.41-.78-1.32-.85-2.12l-.16-1.95-2.38,1.96c-.15,3.11,2.47,5.6,5.65,5.23,1.67-.19,2.75-1.53,2.77-3.04l.04-3.19c1.84,1.56,4.13,2.05,6.32.75l-1.88-1.9c-1.04.17-2.14-.05-2.71-.91Z"/>
  <path d="M74.32,76.23c6.67-1.25,11.85-6.34,13.21-12.98.14-.68-.3-1.34-.97-1.48-.68-.14-1.34.3-1.48.97-1.15,5.63-5.56,9.96-11.22,11.02-.68.13-1.12.78-1,1.46.11.6.64,1.02,1.23,1.02.08,0,.15,0,.23-.02Z"/>
  <path d="M92.06,64.48c.15-.67-.28-1.34-.95-1.49-.67-.15-1.34.28-1.49.95-1.59,7.24-7.3,12.89-14.56,14.39-.68.14-1.11.8-.97,1.48.12.59.64,1,1.22,1,.08,0,.17,0,.25-.03,8.22-1.69,14.69-8.09,16.5-16.3Z"/>
  <path d="M95.71,64.22c-.68-.16-1.34.27-1.5.94-2.02,8.86-9.06,15.83-17.94,17.76-.67.15-1.1.81-.96,1.49.13.58.65.98,1.22.98.09,0,.18,0,.27-.03,9.82-2.14,17.61-9.85,19.84-19.65.15-.67-.27-1.34-.94-1.5Z"/>
  <path d="M77.94,69.87l3.14-3.12c.63-.63.8-1.59.41-2.39l-2.94-6.08-9.23,9.14,6.28,2.87c.79.36,1.72.2,2.34-.42Z"/>
</svg>