<?xml version="1.0" encoding="UTF-8"?>
<svg id="Calque_1" xmlns="http://www.w3.org/2000/svg" version="1.1" viewBox="0 0 100 100">
  <!-- Generator: Adobe Illustrator 30.1.0, SVG Export Plug-In . SVG Version: 2.1.1 Build 136)  -->
  <path d="M53.05,83.2c-2.72,0-4.93-2.21-4.93-4.93v-1.55c0-.33-.27-.6-.6-.6h-21.63c-.33,0-.6.27-.6.6v1.55c0,2.72-2.21,4.93-4.93,4.93s-4.93-2.21-4.93-4.93v-1.72c0-.29-.21-.54-.5-.59-4.68-.83-8.08-4.89-8.08-9.64V26.61c0-5.41,4.4-9.8,9.8-9.8h40.13c5.4,0,9.8,4.4,9.8,9.8v37.89c0,.33.27.6.6.6h7.08c3.44,0,6.39-2.35,7.17-5.71.07-.31-.11-.62-.41-.71-2.54-.79-4.19-3.26-4.19-6.3v-4.48c0-.16-.06-.31-.17-.42-.11-.11-.23-.23-.34-.33-.92-.89-2.19-2.11-1.89-3.62l.83-4.2c.39-1.97,2.27-3.51,4.28-3.52h6.62c2.01,0,3.89,1.55,4.28,3.52l.83,4.2c.3,1.51-.97,2.73-1.9,3.63-.1.1-.23.22-.34.33-.11.11-.17.26-.17.42v4.48c0,3.18-1.76,5.68-4.47,6.37-.23.06-.41.25-.44.49-.74,4.73-4.89,8.29-9.67,8.29h-7.25c-.29,0-.54.21-.59.5-.71,4.03-3.9,7.21-7.92,7.93-.29.05-.5.3-.5.59v1.72c0,2.72-2.21,4.93-4.93,4.93ZM51.16,76.12c-.33,0-.6.27-.6.6v1.55c0,1.38,1.12,2.5,2.5,2.5s2.5-1.12,2.5-2.5v-1.55c0-.16-.06-.31-.17-.42s-.27-.18-.42-.18h-3.79ZM18.46,76.12c-.33,0-.6.27-.6.6v1.55c0,1.38,1.12,2.5,2.5,2.5s2.5-1.12,2.5-2.5v-1.55c0-.16-.06-.31-.17-.42-.11-.11-.27-.18-.42-.18h-3.79ZM9.88,53.45c-.08,0-.17.02-.25.05-.21.1-.35.31-.35.54v12.27c0,4.06,3.3,7.37,7.36,7.37h40.13c4.06,0,7.36-3.3,7.36-7.37v-12.27c0-.23-.14-.45-.35-.54-.08-.04-.17-.05-.25-.05-.14,0-.28.05-.39.14-1.78,1.53-4.04,2.37-6.37,2.37H16.64c-2.33,0-4.59-.84-6.37-2.37-.11-.1-.25-.14-.39-.14ZM16.64,19.24c-4.06,0-7.36,3.3-7.36,7.37v19.55c0,4.06,3.3,7.36,7.36,7.36h40.13c4.06,0,7.36-3.3,7.36-7.36v-19.55c0-4.06-3.3-7.37-7.36-7.37H16.64ZM79.85,48.59c-.33,0-.6.27-.6.6v3.19c0,1.99,1.12,4.13,3.57,4.13s3.57-2.14,3.57-4.13v-3.19c0-.33-.27-.6-.6-.6h-5.94ZM79.51,38.24c-.84,0-1.72.72-1.89,1.55l-.78,3.98c-.03.15,0,.3.08.43.14.23.56.66,1.32,1.43.15.15.27.28.32.33.11.12.27.2.44.2h7.64c.17,0,.33-.07.44-.19.04-.05.15-.16.29-.29.78-.79,1.21-1.23,1.35-1.47.08-.13.11-.28.08-.43l-.78-3.98c-.16-.83-1.04-1.55-1.89-1.55h-6.62ZM55.01,68.37c-.49,0-.95-.19-1.3-.54-.33-.34-.53-.8-.53-1.29s.19-.95.53-1.29c.32-.32.8-.5,1.3-.5s.96.18,1.28.5c.34.34.54.81.54,1.29s-.2.94-.54,1.28c-.34.34-.81.54-1.29.54ZM45.95,68.37c-.47,0-.94-.2-1.28-.54-.34-.34-.54-.81-.54-1.29s.2-.94.54-1.28c.32-.32.79-.5,1.29-.5s.97.18,1.29.5c.34.33.53.8.53,1.29s-.19.95-.53,1.28c-.35.35-.81.54-1.3.54ZM18.39,67.77c-.67,0-1.22-.55-1.22-1.22s.55-1.22,1.22-1.22h9.06c.67,0,1.22.55,1.22,1.22s-.55,1.22-1.22,1.22h-9.06ZM77.72,31.67c-.33,0-.63-.13-.86-.36s-.36-.54-.36-.86.13-.63.36-.86c1.59-1.59,3.71-2.47,5.97-2.47s4.37.88,5.96,2.47c.48.47.48,1.25,0,1.72-.23.23-.54.36-.86.36s-.63-.13-.86-.36c-1.13-1.13-2.64-1.75-4.24-1.75s-3.11.62-4.24,1.75c-.23.23-.54.36-.86.36ZM73.7,25.38c-.33,0-.63-.13-.86-.36-.23-.23-.36-.54-.36-.86s.13-.63.36-.86c2.67-2.67,6.21-4.13,9.98-4.13s7.32,1.47,9.98,4.13c.48.48.48,1.25,0,1.72-.23.23-.54.36-.86.36s-.63-.13-.86-.36c-2.21-2.21-5.14-3.42-8.26-3.42s-6.05,1.21-8.26,3.42c-.23.23-.54.36-.86.36Z"/>
</svg>