<svg xmlns="http://www.w3.org/2000/svg" style="display:none">

    <!-- Osteo -->
    <symbol id="osteo" viewBox="0 0 100 100">
        <path fill="currentColor" d="M98.13,74.31c1.83-2.72,1.12-6.38-1.6-8.18-.83-.56-1.8-.92-2.81-.97l-19.88-1.71,4.25-4.7c.53-.59,1.27-.95,2.04-.97l13.32-.8c3.16-.15,5.61-2.81,5.46-5.97-.12-2.98-2.51-5.35-5.46-5.46h-14.21c-3.51,0-6.91,1.21-9.63,3.43l-2.57,2.07-8.65-4.31-1.62-2.42v-.09c1.82-3.9.92-8.45-2.06-11.38.32.03.65.05.98.05,5.14,0,9.27-4.16,9.27-9.3s-4.16-9.27-9.3-9.27-9.27,4.16-9.27,9.27c0,2.61,1.08,4.96,2.81,6.65-3.02-.28-6.1.95-8.04,3.55-.3.38-.56.8-.77,1.24l-12.23,23.66c-4.23.32-7.56,3.47-8.31,7.43-.25-1.97-1.1-3.89-2.59-5.43-3.66-3.78-9.69-3.9-13.47-.24-1.86,1.8-2.92,4.28-2.92,6.88s1.06,5.08,2.92,6.88h-1.6c-.74,0-1.33.59-1.33,1.33v11.05c0,.74.59,1.33,1.33,1.33h95.55c.74,0,1.33-.59,1.33-1.33v-11.05c0-.59-.38-1.09-.95-1.24ZM49.07,23.61c0-3.66,2.95-6.62,6.62-6.62s6.62,2.95,6.62,6.62-2.95,6.62-6.62,6.62-6.62-2.95-6.62-6.62ZM42.74,36.21c.83-1.65,2.36-2.84,4.16-3.25v.09h.03c1.8-.41,3.69-.03,5.2,1.06,2.27,1.71,3.34,4.58,2.75,7.33l-2.16-3.16c-.56-.5-1.39-.44-1.89.09-.35.38-.44.92-.27,1.39l5.82,8.68c.12.21.3.35.5.44l10.96,5.49c.8.47,1.12,1.45.74,2.3-.18.47-.53.83-1,1-.47.18-1.03.15-1.48-.09l-10.37-4.25-11.67-8.36c-.65-.32-1.48-.09-1.8.59-.27.53-.18,1.15.24,1.57l7.38,5.29-2.89,6.17h-15.83l11.58-22.39ZM58.9,57.56l-1.39,1.06h-7.5l2.16-4.58,2.16,1.57c.09.06.18.12.27.15l4.31,1.8ZM28.86,61.37h29.15c.3,0,.59-.09.83-.3l2.92-2.36,3.28,1.33c.59.3,1.24.44,1.92.44.56,0,1.12-.09,1.62-.32,2.27-.92,3.4-3.49,2.48-5.79-.32-.77-.83-1.45-1.51-1.95l1.68-1.36c2.27-1.83,5.08-2.84,8-2.84h14.21c1.68-.09,3.1,1.24,3.19,2.92.09,1.68-1.24,3.1-2.92,3.19h-.35l-13.47.65c-1.45.06-2.78.71-3.75,1.77l-12.85,14.38c-1.92,2.04-4.58,3.22-7.38,3.22h-27.06c-3.6,0-6.5-2.92-6.5-6.5s2.92-6.5,6.5-6.5ZM19.76,69.01c.25,1.93,1.12,3.74,2.48,5.15h-5.23c1.49-1.44,2.4-3.26,2.75-5.15ZM3.55,67.34c0-3.78,3.07-6.88,6.88-6.88s6.88,3.07,6.88,6.88-3.1,6.85-6.91,6.85-6.85-3.07-6.85-6.85ZM96.44,85.24H3.55v-8.36h92.9v8.36ZM93.22,74.22h-29.36c.5-.38.95-.8,1.36-1.24l6.32-7.06,21.92,1.86c1.71.15,2.98,1.54,2.98,3.22,0,1.77-1.45,3.22-3.22,3.22Z"/>
    </symbol>

    <!-- shockwave -->
    <symbol id="shockwave" viewBox="0 0 100 100">
        <path fill="currentColor" d="M53.05,83.2c-2.72,0-4.93-2.21-4.93-4.93v-1.55c0-.33-.27-.6-.6-.6h-21.63c-.33,0-.6.27-.6.6v1.55c0,2.72-2.21,4.93-4.93,4.93s-4.93-2.21-4.93-4.93v-1.72c0-.29-.21-.54-.5-.59-4.68-.83-8.08-4.89-8.08-9.64V26.61c0-5.41,4.4-9.8,9.8-9.8h40.13c5.4,0,9.8,4.4,9.8,9.8v37.89c0,.33.27.6.6.6h7.08c3.44,0,6.39-2.35,7.17-5.71.07-.31-.11-.62-.41-.71-2.54-.79-4.19-3.26-4.19-6.3v-4.48c0-.16-.06-.31-.17-.42-.11-.11-.23-.23-.34-.33-.92-.89-2.19-2.11-1.89-3.62l.83-4.2c.39-1.97,2.27-3.51,4.28-3.52h6.62c2.01,0,3.89,1.55,4.28,3.52l.83,4.2c.3,1.51-.97,2.73-1.9,3.63-.1.1-.23.22-.34.33-.11.11-.17.26-.17.42v4.48c0,3.18-1.76,5.68-4.47,6.37-.23.06-.41.25-.44.49-.74,4.73-4.89,8.29-9.67,8.29h-7.25c-.29,0-.54.21-.59.5-.71,4.03-3.9,7.21-7.92,7.93-.29.05-.5.3-.5.59v1.72c0,2.72-2.21,4.93-4.93,4.93ZM51.16,76.12c-.33,0-.6.27-.6.6v1.55c0,1.38,1.12,2.5,2.5,2.5s2.5-1.12,2.5-2.5v-1.55c0-.16-.06-.31-.17-.42s-.27-.18-.42-.18h-3.79ZM18.46,76.12c-.33,0-.6.27-.6.6v1.55c0,1.38,1.12,2.5,2.5,2.5s2.5-1.12,2.5-2.5v-1.55c0-.16-.06-.31-.17-.42-.11-.11-.27-.18-.42-.18h-3.79ZM9.88,53.45c-.08,0-.17.02-.25.05-.21.1-.35.31-.35.54v12.27c0,4.06,3.3,7.37,7.36,7.37h40.13c4.06,0,7.36-3.3,7.36-7.37v-12.27c0-.23-.14-.45-.35-.54-.08-.04-.17-.05-.25-.05-.14,0-.28.05-.39.14-1.78,1.53-4.04,2.37-6.37,2.37H16.64c-2.33,0-4.59-.84-6.37-2.37-.11-.1-.25-.14-.39-.14ZM16.64,19.24c-4.06,0-7.36,3.3-7.36,7.37v19.55c0,4.06,3.3,7.36,7.36,7.36h40.13c4.06,0,7.36-3.3,7.36-7.36v-19.55c0-4.06-3.3-7.37-7.36-7.37H16.64ZM79.85,48.59c-.33,0-.6.27-.6.6v3.19c0,1.99,1.12,4.13,3.57,4.13s3.57-2.14,3.57-4.13v-3.19c0-.33-.27-.6-.6-.6h-5.94ZM79.51,38.24c-.84,0-1.72.72-1.89,1.55l-.78,3.98c-.03.15,0,.3.08.43.14.23.56.66,1.32,1.43.15.15.27.28.32.33.11.12.27.2.44.2h7.64c.17,0,.33-.07.44-.19.04-.05.15-.16.29-.29.78-.79,1.21-1.23,1.35-1.47.08-.13.11-.28.08-.43l-.78-3.98c-.16-.83-1.04-1.55-1.89-1.55h-6.62ZM55.01,68.37c-.49,0-.95-.19-1.3-.54-.33-.34-.53-.8-.53-1.29s.19-.95.53-1.29c.32-.32.8-.5,1.3-.5s.96.18,1.28.5c.34.34.54.81.54,1.29s-.2.94-.54,1.28c-.34.34-.81.54-1.29.54ZM45.95,68.37c-.47,0-.94-.2-1.28-.54-.34-.34-.54-.81-.54-1.29s.2-.94.54-1.28c.32-.32.79-.5,1.29-.5s.97.18,1.29.5c.34.33.53.8.53,1.29s-.19.95-.53,1.28c-.35.35-.81.54-1.3.54ZM18.39,67.77c-.67,0-1.22-.55-1.22-1.22s.55-1.22,1.22-1.22h9.06c.67,0,1.22.55,1.22,1.22s-.55,1.22-1.22,1.22h-9.06ZM77.72,31.67c-.33,0-.63-.13-.86-.36s-.36-.54-.36-.86.13-.63.36-.86c1.59-1.59,3.71-2.47,5.97-2.47s4.37.88,5.96,2.47c.48.47.48,1.25,0,1.72-.23.23-.54.36-.86.36s-.63-.13-.86-.36c-1.13-1.13-2.64-1.75-4.24-1.75s-3.11.62-4.24,1.75c-.23.23-.54.36-.86.36ZM73.7,25.38c-.33,0-.63-.13-.86-.36-.23-.23-.36-.54-.36-.86s.13-.63.36-.86c2.67-2.67,6.21-4.13,9.98-4.13s7.32,1.47,9.98,4.13c.48.48.48,1.25,0,1.72-.23.23-.54.36-.86.36s-.63-.13-.86-.36c-2.21-2.21-5.14-3.42-8.26-3.42s-6.05,1.21-8.26,3.42c-.23.23-.54.36-.86.36Z"/>
    </symbol>

    <!-- shockwave -->
    <symbol id="wave" viewBox="0 0 100 100">
        <path fill="currentColor" d="M66.66,46.32c.33,5.09-4,8.07-8.16,9.54,2.99,3.79,9.77,10.43,9.77,10.43l9.23-9.14-10.85-10.83Z"/>
        <path fill="currentColor" d="M36.17,27.89c-1.71,1.82-1.38,4.42.3,6.09l10.54,10.53c5.19-1.51,7.93-4.27,13.86-3.98l-15.32-15.37c-1.76-1.76-4.32-2.23-6.27-.39-1.03.97-2.13,2.07-3.11,3.12Z"/>
        <rect fill="currentColor" x="12" y="55.51" width="9.82" height="25.42" rx="1.9" ry="1.9" transform="translate(-43.3 31.97) rotate(-45.03)"/>
        <path fill="currentColor" d="M56.31,55.14c2.92-.54,5.67-1.85,7.58-4.08,1.24-1.45,1.95-3.3,1.36-5.14-.97-3.06-4.07-4.65-7.21-4.1-5.49.98-8.3,3.89-12.47,4.1-5.26.26-4.87-3.32-6.87-2.36-1.9.91,1.02,4.58,5.75,4.89,5.19.34,8.32-2.82,13.58-4.04,1.92-.44,4.01.26,4.7,2.13.43,1.18-.25,2.4-1.1,3.23-4.17,4.1-7.89,1.7-13.87,6.26-2.27,1.73-4.27,3.45-6.27,5.35-2.62,2.48-5.56,4.34-9.05,5.39l-3.09.93c-.92.28-1.22,1.42-.56,2.11.32.34.81.47,1.26.35,10.42-2.78,11.08-5.58,18.76-11.75,2.23-1.79,4.69-2.76,7.48-3.28Z"/>
        <path fill="currentColor" d="M6.61,50.89c4.56-3.12,6.92-8.25,5.99-13.79l-.91-5.41c-.87-5.15.91-11.02,6.5-12.72,5.9-1.8,11.21,1.01,15.34,4.88l.11,2.01c0,1.2-.64,2.59.49,3.41.33-.75.74-1.63,1.22-2.1l3.34-3.33c.44-.44,1.38-.84,2.02-1.17-.86-1.08-2.21-.44-3.26-.45l-2.09-.3c-1.94-1.54-3.85-3.07-6.07-4.21-7.31-3.75-16.87-1.78-19.51,6.35-.87,2.68-1.08,5.37-.61,8.18l.9,5.37c.76,4.54-1.21,8.63-4.95,11.19-.53.36-.71,1.09-.4,1.65.02.03.03.05.05.08.37.64,1.23.78,1.84.36Z"/>
        <path fill="currentColor" d="M15.81,54.94c-.52.5-.52,1.32,0,1.82,0,0,.01.01.02.02.49.48,1.27.48,1.77,0l17.69-16.98c.99-.95,2.17-1.39,3.46-2.04l-1.93-1.94c-1.49.72-2.64,1.49-3.81,2.6l-17.18,16.51Z"/>
        <path fill="currentColor" d="M57.43,58.26l-1.23-1.86c-1.06.22-2.15.52-3.14.87l.03,6.56c-.93.31-1.78.14-2.47-.41-.51-.41-.78-1.32-.85-2.12l-.16-1.95-2.38,1.96c-.15,3.11,2.47,5.6,5.65,5.23,1.67-.19,2.75-1.53,2.77-3.04l.04-3.19c1.84,1.56,4.13,2.05,6.32.75l-1.88-1.9c-1.04.17-2.14-.05-2.71-.91Z"/>
        <path fill="currentColor" d="M74.32,76.23c6.67-1.25,11.85-6.34,13.21-12.98.14-.68-.3-1.34-.97-1.48-.68-.14-1.34.3-1.48.97-1.15,5.63-5.56,9.96-11.22,11.02-.68.13-1.12.78-1,1.46.11.6.64,1.02,1.23,1.02.08,0,.15,0,.23-.02Z"/>
        <path fill="currentColor" d="M92.06,64.48c.15-.67-.28-1.34-.95-1.49-.67-.15-1.34.28-1.49.95-1.59,7.24-7.3,12.89-14.56,14.39-.68.14-1.11.8-.97,1.48.12.59.64,1,1.22,1,.08,0,.17,0,.25-.03,8.22-1.69,14.69-8.09,16.5-16.3Z"/>
        <path fill="currentColor" d="M95.71,64.22c-.68-.16-1.34.27-1.5.94-2.02,8.86-9.06,15.83-17.94,17.76-.67.15-1.1.81-.96,1.49.13.58.65.98,1.22.98.09,0,.18,0,.27-.03,9.82-2.14,17.61-9.85,19.84-19.65.15-.67-.27-1.34-.94-1.5Z"/>
        <path fill="currentColor" d="M77.94,69.87l3.14-3.12c.63-.63.8-1.59.41-2.39l-2.94-6.08-9.23,9.14,6.28,2.87c.79.36,1.72.2,2.34-.42Z"/>
    </symbol>

    <!-- pregnant 1 -->
    <symbol id="pregnant" viewBox="0 0 100 100">
        <path fill="currentColor" d="M80.19,68.36c-.1,0-.2-.01-.29-.04l-4.22-1.05c-1.14-.29-2.38-.43-3.68-.43-2.11,0-3.67.38-3.84.42-.11.03-.21.04-.32.04h0c-.19,0-.38-.05-.55-.13-.67-.34-16.3-8.26-31.36-14.05-.53-.21-.85-.76-.76-1.32,1.31-8.28,2.78-34.72,2.84-35.85.04-.65.57-1.15,1.21-1.15.39.02.69.16.9.4.22.24.33.55.31.88-.15,2.62-1.44,25.54-2.69,34.82-.02.18.08.36.25.43,13.64,5.33,27.28,12.12,29.87,13.43.06.03.12.04.18.04.03,0,.05,0,.08,0,.69-.14,2.11-.37,3.86-.37,1.5,0,2.94.17,4.28.5l4.22,1.05c.31.08.58.27.74.55.17.28.21.6.14.92-.13.54-.62.92-1.17.92Z"/>
        <path fill="currentColor" d="M84.49,69.33c-.25,0-.49-.07-.69-.21-.55-.38-.69-1.14-.31-1.69,2.32-3.35,3.36-7.84,3.36-10.8,0-13.16-13.28-24.44-24.14-24.44-.07,0-.13,0-.2-.02-.02,0-.04,0-.06,0s-.04,0-.07,0c-.12.02-.24.04-.37.05-.65.08-1.36.12-2.11.12-1.55,0-2.74-.17-2.75-.18-.66-.1-1.12-.71-1.03-1.38.09-.59.6-1.04,1.2-1.04.06,0,.12,0,.17.01,0,0,1.06.15,2.41.15.64,0,1.25-.03,1.81-.1,2.25-.27,4.09-1.31,5.17-2.93,1.28-1.9,1.49-4.58.62-7.75-1.96-7.14-9.12-11.77-9.19-11.81-.27-.17-.46-.44-.53-.76s-.01-.64.16-.91c.22-.35.61-.56,1.02-.56.23,0,.45.07.65.19.33.21,8.01,5.14,10.22,13.22,1.34,4.88.23,7.99-.94,9.74-.37.55-.8,1.06-1.29,1.51-.11.1-.15.25-.12.39s.15.25.29.29c4.5,1.15,9.03,3.72,12.74,7.25,5.56,5.29,8.76,12.2,8.76,18.95,0,4.01-1.52,8.91-3.79,12.18-.23.33-.6.52-1,.52Z"/>
        <path fill="currentColor" d="M69.75,94.91c-.32,0-.62-.13-.85-.36-.23-.23-.35-.54-.35-.86.03-3.39,2.28-6.96,4.17-9.36.08-.1.11-.24.07-.37-.04-.13-.14-.22-.26-.26-5.28-1.66-8.97-5.4-9.97-6.51-.05-.05-.11-.09-.18-.12-2.25-.65-10.22-3.01-18.53-6.03-7.27-2.64-12.93-5.1-16.82-7.31-.06-.04-.13-.05-.2-.05-.14,0-.27.07-.35.2-.02.03-.03.06-.04.09-.05.11-7.02,15.31-.63,26.68.33.58.12,1.32-.46,1.65-.18.1-.38.16-.59.16-.44,0-.84-.24-1.06-.62-7.01-12.46.25-28.27.56-28.94.04-.09.1-.17.16-.25.07-.09.1-.2.09-.31-.02-.11-.08-.21-.17-.27-1.73-1.2-2.95-2.35-3.62-3.41-4.9-7.81-2.19-43.77-1.86-47.85.05-.63.58-1.12,1.21-1.12.42.03.71.18.92.43.21.25.31.56.29.88-.86,10.86-2.27,40.35,1.5,46.37,1.04,1.66,5.28,5.35,21.91,11.39,9.59,3.49,18.73,6.08,18.82,6.1.23.07.45.21.6.4.19.23,4.77,5.63,11.45,6.65.47.07.93.11,1.37.11,2.11,0,3.89-.81,5.31-2.42,1.48-1.68,2.14-3.76,2.25-5.04.02-.21-.13-.4-.34-.43-.98-.15-2.54-.59-5.39-1.52l-.67-.22c-.23-.03-.37-.07-.5-.13-.89-.42-.85-1.23-.7-1.6.13-.34.43-.75,1.1-.75.21,0,.45.04.7.12.2.06.47.15.8.26,2.96.97,4.62,1.43,5.24,1.46.19-.02.29-.03.4-.03.52,0,1,.25,1.32.68,1.06,1.44.21,4.84-1.19,7.16-1.9,3.14-4.87,4.87-8.36,4.87-.28,0-.57-.01-.86-.03-.01,0-.02,0-.03,0-.11,0-.22.05-.3.13-.78.88-4.68,5.43-4.71,9.16,0,.66-.55,1.2-1.21,1.2h-.01Z"/>
    </symbol>

    <!-- pregnant 2 -->
    <symbol id="perineale" viewBox="0 0 100 100">
        <path fill="currentColor" d="M60.77,69.02h0c-.55.05-1.08.2-1.58.44-.51-.25-1.04-.4-1.59-.44-.91-.07-1.87.14-2.63.6-1.34.79-2.17,2.25-2.17,3.8,0,.53.09,1.04.27,1.52.09.26.22.51.41.83.03.05.06.11.15.22.03.04.23.24.42.44.11.12.22.23.3.31l2.71,2.72c.58.58,1.36.92,2.16.92s1.56-.34,2.14-.93l2.6-2.6c.75-.76.81-.84.87-.93.2-.3.37-.63.49-.97.18-.48.27-1,.27-1.52,0-1.69-.99-3.26-2.51-3.99-.71-.34-1.51-.49-2.3-.43ZM63.29,73.42c0,.24-.05.49-.14.76l-.09.26c-.03.07-.06.11-.07.13-.05.07-.39.41-.67.69l-2.6,2.6c-.16.16-.36.25-.55.26-.17,0-.37-.1-.54-.26l-2.59-2.59c-.24-.25-.62-.65-.68-.73-.07-.12-.13-.25-.18-.38-.09-.24-.14-.48-.14-.74,0-.76.41-1.47,1.07-1.86.35-.21.75-.3,1.13-.31.04,0,.09,0,.15,0,.4.03.78.18,1.1.42.41.3.95.3,1.36,0,.33-.24.71-.38,1.1-.42.39-.03.77.04,1.11.21.76.37,1.23,1.11,1.23,1.95Z"/>
        <path fill="currentColor" d="M62.45,59.46c.73-.75,1.5-1.87,1.7-3.43.36-2.77-1.2-5.83-4.63-9.08-1.98-1.88-4.61-3.85-7.79-5.84-.79-.59-2.05-1.91-2.04-2.93,0-.19.06-.39.18-.58.94.73,2.27,1.47,3.8,1.47.61,0,1.21-.12,1.78-.36,1.7-.71,2.78-2.25,3.67-3.5.48-.69.8-1.11.9-1.23.13.02.26.03.38.03,2.75,0,2.75-3.71,2.75-5.3,0-.23.18-.81.31-1.18,2.09-2.51,3.23-5.68,3.23-8.93,0-.93-.1-1.89-.28-2.78v-.1c-1.36-6.44-7.12-11.12-13.7-11.12-5.44,0-10.77,2.21-13.92,5.78-6.78,7.69-7.07,12.88-7.29,16.71-.1,1.74-.19,3.12-.95,4.23-4.54,6.62-3.25,12.82-1.58,17.5-.34,3.96-.04,23.75,1.22,26.14.45.85,2.19,2.41,3.69,3.65-3.38,6.91-3.42,15.45-3.42,15.54,0,.69.56,1.26,1.26,1.26s1.26-.57,1.26-1.26c0-.08.05-7.65,2.92-13.92,6.85,5.34,17.9,12.56,22.05,12.56h.1c1.31-.04,3.13-.66,4.98-1.68l.29,2.88c.07.64.6,1.13,1.25,1.13h.13c.33-.04.64-.2.85-.46.21-.26.31-.59.27-.92l-.43-4.14c3.07-2.28,5.35-5.19,6.42-8.24,1.69-4.82,1.41-12.5-9.35-21.89ZM61.36,26.06c-.1.12-.18.26-.24.42-.33.96-.52,1.63-.52,2.22,0,1.97-.23,2.6-.33,2.77-1.46-.26-2.4,1.09-3.24,2.29-.68.98-1.53,2.19-2.57,2.63-1.54.63-3.28-.91-3.7-1.33l-.03-.03s-.02-.02-.03-.03l-.02-.02c-.44-.4-1.1-.45-1.58-.11-1.28.9-1.93,2.01-1.94,3.3-.04,2.75,2.98,4.91,3.14,5.02,2.39,1.49,4.46,2.97,6.15,4.41-.07.03-.13.06-.2.09-.44.19-.96.41-1.52.58-.54.16-1.08.24-1.64.24-5.81,0-12.03-8.4-12.08-8.48-.08-.11-.17-.21-.29-.29l-.13-.08h0,0s-.13-.11-.13-.11h-.02s-.03-.02-.04-.02l-.09-.05c-.08-.05-.14-.09-.25-.14l-.22.45.13-.5c-.12-.07-.27-.14-.37-.19-.09-.05-.19-.09-.27-.12l-.28-.11.1-.19c.13-.26.26-.54.39-.82.03-.07.07-.14.1-.21l.09-.19c.08-.18.16-.36.23-.54.04-.09.08-.19.12-.29l.09-.21c.07-.17.14-.35.21-.53l.09-.22c.05-.11.09-.22.13-.32.04-.11.08-.21.13-.32l.08-.2c.05-.12.09-.24.14-.37l.27-.75c.05-.14.11-.28.16-.43l.2-.56c.06-.17.12-.35.19-.53l.14-.4c.73-2.16,1.34-3.7,1.87-4.72.24-.46.43-.77.61-.99.49-.63.89-.67,2.03-.79.63-.07,1.42-.16,2.37-.42.29-.08.63-.17,1.04-.26,3.33-.85,10.08-2.58,14.33-5.89-.02,2.71-1.01,5.32-2.78,7.37ZM31.13,41.95c-.08.13-.17.28-.26.45l-.06.11c-.24.46-.45.91-.62,1.32-.69-4.09.1-7.73,2.4-11.09,1.17-1.71,1.28-3.58,1.39-5.55.2-3.42.46-8.11,6.66-15.15,2.67-3.03,7.28-4.92,12.02-4.92,5.13,0,9.76,3.56,11.09,8.5-.18.19-.38.38-.6.57-3.75,3.32-10.92,5.13-13.98,5.9l-1.05.27c-.82.21-1.47.29-2.08.35-1.42.15-2.5.36-3.53,1.59l-.12.15h0c-.12.16-.25.34-.39.54l-.06.1.44.24-.52-.1c-.11.19-.23.38-.34.6l-.22.45c-.54,1.14-1.13,2.66-1.8,4.64-.19.57-.38,1.1-.56,1.6l-.61,1.63c-.12.31-.24.61-.35.88-.03.07-.06.15-.09.23l-.12.3c-.07.18-.15.36-.22.52l-.06.15c-.02.05-.04.11-.08.17l-.09.19c-.06.14-.12.27-.18.41-.02.05-.04.09-.06.13l-.06.12c-.08.16-.15.31-.23.47l-.32.61h-.04c-.1,0-.22,0-.32.02-.33.03-.66.09-.99.19l-.07.02c-.09.02-.17.05-.3.1l-.49.2c-.11.05-.22.11-.38.21-.11.05-.21.12-.32.2l.3.4-.42-.33-.26.19c-.05.04-.1.08-.12.1l-.36.3c-.06.05-.11.1-.19.19-.07.07-.15.15-.19.2-.06.06-.12.13-.17.19-.08.09-.14.16-.22.26l-.13.18c-.08.1-.15.19-.23.31l-.19.29c-.05.08-.1.16-.15.24-.04.06-.07.12-.08.14ZM69.57,80.12l-.14.4c-.65,1.84-1.78,3.59-3.36,5.18-5.91-3.58-9.89-3.32-11.57-2.92-6-6.13-12.67-13.1-13.39-14.09-.21-.97.79-7.85,2.62-16.46.15-.68-.28-1.35-.96-1.5-.33-.07-.67-.01-.95.17-.28.18-.48.46-.55.79-2.32,10.88-3.11,17.01-2.36,18.22.98,1.58,14.19,15.03,14.32,15.17.37.37.94.48,1.42.26.03-.02,3.36-1.33,9.42,2.09-2.33,1.74-4.86,2.79-6.09,2.82h-.05c-3.32,0-15.15-7.68-21.55-12.78-.1-.12-.23-.22-.37-.28-2.83-2.28-3.46-3.14-3.59-3.41-.74-1.42-1.44-20.56-.92-24.98.23-1.92.77-3.68,1.6-5.25,1.05-1.98,2.4-2.87,3.94-2.68,1.01.12,1.83.64,2.05.79,1.29,1.71,7.41,9.37,14.01,9.37.82,0,1.61-.12,2.36-.35l.22-.08c.61-.2,1.15-.41,1.67-.63l.25-.12c.1-.05.2-.1.33-.16l.27-.13c.08-.04.17-.08.25-.12,2.32,2.37,3.43,4.52,3.2,6.26-.19,1.56-1.4,2.41-1.76,2.63-.37.2-.62.57-.65.99-.03.41.12.8.43,1.08l.48.41c7.98,6.75,11.23,13.41,9.42,19.3Z"/>
    </symbol>

    <!-- Ortho -->
    <symbol id="ortho" viewBox="0 0 100 100">
        <path fill="currentColor" d="M42.85,13.93c1.83.48,2.9,1.69,3.49,3.44.17.48.39.68.96.68,2.11.06,3.66,1.1,4.53,3.01.87,1.94.62,3.8-.79,5.44-.31.37-.34.65-.34,1.1.03.82-.08,1.66-.14,2.59,2.17.59,2.79,2.51,3.21,4.51,2.82.48,4.42,1.89,4.87,4.31.34,1.91-.28,3.52-1.72,4.79-.28.25-.39.48-.42.87-.08.87-.31,1.72-.48,2.68,1.66.76,2.34,2.34,2.45,4.22.03.48.2.76.73.93,2.08.65,3.27,2.14,3.55,4.28.25,2.06-.54,3.72-2.28,4.87-.39.25-.54.54-.62.99-.17.82-.54,1.58-.84,2.45,1.89,1.15,2,3.15,1.86,5.24,1.86.7,3.04,1.97,3.44,3.91.48,2.31-.73,4.73-2.87,5.69-.39.17-.59.37-.68.79-.25,1.13-.9,2.03-1.91,2.59-6.62,3.72-13.24,3.69-19.85-.03-1.01-.56-1.58-1.49-1.91-2.59-.08-.25-.31-.56-.56-.68-1.97-.96-3.01-2.53-3.04-4.67-.03-2.17,1.04-3.8,3.04-4.73.37-.17.45-.37.45-.73.03-.84.17-1.66.2-2.51,0-.25-.23-.48-.31-.73-.28-.96-.99-1.32-1.89-1.72-1.86-.82-2.82-2.39-2.9-4.39-.08-1.91.7-3.46,2.34-4.53.37-.25.48-.45.42-.9-.08-.82-.08-1.63-.17-2.45-.03-.25-.31-.48-.42-.76-.42-.87-1.15-1.13-2.06-1.38-1.91-.54-3.1-1.91-3.49-3.86-.39-1.91.14-3.58,1.63-4.87.37-.31.45-.56.31-1.01-.23-.76-.34-1.55-.51-2.34-.03-.14-.08-.31-.2-.42-.73-.68-1.35-1.32-2.53-1.41-1.94-.17-3.32-1.46-3.97-3.38-.65-1.89-.25-3.6,1.04-5.13.14-.17.2-.54.14-.76-.17-.56-.48-1.07-.65-1.63-.51-1.52-.2-2.9.9-4.08,1.07-1.15,2.45-1.38,3.94-1.07.65.14,1.1.73,1.07,1.38-.03.68-.54,1.24-1.21,1.35-.08,0-.2.03-.28.03-1.83-.03-2.22.56-1.49,2.22.31.7.65,1.41.93,2.11.34.82.11,1.44-.65,1.91-1.13.7-1.52,1.8-1.01,2.93s1.61,1.61,2.84,1.24c.9-.28,1.55-.06,1.89.84.39,1.1,1.13,1.41,2.2,1.46,5.97.23,10.76-1.94,14.42-6.67.48-.62.54-1.18.25-1.89-.56-1.27-.42-1.66.76-2.42.9-.59,1.21-1.77.76-2.82-.48-1.04-1.58-1.58-2.65-1.27-1.21.37-1.69.14-2.22-1.04-.34-.76-.65-1.49-1.01-2.25-.54-1.1-1.49-1.21-2.25-.25-.14.17-.25.34-.39.51-.51.54-1.3.62-1.86.2-.59-.42-.76-1.24-.37-1.89.68-1.13,1.63-1.89,2.9-2.28.48,0,.96,0,1.44,0ZM37.5,53.64c.08.68.2,1.44.28,2.2.17,1.52.03,1.72-1.44,2.22-1.04.37-1.63,1.38-1.44,2.51s1.04,1.89,2.17,1.91c1.3,0,1.66.31,1.86,1.58.08.65.31,1.21,1.01,1.46,5.72,2.2,11.1,1.52,16.14-2,.84-.59,1.13-1.27.99-2.25-.17-.99.23-1.49,1.18-1.77,1.21-.34,1.91-1.35,1.75-2.51-.2-1.24-1.13-2.03-2.39-2-1.01.03-1.49-.42-1.66-1.41-.14-.93-.23-1.86-.42-2.79-.2-1.04-1.13-1.41-1.94-.73-3.1,2.51-6.84,3.21-10.62,3.6-1.77.23-3.6,0-5.46-.03ZM39.78,68.68s0,0,0,.06v2.11c0,1.58-.17,1.77-1.72,2.08-1.07.23-1.83,1.18-1.8,2.28.03,1.1.79,2,1.83,2.2,1.46.28,1.66.51,1.69,1.97,0,.65.2,1.15.79,1.46,5.41,2.96,10.81,3.07,16.31.25.87-.45,1.24-1.01,1.21-2-.06-1.04.42-1.49,1.44-1.63,1.3-.2,2.08-1.07,2.08-2.31-.03-1.21-.82-2.08-2.08-2.25-1.01-.14-1.41-.59-1.44-1.63,0-.9.03-1.83,0-2.73-.03-1.1-.87-1.55-1.86-1.07-.73.37-1.46.76-2.22,1.04-2.96,1.13-6.05,1.21-9.15,1.01-1.69-.08-3.35-.54-5.07-.84ZM33.14,39c0-.08-.03-.03,0,0,.2.82.42,1.61.65,2.39.31,1.13.06,1.66-.99,2.11s-1.58,1.52-1.3,2.65c.28,1.07,1.24,1.8,2.34,1.72,1.58-.11,1.77,0,2.25,1.52.2.59.54.96,1.15,1.1,6,1.35,11.26-.06,15.74-4.28.68-.65.87-1.3.59-2.2-.34-1.07-.06-1.58.99-2.06,1.1-.48,1.61-1.58,1.3-2.7-.34-1.18-1.38-1.86-2.59-1.63-1.01.17-1.55-.14-1.86-1.13-.28-.9-.51-1.8-.79-2.68-.34-1.01-1.3-1.3-2.03-.54-2.82,2.99-6.51,4.22-10.34,5.15-1.66.37-3.41.37-5.13.56Z"/>
        <path fill="currentColor" d="M64.48,36.32c-.08.96-.14,1.8-.23,2.68-.08.9-.73,1.46-1.52,1.38-.79-.08-1.32-.76-1.27-1.63.08-1.24.17-2.48.25-3.72.08-1.21.68-1.69,1.91-1.58.51.03,1.01.06,1.61.08.08-.96.14-1.86.23-2.76.11-.96.73-1.55,1.55-1.44.84.11,1.32.76,1.24,1.72-.08,1.3-.17,2.62-.28,3.91-.11,1.1-.62,1.52-1.72,1.46-.59-.03-1.15-.08-1.77-.11Z"/>
        <path fill="currentColor" d="M68.22,53.22c-.9-.06-1.69-.14-2.48-.2-1.01-.06-1.61-.62-1.55-1.52.06-.84.68-1.35,1.66-1.3,1.3.08,2.62.17,3.91.28.84.08,1.35.65,1.35,1.49,0,.62-.06,1.27-.11,1.97.9.06,1.8.14,2.7.2.93.08,1.46.59,1.49,1.38.03.79-.51,1.46-1.3,1.44-1.58-.06-3.13-.17-4.67-.31-.7-.06-1.13-.7-1.13-1.46.03-.62.06-1.27.11-1.97Z"/>
        <path fill="currentColor" d="M72.36,42.57c.73-.65,1.41-1.24,2.08-1.8.73-.62,1.58-.59,2.11.06.51.62.42,1.44-.25,2.06-1.01.9-2.06,1.8-3.07,2.68-.76.65-1.49.59-2.17-.14-.39-.42-.76-.87-1.21-1.38-.65.56-1.27,1.1-1.91,1.63-.79.68-1.61.68-2.17,0-.54-.65-.42-1.49.34-2.14.93-.82,1.86-1.63,2.82-2.42.79-.65,1.52-.62,2.22.14.39.37.79.82,1.21,1.32Z"/>
        <path fill="currentColor" d="M36.12,20.89c0,.79-.62,1.38-1.41,1.35-.76,0-1.38-.62-1.41-1.38,0-.76.68-1.44,1.44-1.41.79.03,1.38.65,1.38,1.44Z"/>
    </symbol>

    <!-- Perinitale -->
    <symbol id="perinatale" viewBox="0 0 100 100">
        <path fill="currentColor" d="M25.77,9.34c.16-.72.89-1.25,1.71-1.18.72.16,1.25.89,1.18,1.71-.72,3.87-1.81,7.75-3.25,11.52,2.63,1.54,4.96,2.33,7.75,3.15,2.33.53,2.33.62,4.33,3.32,2.17,2.89,3.51,4.76,4.6,8.37.53,1.97,1.54,4.23-.62,5.48,1.97,2.53,6.57,7.91,7.39,11h2.27c.82-3.05,5.32-8.47,7.39-11-2.27-1.25-1.18-3.51-.62-5.48.98-3.61,2.17-5.12,4.23-8.01,1.71-2.33,1.81-2.95,4.6-3.68,2.95-.89,5.12-1.54,7.85-3.15-1.44-3.78-2.53-7.65-3.25-11.52-.26-1.9,2.53-2.33,2.79-.53.62,3.61,1.61,7.03,2.89,10.34,2.27-1.71,4.4-3.68,6.47-5.68,1.35-1.25,3.32.82,1.97,2.17-5.97,5.42-9.95,9.03-17.96,11.1-1.81.46-2.07,1.35-3.05,2.69-1.9,2.63-2.95,3.97-3.78,7.12-.26.62-.72,1.81-.26,2.33l3.97-4.96c1.18-1.44,3.32.36,2.17,1.81-1.9,2.43-3.87,4.86-5.75,7.29-1.71,2.07-4.86,6.04-6.4,8.73-.36.62-.82,1.61-.53,2.33.46-.16,1.25-1.44,1.54-1.81l6.76-8.63c1.08-1.54,3.32.26,2.27,1.71l-7.85,10.08c-.46.89-.62,1.54-.62,1.97.46-.1,1.08-.53,1.71-1.25,1.44-1.71,2.79-3.61,4.23-5.42,2.17-2.69,4.04-5.12,5.48-7.29,1.08-1.54,3.41,0,2.43,1.61-1.54,2.27-3.51,4.76-5.68,7.49-1.08,1.25-2.17,2.69-3.41,4.23.46-.16.98-.62,1.61-1.25,3.05-3.25,5.48-6.4,7.85-9.45.82-.98,1.54-2.07,2.53-3.32,1.18-1.44,3.41.26,2.27,1.81-.72.89-1.61,2.07-2.53,3.32-1.61,2.17-3.32,4.33-5.32,6.57.16.1.36.16.62.1,6.11-2.27,14.58-19.8,19.27-25.74,1.18-1.44,3.41.26,2.27,1.81-1.61,2.07-3.41,5.32-4.86,7.75,5.32,17.73.98,34.67-3.87,51.94-.46,1.81-3.25.98-2.69-.82,2.53-8.9,5.06-18.35,5.84-27.64-14.77-1.97-29.87,2.43-32.04,19.27.26,2.63.46,5.58.26,8.83-.1,1.9-2.95,1.81-2.89-.1,1.18-24.13-12.41-29.35-32.6-27.81.82,9.19,3.32,18.55,5.84,27.45.53,1.81-2.27,2.63-2.69.82-4.86-16.94-9.36-34.67-3.94-51.97-1.54-2.43-3.25-5.68-4.86-7.75-.53-.62-.46-1.54.16-2.07.62-.46,1.54-.36,1.97.26,1.81,2.27,3.61,5.58,5.12,8.11.26.16.46.46.53.82,4.4,6.93,10.28,15.56,13.69,16.84.16.1.36,0,.53-.1-2.69-3.25-5.22-6.57-7.85-9.91-1.18-1.54,1.08-3.25,2.27-1.81,3.41,4.33,6.57,8.73,10.44,12.77.53.62,1.18,1.08,1.54,1.25-2.95-3.87-6.3-7.65-9-11.69-1.08-1.61,1.35-3.15,2.33-1.61,2.79,4.14,6.3,8.11,9.36,12.15.53.62,1.25,1.61,2.07,1.81.16-1.08-.82-2.27-1.44-3.05l-6.93-9c-1.18-1.44,1.08-3.25,2.27-1.71l7.75,10.08c.1,0,.46.46.53.26.1-.46,0-1.25-.53-2.27-2.89-5.06-8.47-11.26-12.25-16.02-1.18-1.44,1.08-3.25,2.27-1.81l3.87,4.99c.53-.53,0-1.71-.16-2.33-.89-3.25-2.17-4.86-4.04-7.49-1.44-1.9-1.44-1.97-2.79-2.33-7.75-1.81-12.28-5.84-17.92-11.06-.53-.53-.62-1.44-.1-2.07.53-.53,1.44-.62,1.97-.1,2.17,1.97,4.33,3.97,6.57,5.68,1.28-3.35,2.17-6.76,2.79-10.37h0ZM48.75,55.53c-.26.89-.98,1.71-1.9,1.9.36,3.61-3.15,4.23-5.68,2.17-2.07,2.07-4.96-.89-6.4-2.33-2.95,2.95-8.01-2.89-9.72-4.86-2.89-.72-6.11-1.61-8.83-2.95-.26,3.05-.36,6.4-.16,10.28,13.79-.98,28.79.16,34.01,15.56,4.96-14.12,20.42-17.56,33.75-15.76.16-3.61.1-6.93-.26-9.91-2.95,1.81-6.4,3.05-9.72,3.87-1.71,1.9-6.04,6.47-8.73,3.78-1.18,1.18-2.33,2.43-3.61,2.79-1.08.36-2.07.36-2.89-.46-2.53,2.07-5.94,1.44-5.58-2.17-.98-.26-1.61-.98-1.97-1.9-.79,0-1.51.1-2.3,0h0ZM22.19,48.61c-1.54-2.07-3.05-4.33-4.5-6.57-.46,1.44-.72,2.89-.98,4.4,1.61.98,3.68,1.61,5.48,2.17h0ZM82.24,42.01c-1.61,2.53-3.41,5.12-5.22,7.49,2.17-.72,4.33-1.71,6.11-3.05-.26-1.54-.53-2.99-.89-4.43h0ZM45.96,37.87c-1.44-1.18.36-3.41,1.81-2.27,2.07,1.71,2.53,1.61,4.69,0,1.54-1.08,3.25,1.18,1.71,2.27-3.18,2.43-5.06,2.53-8.21,0h0Z"/>
    </symbol>

    <!-- ATM -->
    <symbol id="atm" viewBox="0 0 100 100">
        <path fill="currentColor" d="M79.65,19.79c.45-2.67-.89-4.59-1.4-7.08-.46-2.13-1.29-4.3-2.32-6.92-.27-.67-1.02-1-1.69-.73-.67.27-1,1.02-.73,1.69.99,2.5,1.78,4.57,2.19,6.5.22,1.01.52,1.89.78,2.67.44,1.29.79,2.31.6,3.42-.21,1.22-.62,3.4-.92,5.01-.88,4.34,1.71,7.52,4.33,10.49,1.08,1.26,1.93,2.25,2.03,2.71.06.27-.71,1.1-.96,1.37-1.79,1.94-5.93,6.41-1.77,11.33-.57,1.14-1.25,2.24-1.49,4.18-3.32-.04-6.75-.48-10.6-1.01-5.44-.77-13.08-2.08-18.09-3.28,1.74-4.9.92-7.21.6-7.84-.43-.83-1.12-1.38-2.01-1.59-3.18-.76-4.85,1.75-5.96,3.4-.78,1.16-1.32,1.92-1.83,1.83-.44-.08-1.05-2.03-1.34-2.96-.46-1.48-.99-3.17-1.94-4.37-1.87-2.66-6.51-2.06-7.9.87-1,2.05-.66,5.08,1.05,9.55,1.13,2.95,1.41,5.08,1.75,7.79.22,1.67.46,3.58.94,6,1.34,6.69,8.22,8.17,13.25,9.25,4,.74,6.01,1.86,9.99,3.87,5.83,2.9,11.92,6.17,17.57,5.72,5.04-.5,5.64-3.53,5.55-6.42-.05-1.33.74-3.9,1.37-6,.82-2.87,1.55-5.1,1.31-7.81-.12-1.54-.47-2.88-.76-3.97-.2-.74-.37-1.39-.4-1.84-.09-1.62.53-2.82,1.03-3.78.44-.85,1.05-2.01.16-2.96-1.97-2.1-2.38-4.11,1.4-8.19,2.8-2.88,1.79-4.4-1-7.55-5.19-5.87-4-6.35-2.82-13.36h0ZM59.42,54.78l-.32,2.65c-1.45-.31-2.87-.62-4.24-.95l.25-2.48c1.38.27,2.84.53,4.31.79h0ZM66.07,55.84l-.32,2.86c-1.34-.23-2.7-.49-4.08-.76l.33-2.74c1.39.23,2.75.44,4.07.63ZM72.88,56.71l-.3,3.05c-1.35-.18-2.77-.39-4.25-.63l.33-2.93c1.52.2,2.93.37,4.22.5h0ZM52.3,55.84c-1.38-.36-2.66-.72-3.82-1.07.04-.75.13-1.49.27-2.13.8.21,1.99.48,3.78.84l-.24,2.35h0ZM52.03,58.46l-.26,2.56c-1.36-.44-1.82-.63-1.96-.7-.48-.24-.98-1.23-1.21-2.79,1.07.31,2.21.63,3.43.94ZM54.59,59.09c1.36.32,2.76.63,4.19.93l-.35,2.93c-1.49-.4-2.88-.8-4.11-1.16l.27-2.7ZM61.35,60.55c1.39.27,2.75.52,4.1.75l-.38,3.38c-1.36-.34-2.74-.69-4.09-1.05l.37-3.09h0ZM68.03,61.73c1.49.24,2.92.45,4.29.63l-.39,3.92c-1.33-.29-2.77-.62-4.3-.99l.4-3.57ZM75.48,56.94c1.16.08,2.1.12,2.98.12.27,1.12.6,2.16.81,3.39-1.19-.07-2.57-.19-4.11-.36l.31-3.15h0ZM73.54,79.08c-6.56.6-16.21-6.07-22.77-8.53-1.12-.4-2.52-.7-3.99-1.02-4.8-1.03-10.24-2.2-11.24-7.21-.47-2.33-.7-4.18-.91-5.82-.35-2.76-.66-5.15-1.91-8.39-1.8-4.87-2.08-7.76.05-8.42,4.3-1.6,3.07,8.24,7.16,8.83,2.23.42,3.47-1.44,4.47-2.94,1.23-1.84,1.91-2.62,3.18-2.31.12.03.2.08.29.24.54,1.03,0,4.07-1.21,7-.55,1.35-.85,3.26-.83,5.22.02,1.67.32,5.69,2.79,6.92.2.1.83.42,3.89,1.34,1.85.56,4.16,1.21,6.68,1.88,5.89,1.54,12.93,3.35,18.56,4.17-.59,2-1.07,3.85-1.02,5.3.07,2.33-.22,3.45-3.2,3.75h0ZM78.51,67.49c-.99-.12-2.35-.34-4.02-.67l.41-4.14c1.72.19,3.24.32,4.54.39-.09,1.4-.45,2.74-.93,4.42Z"/>
        <path fill="currentColor" d="M8.84,46.56c-.34.64-.1,1.42.53,1.77.33.18,8.19,4.39,16.43,6.38.68.17,1.41-.25,1.57-.96.17-.7-.26-1.41-.96-1.57-7.9-1.91-15.73-6.1-15.81-6.15-.64-.34-1.43-.1-1.77.53h0Z"/>
        <path fill="currentColor" d="M95.78,39.5c-17.09-20.38-3.99-16.83-11.26-34.27-.44-1.11-.85-2.17-1.18-3.25-.21-.69-.94-1.08-1.63-.87-.69.21-1.08.94-.87,1.63.36,1.17.81,2.32,1.25,3.44,6.92,16.93-6.14,13.58,11.66,34.95l.3.37c1.04,1.29,1.66,2.63,1.64,3.15-.02.28-.44,1.23-.94,2.02-.92,1.44-3.07,3.36-5.38,4.24-.88.34-2.14.77-2.63,2.1-.47,1.32.25,2.5.73,3.28.92,1.5,1.35,2.82,1.31,4.02-.04,1.22-.71,2.78-1.72,3.19-.68.26-1.01,1.11-.69,1.77.96,2.05.28,4.37-1.38,5.86-2.47,2.35-2.54,4.59-2.05,7.66.17,1.22.33,2.37.11,3.38-1.05,3.64-5.03,4.5-8.99,4.15-3.09-.24-4.94-.85-7.27-1.61-1.17-.39-2.49-.82-4.11-1.25-1.66-.44-3.57-.84-5.35-.09-1.6.68-2.6,2.08-3.44,3.48-1.62,2.73-2.95,5.64-3.93,8.65-.16.5-.63.83-1.16.82l-42.01-.36c-.41,0-.77-.2-1-.54-.22-.34-.26-.75-.11-1.12,2.33-5.6,3.88-11.43,4.47-16.86.73-4.31,2.05-12.3-6.18-21.67-.48-.54-1.3-.59-1.84-.12-.54.48-.59,1.3-.12,1.84,7.47,8.52,6.25,15.39,5.55,19.62-.56,5.19-2.04,10.79-4.29,16.17-.49,1.17-.36,2.5.33,3.56.7,1.06,1.88,1.7,3.15,1.72l42.01.36c1.67.02,3.15-1.04,3.66-2.63.92-2.83,2.17-5.56,3.69-8.12.71-1.19,1.36-2.05,2.22-2.42,1.02-.43,2.36-.13,3.66.21,1.54.41,2.77.81,3.96,1.2,3.71,1.44,10.8,2.71,14.71.95,2.52-1.02,4.4-3.09,4.91-5.41.33-1.47.12-2.91-.07-4.31-.22-1.55-.41-2.88.15-3.97.53-1.01,1.64-1.82,2.33-2.81,1.34-1.83,1.75-4.23,1.14-6.38,2.9-2.44,2.85-6.8.56-10.33-.17-.28-.53-.86-.5-1.04.09-.15.69-.38.98-.49,3.9-1.53,7.55-4.96,8.12-8.64,0-2.22-1.74-4.28-2.52-5.26h0Z"/>
    </symbol>

    <!-- Viscerale -->
    <symbol id="viscerale" viewBox="0 0 100 100">
        <path fill="currentColor" d="M89.28,47.32c0-2.96-.88-5.79-2.43-7.93,1.75-2.29,2.74-5.35,2.74-8.61,0-3.06-.89-5.98-2.48-8.22,1.49-1.65,2.32-3.78,2.32-6.04,0-4.96-4.04-8.99-9-8.99-4.13,0-7.63,2.75-8.69,6.61-.48-.08-.96-.12-1.45-.12-3.66,0-6.85,2.23-8.16,5.5-1.62-.79-3.39-1.21-5.2-1.21-3.35,0-6.48,1.39-8.69,3.81-1.66-2.29-4.34-3.69-7.28-3.69-1.6,0-3.12.4-4.47,1.17-2.01-1.98-4.92-3.13-8.01-3.13-.36,0-.73.02-1.13.05-1.57-1.21-3.5-1.87-5.5-1.87-4.96,0-9,4.03-9,8.99,0,1.36.29,2.68.86,3.87-1.11,1.05-1.76,2.53-1.76,4.1,0,.51.07,1.02.21,1.52-.87,1.42-1.33,3.04-1.33,4.72,0,1.83.57,3.61,1.61,5.12-1.3,1.59-2.03,3.61-2.03,5.69,0,2.78,1.28,5.36,3.42,7.05-1.19,1.56-1.85,3.47-1.85,5.45,0,4.96,4.05,8.99,9.02,8.99,2.72,0,5.17-1.22,6.82-3.14.84,2.53,2.48,4.05,3.99,4.94,1.89,1.12,4.16,1.61,6.25,1.61.96,0,1.89-.1,2.72-.3-.01,3.42,1.26,6.41,3.03,8.32.79.85,1.56,1.54,2.31,2.21,1.85,1.65,3.19,2.83,3.45,5.37.29,2.84,2.09,3.29,3.19,3.29h.1c1.99-.03,3.07-1.79,3.11-3.51v-.49c.03-3.17.05-5.84-.58-8.12,3.09.8,6.45.34,8.52-1.1,2.69,2.6,6.79,3.84,10.45,3.05,2.22-.49,6.08-2.14,7.73-7.73,4.19-1.15,7.26-5.88,7.26-11.43,0-2.97-.88-5.8-2.45-7.95,1.53-2.14,2.39-4.95,2.39-7.87h0ZM33.18,69.67c-2.47-1.47-3.55-4.07-3.2-7.73,0-.07,0-.13,0-.19.01-.2.02-.4.02-.6,0-2.8-1.28-5.38-3.42-7.06,1.19-1.56,1.85-3.48,1.85-5.44,0-1.85-.57-3.63-1.61-5.14,1.3-1.59,2.03-3.6,2.03-5.68,0-1-.16-1.97-.47-2.89.62,0,1.24-.04,1.85-.12.04,1.58.53,2.99,1.48,4.21.75.97,1.74,1.73,2.82,2.31-1.63.81-3.14,2.04-4.16,3.65-1.04,1.65-2.32,5.07.73,9.43,2.01,2.88,4.53,3.98,7.23,4.21-.8,2.04-1.35,4.68-1.05,6.27.12.63.68,1.08,1.3,1.08.08,0,.17,0,.25-.02.72-.14,1.19-.83,1.05-1.56-.23-1.2.51-4.22,1.37-5.82,1.84-.19,3.7-.62,5.48-1.03,1.11-.26,2.25-.52,3.35-.72,6.98-1.26,9.37-.42,13.04,2.77.25.22.56.33.87.33.37,0,.74-.15,1-.46.48-.55.42-1.39-.13-1.87-4.53-3.95-7.95-4.71-15.25-3.38-1.16.21-2.33.49-3.47.75-5.28,1.22-9.83,2.28-12.86-2.06-1.65-2.37-1.88-4.56-.66-6.5,1.41-2.25,4.53-3.65,6.67-3.57.21.02.41.05.61.06.71.05,1.34-.46,1.42-1.17.08-.71-.4-1.35-1.1-1.47-.21-.03-.43-.06-.65-.07-1.69-.23-4.36-1-5.74-2.8-.71-.91-1-1.99-.9-3.28.49-.19.95-.41,1.4-.66,1.71,1.87,4.12,2.95,6.67,2.95,2.05,0,4.04-.71,5.62-1.97,1.37,1.37,3.25,2.23,5.43,2.44,2.89.29,6.05-.57,7.99-2.12.33.07.66.12.99.17.02.17.05.34.09.51-2.37.73-4.1,2.94-4.1,5.54,0,.73.59,1.33,1.33,1.33s1.33-.59,1.33-1.33c0-1.47,1.01-2.7,2.38-3.04,1.47,2.6,4.25,4.35,7.44,4.35h.04c.73,0,1.33-.59,1.33-1.33s-.59-1.33-1.33-1.33h-.04c-2.39,0-4.46-1.44-5.38-3.5-.03-.1-.07-.19-.11-.27-.1-.25-.18-.51-.24-.78,2.47-.06,5.01-.67,7.45-1.8-.16,2.86.9,4.94,1.94,6.29-1.47,2.12-2.29,4.87-2.29,7.72s.89,5.81,2.46,7.95c-1.7,2.48-2.48,6-2.46,9.31-2.18-.4-5.09-.46-7.49.72-2.26-3.28-5.99-5.27-10.04-5.27-4.76,0-9.12,2.79-11.09,7.1-.51,1.09-.87,2.18-1.09,3.25-1.61.68-5.23.89-7.92-.71h-.03ZM80.81,72.13c-.53.08-.97.48-1.09,1-.85,3.59-2.96,5.93-5.93,6.57-3.11.68-6.79-.64-8.75-3.15-.25-.32-.63-.51-1.04-.51h0c-.41,0-.79.19-1.04.51-1.03,1.31-4.33,2.07-7.41,1.08-.72-.23-1.66-.65-2.49-1.36-.12-.12-.25-.24-.39-.36-.84-.87-1.49-2.1-1.57-3.85-.03-.73-.65-1.3-1.39-1.27-.73.03-1.3.65-1.27,1.39.09,2.1.81,3.91,2.07,5.34.06.09.14.17.22.24.17.19.36.36.56.53,2.08,2.21,2.06,5.3,2.02,10.17v.45c0,.07-.06.91-.51.91-.36,0-.5.01-.59-.9-.37-3.57-2.29-5.28-4.32-7.08-.7-.63-1.43-1.27-2.12-2.02-2.09-2.28-3.35-6.86-1.17-11.54,1.55-3.38,4.96-5.55,8.68-5.55,3.53,0,6.76,1.94,8.42,5.06.18.34.51.59.89.67.38.08.78,0,1.09-.24,2.09-1.58,5.36-1.32,7.34-.85.21,1.37.56,2.63,1.06,3.67.32.66,1.11.94,1.77.63.66-.32.94-1.11.63-1.77-.46-.96-.76-2.18-.91-3.51,0-.12,0-.24-.04-.36-.31-3.49.46-7.63,2.43-9.86.45-.51.44-1.27-.01-1.77-1.58-1.74-2.48-4.3-2.48-7.04s.86-5.18,2.36-6.91c.46-.53.43-1.31-.07-1.81-1.27-1.27-2.55-3.49-1.66-6.93.11-.07.21-.15.32-.22,4.3-2.95,7.21-7.15,7.61-10.95.07-.73-.45-1.38-1.18-1.46-.73-.08-1.38.45-1.46,1.18-.32,3.01-2.86,6.56-6.47,9.04-.2.14-.41.28-.62.41-.03.02-.06.04-.1.06-3.97,2.49-8.39,3.33-12.22,2.3-.46-.12-.95,0-1.29.35-1.09,1.1-3.71,2.14-6.42,1.87-1.38-.14-3.28-.68-4.45-2.47-.23-.34-.6-.56-1.01-.59-.41-.03-.81.13-1.09.44-1.23,1.38-2.92,2.14-4.76,2.14-2.1,0-4.08-1.05-5.28-2.81-.2-.3-.52-.5-.87-.56-.36-.06-.72.02-1.01.24-1.46,1.07-3.35,1.66-5.32,1.66-.75,0-1.46-.07-2.09-.22h0c-2.46-.55-4.48-2.06-5.4-4.04-.31-.67-1.09-.95-1.76-.65-.67.31-.95,1.09-.65,1.76,1.19,2.58,3.67,4.56,6.7,5.39.61.99.92,2.12.92,3.31,0,1.75-.74,3.44-2.02,4.63-.54.5-.57,1.33-.08,1.87,1.09,1.19,1.69,2.72,1.69,4.32,0,1.5-.55,2.95-1.53,4.11-1.02-.4-2.13-.61-3.25-.61-.73,0-1.33.59-1.33,1.33s.59,1.33,1.33,1.33c1.03,0,2.04.25,2.92.73,0,0,0,0,0,0s0,0,0,0c2.1,1.09,3.4,3.24,3.4,5.62,0,3.49-2.84,6.34-6.35,6.34s-6.36-2.84-6.36-6.34c0-1.79.77-3.51,2.11-4.72.32-.29.49-.72.43-1.15s-.32-.81-.7-1.01c-2.1-1.11-3.41-3.26-3.41-5.63,0-1.8.72-3.45,2.02-4.65.54-.5.57-1.33.08-1.87-1.09-1.19-1.69-2.72-1.69-4.3,0-1.35.42-2.65,1.22-3.75.27-.38.33-.87.15-1.3-.16-.38-.25-.79-.25-1.19,0-1.09.56-2.05,1.49-2.59.32-.18.55-.49.63-.85.08-.36.02-.73-.19-1.04-.68-1.02-1.04-2.23-1.04-3.5,0-3.49,2.85-6.34,6.35-6.34.67,0,1.31.1,1.92.29-1.18.69-2.09,1.67-2.59,2.86-.29.68.02,1.45.7,1.74.17.07.35.11.52.11.51,0,1-.3,1.22-.8.5-1.17,1.84-2.04,3.48-2.28.52-.06.96-.09,1.38-.09,2.74,0,5.26,1.14,6.74,3.04.45.58,1.28.68,1.86.23,1.11-.86,2.45-1.31,3.88-1.31,2.6,0,4.9,1.54,5.87,3.93.19.46.61.78,1.11.82.49.05.97-.19,1.24-.61,1.69-2.67,4.59-4.26,7.75-4.26,1.87,0,3.69.57,5.25,1.65.37.26.85.31,1.27.13.42-.17.72-.55.79-1,.51-2.94,3.05-5.07,6.05-5.07.7,0,1.39.12,2.04.35.38.14.81.09,1.16-.13.34-.22.57-.58.61-.99.33-3.26,3.05-5.72,6.33-5.72,3.5,0,6.35,2.84,6.35,6.34,0,1.9-.84,3.68-2.31,4.89-.28.23-.45.56-.48.92s.1.72.34.98c1.65,1.85,2.6,4.57,2.6,7.46s-1.01,5.82-2.77,7.67c-.48.51-.49,1.29-.02,1.81,1.58,1.73,2.48,4.31,2.48,7.06s-.89,5.25-2.43,7c-.45.51-.45,1.27,0,1.78,1.58,1.74,2.48,4.3,2.48,7.05,0,4.55-2.58,8.5-5.87,9h.01ZM49.86,46.63c-.76,1.22-1.87,2.31-3.23,3.12-1.7,1.02-3.66,1.56-5.65,1.56-.52,0-1.04-.04-1.56-.11-.73-.1-1.23-.78-1.13-1.5s.78-1.23,1.5-1.13c4.03.57,7.58-1.91,8.38-4.58.59-1.98-.4-3.68-2.79-4.8-.66-.31-.95-1.1-.64-1.76s1.1-.95,1.76-.64c3.76,1.76,4.75,4.63,4.41,7.03,5.01-.49,12.59.15,18.69,6.58.51.53.48,1.37-.05,1.87-.26.24-.58.36-.91.36-.35,0-.7-.14-.96-.41-5.9-6.23-13.47-6.26-17.82-5.6h0Z"/>
    </symbol>

    <!-- Trauma -->
    <symbol id="trauma" viewBox="0 0 100 100">
        <path fill="currentColor" d="M90.17,91.45c-.62,0-1.25-.39-1.25-1.28,0-16.32,0-33.17-1.44-49.83-.59-7.54-4.26-12.72-11.15-15.8-.03-.03-.1-.03-.13-.03-.07,0-.1,0-.16.03-.1.07-.16.13-.16.23-1.64,12.42-6.06,24.26-12.82,34.25-.1.13-.07.33.07.43,3.54,2.82,6.06,6.82,7.11,11.28.03.13.16.23.3.26h.1c1.57.1,3.21.16,4.75.43h.07c.07,0,.16-.03.23-.1s.1-.16.1-.26l-1.44-23.04c0-.36.1-.66.3-.89.23-.23.59-.39.95-.39.52,0,1.18.3,1.21,1.15l1.51,23.77c0,.13.1.26.23.3,2.29.69,7.05,3.44,7.57,6.06.2.95-.2,1.8-1.15,2.56-.13.1-.16.26-.1.39.62,1.31.66,3.05-1.11,3.93-.13.07-.2.23-.16.39.23.89.16,1.64-.26,2.23-.49.69-1.38,1.11-2.49,1.21-.16,0-.26.13-.3.26-.26,1.48-1.25,2.23-2.95,2.23s-3.7-.82-4.2-1.25c-.07-.03-.13-.07-.2-.1l-2.16-.16c-.16,0-.3.13-.33.3-.07.59-.62,1.05-1.28,1.05h-.13l-16.36-1.7h-.07c-14.72,1.9-28.81,2.07-43.14,2.07-.36,0-.66-.13-.92-.36-.16-.23-.3-.56-.3-.89.16-2.46.69-3.77,2.26-5.61l.82-.98c.07-.07.1-.16.07-.26-.2-1.34-.46-2.69-.72-3.97-.75-3.61-1.44-7.01-.75-10.65.2-1.08.23-2.33.3-3.67.13-3.54.33-7.54,3.34-8.78.1-.03.2-.13.2-.26l2.36-15.64c1.64-11.28,7.24-17.8,17.64-20.55,1.11-.3,2.13-.46,3.05-.59,3.51-.56,5.83-.92,6.13-6.69l.16-2.75c.03-.92.69-1.21,1.25-1.21.36,0,.72.13.95.39.23.23.33.52.3.92l-.16,2.85c-.43,7.47-2.69,7.9-7.18,8.72-1.15.2-2.43.43-3.84.82-9.31,2.46-14.32,8.33-15.83,18.45l-2.13,14.65c0,.1,0,.2.07.26s.16.1.26.1c1.7,0,3.41.03,5.05.03,1.64.03,3.34.03,5.05.03.16,0,.3-.13.33-.3l1.08-7.67c.1-.79.66-1.05,1.15-1.05.39,0,.75.16.98.43s.33.59.26.98l-.98,7.24c0,.1,0,.2.07.26s.16.1.26.1c6.79,0,12.98-.2,18.88-.62.56-.03,1.08-.07,1.54-.07.98,0,1.84.07,2.66.23h.07c.1,0,.2-.07.26-.13,6.72-9.83,11.01-21.34,12.49-33.21.03-.16-.1-.33-.26-.36-3.67-.79-5.47-1.87-5.9-8.56l-.1-2.85c-.03-.39.07-.69.26-.92.23-.23.56-.36.92-.36.56,0,1.21.33,1.31,1.25l.1,2.75c.36,5.38,1.97,5.9,5.54,6.56,6.52,1.18,11.44,3.21,15.05,6.23,4.13,3.47,6.42,8.19,6.95,14.39,1.44,16.68,1.44,33.63,1.44,50.02-.07.92-.69,1.31-1.31,1.31ZM71.03,73.59c-.1,0-.16.03-.23.1s-.1.16-.1.23c.2,2.95.16,6.2.13,9.34,0,1.21-.03,2.43-.03,3.61,0,.16.13.3.3.33l2.69.26c.2,0,.85.36,1.34.59,1.11.56,1.93.95,2.43.95h0c.26,0,.39-.1.49-.2s.16-.26.13-.49c0-.07-.03-.13-.1-.2l-1.61-1.44c-.56-.49-.49-1.02-.39-1.28.2-.52.72-.95,1.25-.95.26,0,.52.1.75.3l1.61,1.44s.03,0,.03.03c.36.23.66.36.92.36.43,0,.66-.26.72-.39.1-.1.13-.26.07-.39-.56-1.05-1.51-1.97-2.92-3.21-.59-.49-.49-1.05-.39-1.31.2-.52.72-.92,1.21-.92.3,0,.56.1.82.33l2.03,1.87c.07.07.13.1.23.1.07,0,.13-.03.2-.07.13-.1.16-.26.1-.39-.33-.75-1.18-1.57-1.97-2.33l-.89-.89c-.56-.52-.46-1.02-.33-1.28.2-.49.69-.85,1.21-.85.3,0,.56.13.82.36l1.54,1.44c.07.07.13.1.23.1.07,0,.13-.03.2-.07.13-.1.16-.26.1-.43-2.33-4.33-10.23-4.65-12.59-4.65ZM18.68,77.13c.52,0,1.02.36,1.21.89.1.26.2.79-.33,1.31l-5.7,5.38c-1.31,1.11-2.33,2.59-2.69,3.9-.03.1,0,.2.07.3.07.07.16.13.26.13,12.23,0,25.27-.13,38.65-1.7.13,0,.23-.1.26-.2s.03-.23-.03-.33c-.72-.89-1.34-1.87-1.93-2.82-.39-.52-.33-.95-.16-1.21.23-.46.72-.75,1.21-.75.36,0,.69.16.92.49.3.36.56.75.85,1.18.89,1.28,1.8,2.59,3.08,3.38.03.03.1.03.13.03l11.54,1.25h.03c.13,0,.26-.1.3-.2.07-.13,0-.3-.13-.39-4.85-3.41-7.64-9.34-7.64-16.36,0-.85.66-1.21,1.28-1.21s1.28.36,1.28,1.21c0,6.13,2.39,11.37,6.56,14.39.07.03.13.07.2.07s.1,0,.16-.03c.1-.07.16-.16.16-.3,0-1.21.03-2.43.07-3.74.07-2.62.13-5.34-.07-7.83-.59-8.95-8.56-16.26-17.77-16.26-.39,0-.79,0-1.18.03-6.2.46-12.85.69-20.29.69-3.61,0-7.44-.07-11.77-.16h-.1c-3.9,0-4.1,4.26-4.23,7.7-.07,1.18-.1,2.29-.26,3.18-.62,3.25.13,6.95.79,10.23.1.49.2.95.3,1.44.03.13.1.23.23.26h.1c.1,0,.16-.03.23-.1l3.67-3.47c.2-.26.46-.36.75-.36ZM58.87,52.05c-.1,0-.23.07-.3.16-.36.59-.72,1.11-1.05,1.67-.36.56-.72,1.11-1.08,1.7-.07.1-.07.2-.03.3s.1.16.2.2c1.54.49,2.82,1.02,3.97,1.67.07.03.1.03.16.03.1,0,.2-.07.26-.13.36-.52.69-1.08,1.05-1.61.33-.52.66-1.08,1.02-1.61.07-.07.07-.16.03-.26s-.1-.16-.16-.2l-3.93-1.87c-.03-.07-.1-.07-.13-.07ZM68.96,22.19c-.07,0-.13.03-.2.07-.07.07-.13.13-.13.23-1.25,9.51-4.03,18.32-8.56,26.98-.03.07-.03.16-.03.26.03.1.1.16.16.2l3.93,1.87s.1.03.13.03c.13,0,.23-.07.3-.16,4.72-8.52,7.7-17.9,8.88-27.93.03-.16-.07-.3-.23-.36l-.52-.16c-1.25-.39-2.46-.75-3.7-1.02t-.03,0Z"/>
    </symbol>

    <!-- SVG ROSA -->
    <symbol id="rosa" viewBox="0 0 100 100">
        <path fill="currentColor" class="st0" d="M62.91,90.67h0l-13.32-29.43c-3.54-7.77-1.94-16.03,4.44-21.1h0c1.67-1.32,2.5-2.5,2.91-4.23.49-1.94.56-4.65.49-9.16-.07-5.55-4.44-9.79-9.92-9.79s-9.92,4.37-9.92,9.72v61.91c0,3.05-2.5,5.41-5.48,5.41s-5.48-2.43-5.48-5.41V26.54c-.14-11.38,9.3-20.54,20.82-20.54s20.82,9.02,20.96,20.54c.07,4.51.07,8.61-.9,12.21-.97,3.75-2.98,6.94-6.59,9.85h0c-.42.35-1.32,1.18-1.8,2.5-.49,1.25-.69,3.12.49,5.83l13.32,29.43c1.25,2.78,0,5.97-2.85,7.15h0c-.69.28-1.39.42-2.15.42-2.08-.07-4.09-1.25-5-3.26h0Z"/>
    </symbol>

    <!-- JAMBE PLATRE -->
    <symbol id="sport_" viewBox="0 0 100 100">
        <path fill="currentColor" d="M57.44,13.84c-.67-1.44,1.49-2.4,2.17-.91,2.11,4.89,4.13,8.79,1.88,14.22,4.22,12.19.62,40.16,8.21,47.51,3.31,3.22,6.16,5.57,10.82,6.3,7.06,1.06,5.28,5.95-2.55,5.8-6.16-.15-9.94-2.78-16.09-1.49-7.68,1.58-9.17-1.44-7.53-8.35-.09-9.47-3.46-17.67-6.48-26.38l-1.73,2.34c.62.91.62,2.02,0,3.02l-2.4,3.61c-.76,1.11-2.17,1.58-3.37,1.06-1.64,2.17-3.31,4.28-4.95,6.39-.38.44-1.06.62-1.58.23l-2.55-1.73c-.91,2.49,0,8.5.76,10.99.62,1.73,1.35,3.37,2.64,4.81,4.07,4.95-1.35,7.21-5.95,6.39-4.37-.82-5.42-4.81-6.62-9.17-.91-3.17-1.82-6.54-4.13-8.73-2.93-2.7-4.95-8.79.67-9.32,1.2-.15,2.26-.76,3.17-1.49l-2.17-1.49c-.53-.38-.67-1.11-.38-1.64l4.04-6.36-.67-.53c-1.29-.82-1.64-2.55-.82-3.84l2.4-3.69c.91-1.29,2.64-1.58,3.9-.76l.53.29,1.58-2.55-.29-.15c-1.29-.91-1.58-2.64-.76-3.9l2.4-3.61c.91-1.29,2.64-1.58,3.9-.76,1.44-2.26,2.84-4.51,4.37-6.77.38-.53,1.11-.67,1.64-.38l1.73,1.2c.53-.53.97-.97,1.49-1.49l-4.31-6.68c-.82-1.29,1.11-2.55,2.02-1.29l4.81,7.45c.29.44.29,1.2-.15,1.58-.67.62-1.2,1.11-1.82,1.82l10.32,6.77c5.77-7.45,5.33-10.17,1.88-18.29h0ZM28.48,49.96l2.84-4.37-4.57-3.02c-.15-.09-.44-.09-.53.15l-2.49,3.61c-.09.23,0,.44.15.62l4.6,3.02ZM33.38,46.94l-2.93,4.28,10.76,7.06c.15.15.44.09.53-.09l2.49-3.61c.09-.23.09-.44-.15-.62l-10.7-7.03ZM44.37,51.3l1.82-2.4-14.01-9.17-1.58,2.55c4.6,2.93,9.47,5.95,13.78,9.03h0ZM38.33,59.28l-13.01-8.56-3.43,5.31,12.4,8.5,4.04-5.25h0ZM35.87,39.26l2.84-4.37-4.57-2.99c-.15-.15-.44-.09-.53.15l-2.49,3.61c-.09.23,0,.44.15.53,1.52,1.06,3.08,2.02,4.6,3.08h0ZM40.73,36.27l-2.93,4.28,10.76,7.06c.15.15.44.09.53-.09l2.4-3.66c.15-.15.15-.38-.09-.53,0,0-10.67-7.06-10.67-7.06ZM50.14,49.72c3.08,9.09,6.62,17.44,6.62,27.38,0,4.13-3.17,7.45,4.66,5.86,6.92-1.44,10.08,1.29,16.53,1.44,1.88.09,3.31-.15,4.13-.53-.38-.15-1.06-.38-1.88-.44-5.48-.97-8.35-3.22-12.19-7.01-8.12-7.88-5.1-33.97-8.12-46.25-.67.97-1.44,2.11-2.34,3.31l1.2.82c.53.38.67,1.11.23,1.64l-5.16,6.71c.29.82.15,1.82-.29,2.49l-2.4,3.69c-.32.35-.62.64-1,.88h0ZM52.16,40.93l4.22-5.42-15.18-10-3.69,5.72c4.81,3.17,10.08,6.39,14.66,9.7h0ZM29.33,64l-5.48-3.75c-1.44,1.35-3.08,2.34-4.95,2.49-3.17.29-.53,4.13.67,5.28,2.84,2.64,3.9,6.3,4.81,9.85.97,3.61,1.88,6.83,4.81,7.45,2.17.38,6.01.29,3.61-2.49-1.44-1.82-2.34-3.69-3.02-5.63-.91-2.87-2.11-10.55-.44-13.19h0Z"/>
    </symbol>

    <!-- SPORT -->
    <symbol id="sport" viewBox="0 0 100 100">
        <path fill="currentColor" d="M17.24,91.42c-.84,0-1.71,0-2.49-.23-2.17-.61-3.53-2.13-3.98-4.37-.61-3.04-1.16-6.15-1.71-9.15-.19-1.1-.39-2.17-.58-3.27-.06-.36-.1-.71-.16-1.1-.03-.16-.03-.32-.06-.49v-4.72c.06-.45.13-.91.16-1.36.13-.97.26-2.01.39-3.01.87-5.63,2.72-11,4.43-15.53.32-.84.65-1.65.97-2.46.74-1.81,1.52-3.72,1.97-5.66.84-3.49,1.46-7.21,1.84-11.13.42-4.43.74-8.93,1.04-13.26.13-1.84.23-3.65.39-5.5.06-.97.58-1.65,1.29-1.65.13,0,.26.03.39.06.68.19,1,.71.97,1.49l-.03.55c-.13,2.49-.26,5.11-.42,7.63-.16,2.2-.32,4.4-.52,6.57-.1,1.04-.16,2.07-.26,3.11v.81l2.26.36c1.49.26,2.98.49,4.43.74.61.1,1.23.19,1.81.29,1.23.19,2.52.39,3.75.61.13.03.23.03.29.03.52,0,.74-.32.91-.65l.39-.78c3.14-6.31,6.37-12.81,8.34-19.76.19-.65.68-1.07,1.26-1.07.13,0,.29.03.42.06.78.26,1.07.91.84,1.78-1.65,5.76-4.14,11.19-6.34,15.75-1.91,3.95-3.75,7.83-5.4,11.77-.74,1.81-1.07,3.78-1.36,5.56-.39,2.49.32,4.82,2.17,6.92.45.52.91,1.04,1.33,1.55l.58.68c1.39,1.62,2.04,3.78,1.81,6.08-.19,2.33-1.33,4.53-2.94,5.89-1.13.94-2.46,1.81-4.27,2.81-4.88,2.72-5.47,3.2-6.44,8.93-.45,2.85-.81,5.79-1.13,9.32-.32,3.49-2.72,5.76-6.08,5.76h-.26ZM30.83,50.47c-.13.1-.26.23-.39.32-.26.23-.52.45-.78.68-.58.55-1.13,1.07-1.68,1.58-6.4,6.5-11.74,13.71-16.11,19.92-.61.87-.78,1.65-.58,2.68.42,2.04.81,4.14,1.2,6.18.13.74.29,1.52.42,2.26.06.39.16.81.23,1.2.45,2.72,1.33,3.46,4.08,3.46,2.26,0,3.46-1.1,3.65-3.4.36-4.08.84-8.44,1.94-12.68.71-2.72,2.17-4.69,4.43-6.02.49-.29.97-.55,1.46-.81.78-.42,1.58-.87,2.33-1.36l.06-.03c1.07-.68,2.17-1.39,3.07-2.3,2.01-2.04,2.17-5.43.39-7.73-.71-.94-1.46-1.81-2.23-2.72-.36-.42-.71-.84-1.07-1.26l-.23-.26-.19.26ZM14.62,52.22c-1.62,4.63-3.3,10.19-3.65,16.37l-.06,1.04,9.7-12.55-5.82-5.34-.16.49ZM22.03,54.8l.97-.87c1.39-1.23,2.72-2.43,4.04-3.59.06-.06.13-.16.16-.23.03-.03.03-.06.06-.13l.29-.49h-11.32l5.79,5.3ZM20.41,31.81c-.49,4.37-1.29,9.51-3.62,14.46l-.23.45h13.36l-.03-.36c-.42-4.43,1.07-8.47,2.75-12.52l.16-.39-12.32-2.01-.06.36Z"/>
        <path fill="currentColor" d="M63.37,91.45h-20.25c-4.3,0-7.7-3.4-7.76-7.7-.03-1.23-.03-2.81.13-4.4.16-1.71.81-3.33,1.91-4.63,6.82-8.22,9.74-18.18,11.71-26.88.74-3.33,1.29-6.76,1.78-10.09.23-1.52.49-3.11.74-4.66,1.46-8.67,3.07-16.24,4.98-23.13.03-.13.06-.26.13-.36.23-.61.71-1,1.26-1,.13,0,.23.03.36.03.74.19,1.1.84.94,1.58-.26,1.07-.52,2.13-.81,3.17-.26.97-.52,1.97-.74,2.98-1.75,7.25-3.23,15.07-4.75,25.33-.29,1.88-.65,3.75-1.04,5.6-.16.84-.32,1.68-.49,2.52-.03.13-.06.29-.1.45l-.13.61,14.17,3.23.19-.52c.06-.19.16-.39.23-.55l4.92-12.87c.06-.19.16-.39.23-.58.26-.52.71-.84,1.23-.84.16,0,.32.03.49.1.68.26,1,.97.74,1.68-.74,2.01-1.52,4.04-2.26,6.02l-8.44,21.87c-.42,1.13-.45,2.1-.06,2.88s1.2,1.36,2.39,1.71c6.76,1.97,14.59,4.3,22.25,6.57,2.91.87,4.79,3.69,4.4,6.53-.42,3.07-3.01,5.27-6.11,5.27-7.41.03-14.81.06-22.22.06ZM38.01,78.9l-.03.29v4.17c.03,3.23,2.2,5.43,5.43,5.43h41.89c2.01,0,3.53-1.16,3.75-2.91.26-1.71-.84-3.23-2.72-3.82-1.23-.39-2.46-.74-3.69-1.1-2.85-.84-5.76-1.71-8.6-2.65-.39-.13-.71-.19-1.04-.19-.68,0-1.23.29-1.78.91-2.04,2.26-4.63,3.36-7.92,3.36h-.26c-1.75-.03-3.65-.03-5.98-.03h-8.96c-.45,0-1.07,0-1.68-.06-2.81-.29-5.34-1.46-7.57-3.4l-.1-.1-.74.1ZM39.79,76.09l.16.19s.06.1.13.13c.1.13.26.26.39.42,2.01,1.88,4.43,2.85,7.25,2.94h.19c1.04,0,1.78-.32,2.49-1.07,1.58-1.62,3.23-3.23,4.82-4.82.68-.65,1.33-1.29,2.01-1.94.13-.13.26-.26.39-.42l.23-.26.39-.42-13.1-2.62-5.34,7.86ZM53.44,79.74h6.76c1.71,0,3.11,0,4.4-.06,1.65-.03,3.17-.78,4.46-2.2l.29-.32-.39-.19c-.97-.45-2.01-.71-3.01-.97-2.1-.52-4.11-1.04-5.4-3.11l-.23-.36-6.89,7.21ZM46.22,65.77l13.65,2.72,4.53-11.84-13.78-3.17-4.4,12.29Z"/>
        <path fill="currentColor" d="M77.47,27.89c-.52,0-.94-.19-1.16-.55-.26-.36-.29-.87-.1-1.42.45-1.23.94-2.49,1.42-3.72.23-.55.42-1.1.65-1.65l1.29-3.4c.94-2.46,1.88-4.92,2.85-7.41.29-.74.74-1.16,1.33-1.16.1,0,.23,0,.36.03.39.1.68.32.84.65.19.36.19.87,0,1.39-.87,2.33-1.78,4.66-2.68,7.02l-1.84,4.59c-.58,1.55-1.2,3.07-1.78,4.63-.26.65-.65.97-1.16,1h0Z"/>
        <path fill="currentColor" d="M74.75,34.59c-.71,0-1.29-.61-1.29-1.33s.58-1.29,1.29-1.29h.06c.71.03,1.29.65,1.26,1.36,0,.65-.61,1.26-1.33,1.26h0Z"/>
    </symbol>

    <!-- KINE G -->
    <symbol id="generale" viewBox="0 0 100 100">
        <path fill="currentColor" d="M43.39,19.3c5.04,0,9.15-4.1,9.15-9.15S48.43,1,43.39,1s-9.15,4.11-9.15,9.15,4.11,9.15,9.15,9.15ZM43.39,3.68c3.57,0,6.47,2.9,6.47,6.47s-2.9,6.47-6.47,6.47-6.47-2.9-6.47-6.47,2.9-6.47,6.47-6.47ZM85.18,41.48h-24.59l-1.7-15.32c-.25-2.27-1.37-4.3-3.16-5.74-1.79-1.43-4.02-2.09-6.29-1.84-2.27.25-4.31,1.38-5.74,3.17-1.43,1.79-2.08,4.02-1.83,6.29l.6,5.39c.08.73.74,1.27,1.48,1.18.73-.08,1.27-.74,1.18-1.48l-.6-5.39c-.36-3.23,1.98-6.14,5.2-6.5,1.55-.18,3.09.27,4.32,1.26,1.23.98,2,2.39,2.18,3.94l1.67,15.03h-6.57c1.09-1.32,2.11-2.89,2.34-4.3l1.32-8.08c.12-.73-.38-1.42-1.11-1.54-.73-.12-1.42.38-1.54,1.11l-1.32,8.08c-.2,1.2-1.95,3.45-3.68,5.1-.01.01-.02.02-.04.03-.2.19-.4.37-.59.54l-5.54,4.8h0s-2.91,2.53-2.91,2.53c-.77.67-1.98.95-2.8.18-.43-.4-.68-1.02-.66-1.59.01-.3.1-.71.45-1l12.16-9.99c.25-.21.42-.5.47-.82l1.26-7.75c.12-.73-.38-1.42-1.11-1.54-.73-.12-1.42.38-1.54,1.11l-1.18,7.25-7.18,5.89H14.82c-2.24,0-4.06,1.82-4.06,4.05s1.82,4.06,4.06,4.06h4.5v48.06c0,.74.61,1.34,1.34,1.34s1.34-.6,1.34-1.34v-48.06h6.5c.74,0,1.34-.6,1.34-1.34s-.6-1.34-1.34-1.34h-13.68c-.76,0-1.38-.62-1.38-1.38s.62-1.38,1.38-1.38h20.07l-1.34,1.1c-.88.73-1.39,1.79-1.43,2.98-.05,1.35.51,2.7,1.5,3.64.86.8,1.93,1.21,3.05,1.2,1.16,0,2.35-.44,3.35-1.3l2.52-2.18h16.15c-.05.75-.21,1.61-.45,2.54-.02.06-.04.12-.05.19-1.17,4.47-4.09,10.53-6.21,14.93-.8,1.66-1.49,3.11-2.01,4.27-.09.19-.12.4-.11.61l1.02,18.65h-3.73l-3.68-18.87,2.45-18.15c.1-.73-.41-1.41-1.15-1.51s-1.41.41-1.51,1.15l-2.48,18.37c-.02.14-.02.29.01.44l3.62,18.57h-2.11c-3.62,0-5.86,5.62-6.11,6.26-.16.41-.1.87.14,1.23.25.36.66.58,1.09.59l15.15.13h.01c.37,0,.71-.15.97-.41.26-.27.39-.63.37-1l-.3-5.53s0-.07-.01-.11l-1.07-19.62c.48-1.08,1.12-2.39,1.84-3.9,1.14-2.37,2.44-5.07,3.6-7.76l-.16,7.48c0,.2.04.4.12.59l7.76,16.97-4.33,2.09-4.87-9.23c-.35-.66-1.16-.91-1.81-.56-.65.35-.91,1.16-.56,1.81l4.82,9.14-.41.2c-3.27,1.58-2.84,7.61-2.77,8.29.04.44.29.82.67,1.04.21.12.44.18.67.18.2,0,.39-.04.57-.13l12.66-5.96c.66-.31.95-1.1.65-1.77l-2.3-5.03-8.18-17.89.31-15.18c.28-1.12.46-2.16.52-3.11h16.64s0,48.06,0,48.06c0,.74.6,1.34,1.34,1.34s1.34-.6,1.34-1.34v-48.06h4.5c2.24,0,4.06-1.82,4.06-4.06,0-2.24-1.82-4.06-4.05-4.06h0ZM39.56,96.2c.86-1.49,1.95-2.73,2.75-2.73h8.73l.15,2.84-11.63-.11ZM58.45,95.22c.12-1.71.57-3.31,1.29-3.66l7.11-3.43,1.18,2.58-9.57,4.51ZM85.18,46.92h-39.56l2.85-2.47s.12-.11.32-.29h36.39c.76,0,1.38.62,1.38,1.38,0,.76-.62,1.38-1.38,1.38h0Z"/>
    </symbol>

    <!-- PILATES -->
    <symbol id="pilates" viewBox="0 0 100 100">
        <path fill="currentColor" d="M98.82,59.83c-.46-1.63-1.94-2.74-3.6-2.71l-8.95.28-23.78-10.55c-2.49-1.14-5.35-.65-7.29,1.29l-4.58,4.55-1.85,1.81c-.12-.52-.22-1.05-.31-1.57-.86-4.89-2.21-18.21-2.21-22.85,0-.37.12-.65.37-.89l1.32-1.35c1.57-1.6,1.66-4.06.18-5.75l-9.6-11.17c-1.26-1.48-3.54-1.66-5.08-.4-1.32,1.08-1.72,2.89-1.02,4.4l3.84,8.09v43l-12.12,7.54c-1.91,1.17-3.2,2.92-4.06,4.83-.98,2.21-.98,6.8,1.11,9.54,1.97,2.58,4.89,4.34,8.31,4.34h24.92c2.46,0,4.49-2,4.49-4.49s-2-4.49-4.49-4.49h-10.55c3.54-2.09,7.44-4.43,8.24-4.98l.09-.09c2.25-1.88,4.15-5.04,2.4-10.18l6.86-9.38,13.63,4.8c.98.37,1.11.43,1.32.92l.71,1.75c.65,1.66,2.21,2.68,3.91,2.68.4,0,.83-.06,1.26-.18l14.09-4.31c1.88-.55,2.95-2.55,2.43-4.46h0ZM50.41,75.92c-.92.62-5.6,3.41-12.33,7.38h-6.92c-.8,0-1.48.65-1.48,1.48s.65,1.48,1.48,1.48h23.28c.83,0,1.54.68,1.54,1.54s-.68,1.54-1.54,1.54h-24.92c-3.23,0-6-2.09-6.89-5.2-.89-3.11.37-6.34,3.11-8.06l12.83-7.97c.43-.28.71-.74.71-1.26V22.65c0-.22-.06-.43-.15-.65l-4-8.37c-.12-.28-.03-.62.22-.83.12-.12.31-.15.46-.15.18,0,.37.06.49.22l9.63,11.13c.43.52.4,1.26-.06,1.75l-1.32,1.35c-.8.8-1.23,1.85-1.23,2.98,0,4.74,1.38,18.36,2.25,23.35.89,5.11,2.37,9.01,4.52,11.97,3.94,6.31,2.09,9.01.34,10.52h0ZM95.56,61.5l-14.09,4.31c-.65.18-1.32-.12-1.57-.77l-.71-1.75c-.71-1.78-2.03-2.25-3.08-2.61l-14.67-5.17c-.62-.22-1.29,0-1.69.52l-6.52,8.92c-.22-.37-.43-.77-.68-1.17-.03-.03-.03-.06-.06-.09-1.17-1.6-2.12-3.54-2.86-5.91l3.08-2.98,4.61-4.55c1.08-1.05,2.58-1.32,4-.68l24.08,10.7c.22.09.43.12.65.12l9.29-.28c.31,0,.58.22.68.52.06.34-.15.77-.46.86h0Z"/>
        <path fill="currentColor" d="M10.7,75.92c3.66,0,6.64,2.98,6.64,6.64s-2.98,6.64-6.64,6.64-6.64-2.98-6.64-6.64,2.98-6.64,6.64-6.64M10.7,72.85c-5.35,0-9.72,4.34-9.72,9.72s4.34,9.72,9.72,9.72,9.72-4.34,9.72-9.72-4.34-9.72-9.72-9.72h0Z"/>
    </symbol>

    <!-- JAMBE CASSEE -->
    <symbol id="01" viewBox="0 0 100 100">
        <path fill="currentColor" d="M51.42,82.96c-.8-.33-.98-.98-1-1.78-.1-2.34-.21-4.69-.93-6.93-.49-1.55-1.13-3.04-1.67-4.59-1.91-5.33-1.96-10.69-.23-16.08.05-.21.13-.39.18-.62-1.73,0-3.38.08-5.02,0-9.38-.46-17.73-3.61-25.07-9.46-.23-.21-.41-.46-.62-.72v-.77c5.02-7.86,10.05-15.69,15.07-23.55.08-.13.15-.26.23-.39.75-1.16,1.16-1.29,2.37-.67,2.91,1.42,5.82,2.83,8.71,4.28,6.39,3.14,12.78,6.26,19.14,9.4,5.33,2.65,8.35,8.24,7.81,14.17-.36,3.92-.57,7.83-.85,11.75-.1,1.44-.21,2.91-.31,4.35,0,.15-.03.31-.05.44-.13.75-.67,1.21-1.37,1.16-.72-.05-1.24-.64-1.19-1.42.15-2.42.33-4.84.49-7.24.23-3.27.54-6.54.67-9.82.21-4.84-1.78-8.68-6.11-10.9-9.1-4.64-18.32-9.07-27.54-13.6-1,1.57-2.01,3.14-3.04,4.74,1.24.72,2.45,1.42,3.63,2.11,3.35,1.93,6.72,3.86,10.07,5.82.36.21.62.21.98.03,2.16-1.13,4.77-.36,5.98,1.73,1.24,2.11.57,4.74-1.52,6.08-.31.18-.44.39-.44.75-.05,2.45-2.04,4.38-4.48,4.38s-4.41-1.91-4.53-4.35c0-.26-.15-.59-.36-.7-4.66-2.73-9.35-5.41-14.02-8.12-.03-.03-.08-.03-.21-.08-2.06,3.22-4.12,6.47-6.31,9.87,1.96,1.19,3.84,2.45,5.82,3.5,6.67,3.53,13.81,5.02,21.33,4.64.77-.05,1.55-.13,2.29-.21,1.31-.13,2.01.77,1.44,1.98-1.55,3.48-2.19,7.11-1.91,10.9.18,2.24.62,4.41,1.52,6.47,1.37,3.17,2.27,6.42,2.4,9.87,0,.31.05.59.08.93h1.42v-7.76c0-.62.21-1.11.67-1.52.93-.77,1.83-1.6,2.76-2.42.72-.62,1.11-.67,1.91-.23.93.52,1.88,1.06,2.81,1.55.59.31.85.77.85,1.47-.03,2.73,0,5.44,0,8.17v.72h1.96c.13-1.7.23-3.38.36-5.08.05-.67.08-1.34.13-1.98.08-.77.64-1.31,1.34-1.26.72.03,1.26.59,1.21,1.39-.18,2.76-.39,5.51-.57,8.27-.05.59-.41.95-.85,1.26-5.05.05-10.25.05-15.43.05ZM27.69,30.16c.28.15.49.28.72.41,4.66,2.71,9.35,5.41,14.02,8.09,1.19.7,1.21.77,1.03,2.16-.1.82.21,1.47.9,1.93.67.44,1.52.39,2.16-.1.62-.46.9-1.24.7-2.01-.36-1.39-.15-1.73,1.21-2.11.77-.23,1.31-.88,1.42-1.67.08-.75-.33-1.52-.98-1.88-.7-.39-1.55-.28-2.16.23-.98.8-1.19.82-2.27.18-4.66-2.71-9.35-5.41-14.02-8.09-.21-.1-.41-.23-.64-.36-.7,1.06-1.37,2.11-2.09,3.22ZM56.96,80.33h3.86v-8.06c0-.15-.13-.36-.28-.44-.46-.28-.95-.54-1.47-.82-.64.57-1.29,1.11-1.88,1.65-.1.1-.21.28-.21.44-.05,2.4-.03,4.79-.03,7.24Z"/>
        <path fill="currentColor" d="M53.74,57.29v-6.44c0-.36-.08-.57-.41-.77-2.11-1.31-2.78-3.94-1.57-6.05,1.24-2.14,3.84-2.89,6.08-1.7.31.15.52.15.8,0,2.22-1.19,4.84-.44,6.08,1.7,1.21,2.11.54,4.74-1.57,6.05-.36.23-.41.46-.41.82v11.57c0,1.47-.93,2.01-2.19,1.31-.44-.23-.9-.44-1.29-.72-.64-.49-1.11-.39-1.62.18-.52.54-1.11,1-1.67,1.49-.44.39-.93.54-1.47.26-.54-.26-.75-.72-.75-1.31v-6.39ZM60.15,60.72v-10.98c0-1,.23-1.31,1.16-1.65.88-.31,1.37-.95,1.39-1.8.03-.77-.46-1.52-1.19-1.83-.77-.33-1.57-.13-2.22.54-.77.8-1.42.8-2.19,0-.64-.67-1.44-.88-2.22-.54-.72.31-1.21,1.06-1.19,1.83.03.82.54,1.49,1.42,1.8.95.33,1.16.64,1.16,1.65v11.13c.05.05.08.13.13.18,1.08-1.67,2.34-1.47,3.74-.33Z"/>
        <path fill="currentColor" d="M77.78,33c-.49-.26-1.11-.49-1.62-.85-.52-.33-.93-.31-1.37.1-.28.23-.59.44-.9.62-.62.33-1.34.15-1.7-.39-.36-.54-.28-1.26.26-1.67.72-.57,1.47-1.13,2.27-1.57.33-.18.88-.15,1.26-.03.49.15.93.52,1.42.72.23.08.57.05.8-.05.39-.21.75-.52,1.13-.75.62-.39,1.31-.23,1.73.31.41.54.33,1.29-.21,1.73-.75.57-1.52,1.11-2.32,1.62-.18.08-.41.1-.75.21Z"/>
        <path fill="currentColor" d="M77.37,36.37c.31.21.77.36.98.67.75,1.13,1.62,1.57,2.96.98.72-.31,1.39.18,1.6.88.18.64-.18,1.34-.9,1.55-.82.26-1.65.46-2.47.67-.54.13-1,0-1.39-.44-.18-.21-.41-.39-.54-.62-.46-.82-1.11-.9-1.93-.57-.23.1-.49.15-.75.18-.59.08-1.19-.31-1.37-.85-.21-.59.03-1.31.59-1.52,1.03-.36,2.06-.59,3.22-.93Z"/>
        <path fill="currentColor" d="M66.57,28.28c.03-.1.08-.31.18-.52.31-.7.64-1.37.95-2.04.26-.57.67-.93,1.29-.85,1.39.15,2.34-.21,2.78-1.7.21-.7,1.03-.9,1.65-.62.62.31.9,1,.62,1.67-.33.8-.72,1.6-1.11,2.4-.23.46-.62.7-1.13.7h-.05c-1.37-.18-2.37.18-2.76,1.67-.18.64-.9.85-1.49.67-.62-.15-.98-.64-.93-1.39Z"/>
        <path fill="currentColor" d="M68.81,67.5c0,.7-.54,1.26-1.24,1.29s-1.31-.59-1.31-1.29.62-1.29,1.31-1.29c.7.03,1.24.59,1.24,1.29Z"/>
        <path fill="currentColor" d="M39.65,64.43c-1.65.41-2.5-.44-2.99-1.88-.18-.57-.54-.8-1.13-.72-.33.05-.7.03-1.03,0-.72-.05-1.21-.54-1.24-1.24-.03-.67.44-1.26,1.13-1.31.93-.05,1.88-.1,2.81.03.39.05.9.44,1.06.8.52,1.26,1.19,2.04,2.71,1.78.7-.13,1.26.57,1.26,1.26s-.57,1.26-1.31,1.29c-.41,0-.82,0-1.26,0Z"/>
        <path fill="currentColor" d="M36.27,67.47c.33.23.77.36,1.03.67.8,1.03,1.67,1.31,2.89.67.72-.39,1.47,0,1.73.72.26.7-.08,1.37-.85,1.67-.75.28-1.52.54-2.29.82-.52.18-.98.08-1.37-.28-.36-.33-.75-.64-1.06-1.03-.31-.36-.62-.36-1-.18-.33.15-.72.28-1.08.39-.75.23-1.42-.1-1.67-.8-.23-.67.08-1.34.85-1.62.9-.33,1.83-.64,2.83-1.03Z"/>
        <path fill="currentColor" d="M40.52,74.48c.67.15,1.24.26,1.8.44.49.15.8.08,1.08-.36.21-.31.49-.62.75-.88.49-.52,1.24-.57,1.75-.15.54.44.67,1.19.21,1.78-.54.7-1.11,1.37-1.7,2.04-.36.39-.8.54-1.34.39-.03,0-.05,0-.05-.03-1.24-.49-2.27-.46-3.07.88-.39.67-1.26.64-1.8.18-.52-.44-.59-1.21-.13-1.8.54-.67,1.08-1.34,1.65-1.96.26-.23.62-.36.85-.52Z"/>
    </symbol>

    <!-- JAMBE ATELE -->
    <symbol id="02" viewBox="0 0 100 100">
        <path fill="currentColor" d="M58.61,9.12c-.78-1.66,1.73-2.78,2.51-1.05,2.44,5.66,4.78,10.17,2.17,16.45,4.88,14.11.71,46.46,9.5,54.97,3.83,3.73,7.12,6.44,12.51,7.29,8.17,1.22,6.1,6.88-2.95,6.71-7.12-.17-11.5-3.22-18.62-1.73-8.89,1.83-10.61-1.66-8.72-9.67-.1-10.95-4-20.45-7.49-30.52l-2,2.71c.71,1.05.71,2.34,0,3.49l-2.78,4.17c-.88,1.29-2.51,1.83-3.9,1.22-1.9,2.51-3.83,4.95-5.73,7.39-.44.51-1.22.71-1.83.27l-2.95-2c-1.05,2.88,0,9.83.88,12.72.71,2,1.56,3.9,3.05,5.56,4.71,5.73-1.56,8.34-6.88,7.39-5.05-.95-6.27-5.56-7.66-10.61-1.05-3.66-2.1-7.56-4.78-10.11-3.39-3.12-5.73-10.17.78-10.78,1.39-.17,2.61-.88,3.66-1.73l-2.51-1.76c-.61-.44-.78-1.29-.44-1.9l4.71-7.29-.78-.61c-1.49-.95-1.9-2.95-.95-4.44l2.78-4.27c1.05-1.49,3.05-1.83,4.51-.88l.61.34,1.83-2.95-.34-.17c-1.49-1.05-1.83-3.05-.88-4.51l2.78-4.17c1.05-1.49,3.05-1.83,4.51-.88,1.66-2.65,3.29-5.26,5.05-7.87.44-.61,1.29-.78,1.9-.44l2,1.39c.61-.61,1.12-1.12,1.73-1.73l-5.02-7.73c-.95-1.49,1.29-2.95,2.34-1.49l5.56,8.61c.34.51.34,1.39-.17,1.83-.78.71-1.39,1.29-2.1,2.1l11.9,7.83c6.71-8.61,6.21-11.77,2.2-21.16h0ZM25.1,50.9l3.29-5.05-5.29-3.49c-.17-.1-.51-.1-.61.17l-2.88,4.17c-.1.27,0,.51.17.71l5.32,3.49ZM30.77,47.41l-3.39,4.95,12.45,8.17c.17.17.51.1.61-.1l2.88-4.17c.1-.27.1-.51-.17-.71l-12.38-8.14ZM43.45,52.46l2.1-2.78-16.18-10.61-1.83,2.95c5.32,3.39,10.95,6.88,15.91,10.45h0ZM36.5,61.68l-15.06-9.9-4,6.17,14.35,9.83,4.71-6.1ZM33.65,38.52l3.29-5.05-5.29-3.46c-.17-.17-.51-.1-.61.17l-2.88,4.17c-.1.27,0,.51.17.61,1.73,1.22,3.56,2.37,5.32,3.56h0ZM39.28,35.06l-3.39,4.95,12.45,8.17c.17.17.51.1.61-.1l2.78-4.27c.17-.17.17-.44-.1-.61l-12.34-8.14ZM50.16,50.63c3.56,10.51,7.66,20.18,7.66,31.67,0,4.78-3.66,8.61,5.39,6.78,8-1.66,11.67,1.49,19.13,1.66,2.17.1,3.83-.17,4.78-.61-.44-.17-1.22-.44-2.17-.51-6.34-1.12-9.67-3.73-14.11-8.11-9.39-9.12-5.9-39.31-9.39-53.51-.78,1.12-1.66,2.44-2.71,3.83l1.39.95c.61.44.78,1.29.27,1.9l-6,7.73c.34.95.17,2.1-.34,2.88l-2.78,4.27c-.34.44-.68.78-1.12,1.05h0ZM52.5,40.46l4.88-6.27-17.57-11.56-4.27,6.61c5.56,3.66,11.67,7.39,16.96,11.23h0ZM26.05,67.14l-6.34-4.34c-1.66,1.56-3.56,2.71-5.73,2.88-3.66.34-.61,4.78.78,6.1,3.29,3.05,4.51,7.29,5.56,11.39,1.12,4.17,2.17,7.9,5.56,8.61,2.51.44,6.95.34,4.17-2.88-1.66-2.1-2.71-4.27-3.49-6.51-1.02-3.32-2.41-12.21-.51-15.26h0Z"/>
    </symbol>

    <!-- GENOU -->
    <symbol id="03" viewBox="0 0 100 100">
        <path fill="currentColor" d="M30.48,36.89c4.75-3.93,5.69-4.43,17.15-10.35l.06-.03c5.16-2.67,12.25-6.33,22.72-11.9.32-.18.53-.44.64-.76.12-.32.06-.7-.09-1-.23-.44-.67-.7-1.17-.7-.21,0-.41.06-.62.15-10.46,5.54-17.56,9.2-22.72,11.87l-.06.03c-11.43,5.92-12.6,6.54-17.59,10.67-4.07,3.37-6.13,12.78-8.5,23.71-1.99,9.17-4.28,19.58-8.06,27.44-.15.32-.18.67-.06,1,.12.32.35.59.67.76.18.09.38.12.56.12.5,0,.97-.29,1.17-.73,3.93-8.15,6.21-18.73,8.27-28.05,2.2-10,4.25-19.43,7.62-22.22Z"/>
        <path fill="currentColor" d="M87.69,39.88c-.23-.38-.64-.59-1.08-.59-.26,0-.5.09-.73.21-4.92,3.22-15.74,8.03-23.71,11.11-4.48,1.73-8.18,5.33-10.67,10.43-2.34,4.84-5.33,10.26-7.94,15.04l-.03.06c-2.26,4.13-4.19,7.71-5.39,10.2-.32.64-.03,1.44.62,1.76.18.09.38.12.56.12.5,0,.97-.29,1.17-.73,1.17-2.46,3.11-6.01,5.36-10.11,2.64-4.84,5.6-10.29,8-15.18,1.52-3.11,4.37-7.24,9.23-9.12,6.24-2.4,18.35-7.53,24.21-11.37.29-.21.5-.5.56-.82.09-.35.03-.7-.15-1Z"/>
        <path fill="currentColor" d="M33.32,46.77c.12,2.34,1.91,5.1,6.51,5.16,2.4.03,3.55.91,4.28,1.7,1.14,1.2,2.55,1.88,3.96,1.88h.15c1.26-.03,2.43-.62,3.28-1.61.79-.91.94-2.05,1.11-3.17v-.03c.18-1.17.35-2.37,1.32-3.25,4.63-4.04,12.6-8.35,21.02-12.93,2.34-1.26,4.84-2.61,7.39-4.02.32-.18.56-.47.64-.82.09-.35.03-.73-.15-1.03l-5.54-9.09c-.18-.29-.5-.53-.85-.62-.35-.06-.7,0-1.03.21l-2.34,1.61c-10.58,7.3-25.03,17.32-31.39,18.08-5.66.64-8.53,4.57-8.35,7.91Z"/>
        <path fill="currentColor" d="M40.18,69.66c2.55-2.23,3.81-4.6,3.75-7.01-.06-2.37-1.47-4.28-2.76-5.31-2.14-1.67-4.43-2.58-6.42-2.58-.82,0-1.58.15-2.29.47-2.29,1.06-3.55,3.63-3.75,7.68-.44,8.82-9,23.19-9.09,23.33-.23.41-.23.91-.03,1.32.23.41.67.67,1.14.67h9.35c.62,0,1.14-.44,1.29-1.06.03-.12,2.55-11.84,8.79-17.53ZM38.42,67.73c-5.63,5.1-8.38,14.07-9.32,17.67-.03.12-.15.21-.26.21h-5.33c-.09,0-.21-.06-.23-.15-.06-.09-.06-.21,0-.29,2.32-4.19,7.71-14.77,8.09-22.13.15-2.99.91-4.81,2.23-5.42.35-.15.73-.23,1.17-.23,1.38,0,3.17.76,4.81,2.05.76.62,1.7,1.85,1.73,3.31.06,1.61-.91,3.28-2.87,4.98Z"/>
    </symbol>

    <!-- COURSE -->
    <symbol id="course" viewBox="0 0 100 100">
        <path fill="currentColor" d="M72.94,93.48c-.35,0-.7-.03-1.04-.09-.79-.13-1.57-.42-2.25-.83-.35-.21-.68-.46-.98-.73-.3-.27-.58-.57-.84-.9-.27-.35-.5-.71-.68-1.07-.1-.2-.19-.4-.28-.61-.05-.11-.08-.21-.12-.32-.04-.11-.07-.21-.1-.32-.59-1.83-1.11-3.65-1.71-5.81l-.41-1.47c-.41-1.47-.81-2.93-1.24-4.4-.14-.47-.24-.94-.34-1.41-.11-.53-.22-1.06-.36-1.58-.07-.25-.14-.5-.22-.74-.09-.25-.17-.49-.28-.72-.11-.23-.23-.46-.37-.67-.14-.21-.3-.41-.48-.58-.17-.17-.38-.33-.62-.5-.23-.15-.47-.28-.72-.4-.27-.12-.54-.23-.81-.32-.3-.1-.6-.19-.9-.27-.34-.09-.68-.17-1.01-.26l-1.25-.29c-.43-.1-.85-.2-1.28-.31-.47-.12-.94-.24-1.41-.36l-.33-.09-.26.25c-.9,1.34-1.77,2.54-2.64,3.65-.45.58-.92,1.15-1.4,1.72-.24.28-.48.56-.72.84-.22.25-.45.5-.69.74-.46.47-.93.9-1.39,1.27-.5.4-.97.74-1.45,1.03-.49.3-1.01.56-1.52.78-.52.22-1.05.4-1.59.54-.54.14-1.11.23-1.68.29-.4.04-.8.06-1.2.06-.2,0-.4,0-.6-.01-.31-.01-.63-.04-.94-.08l-2.11-.28c-1.87-.25-3.73-.51-5.6-.78-4.05-.58-7.72-1.12-11.2-1.66l-1.52-.24-.12-.02c-.18-.04-.36-.08-.55-.13-.36-.1-.69-.21-1-.35-.31-.13-.61-.29-.9-.48-.28-.18-.55-.38-.8-.6-.26-.23-.49-.47-.7-.73-.21-.26-.42-.55-.61-.86-.19-.31-.36-.64-.51-.99-.1-.22-.18-.44-.26-.67-.11-.32-.19-.66-.26-.99-.12-.63-.16-1.28-.11-1.92.05-.62.18-1.22.39-1.78.2-.55.48-1.08.83-1.57.17-.24.36-.47.57-.69.21-.22.43-.42.66-.61.24-.19.49-.36.76-.52.26-.15.53-.29.82-.4.59-.24,1.22-.4,1.87-.47.17-.02.34-.03.51-.04.1,0,.2,0,.3,0h.22c.14,0,.28.01.43.02.16,0,.3.02.44.03.64.05,1.25.12,1.86.22.73.11,1.45.23,2.17.36.54.1,1.08.19,1.63.28,2.43.39,5.04.81,7.63,1.3l1.53.29c.36.07.73.14,1.1.2l.25.04.22-.17c2.67-2.72,4.83-5.64,6.62-8.99l.09-.09v-.21c.01-.25.03-.51.06-.77.04-.44.11-.87.2-1.31.09-.44.19-.88.32-1.31.13-.44.27-.88.43-1.32l4.41-11.3,1.47-3.59-.77-.05-2.89.28c-.24.02-.48.07-.69.16-.22.09-.42.21-.59.37-.09.08-.18.17-.25.26-.16.19-.29.4-.42.61-.15.26-.29.52-.42.78-.1.2-.2.4-.29.59-.25.5-.49,1.02-.73,1.54l-.59,1.29c-.28.62-.57,1.25-.86,1.87-.24.5-.48,1.01-.73,1.5-.13.25-.25.5-.39.75l-.2.36-.17.3c-.21.36-.46.7-.72,1-.25.3-.53.58-.84.83-.58.49-1.23.87-1.93,1.13-.68.26-1.4.4-2.14.41h0c-.4,0-.75-.03-1.09-.08-.36-.06-.73-.15-1.09-.27-.36-.12-.72-.28-1.05-.47-.17-.1-.34-.2-.51-.31-.14-.1-.28-.19-.41-.3-.48-.38-.91-.83-1.28-1.35-.37-.52-.67-1.07-.9-1.66-.23-.6-.38-1.22-.45-1.83-.03-.31-.04-.63-.03-.94.01-.32.05-.63.1-.93.03-.16.07-.31.11-.46.04-.15.09-.3.14-.45l.09-.23c.03-.06.06-.14.09-.21.09-.2.58-1.21.58-1.21.84-1.73,1.75-3.54,2.8-5.51.97-1.82,1.96-3.63,2.96-5.44.25-.46.84-1.52.88-1.59l.14-.23c.13-.21.28-.42.45-.63.32-.39.68-.75,1.05-1.04.38-.29.8-.55,1.24-.77.44-.21.92-.39,1.42-.53.26-.08.52-.13.77-.19.26-.05.52-.09.78-.13l3.56-.35,1.54-.14s10.64-.92,10.92-.95c.38-.04.76-.08,1.14-.12.51-.06,2.3-.25,2.3-.25l-.28-.69-.06-.1c-.43-.74-.75-1.53-.97-2.36-.21-.82-.32-1.66-.32-2.5,0-.85.12-1.68.33-2.49.22-.82.55-1.61.99-2.36.33-.56.71-1.09,1.15-1.58.43-.48.9-.91,1.4-1.28.99-.74,2.14-1.3,3.33-1.62.82-.22,1.67-.33,2.52-.33.39,0,.78.02,1.17.07.61.07,1.23.21,1.85.41.62.21,1.22.47,1.78.79.57.33,1.1.71,1.59,1.13.47.42.91.88,1.29,1.39.75.98,1.32,2.12,1.65,3.31.33,1.19.43,2.46.3,3.69-.07.63-.2,1.25-.4,1.85-.2.63-.47,1.23-.78,1.79-.39.7-.87,1.35-1.42,1.93-.54.57-1.15,1.08-1.82,1.51-.66.42-1.38.77-2.13,1.02-.76.25-1.55.42-2.35.48l-.83.07.31.71,5.48,8.53.5-.48.06-.08c.29-.36.58-.73.86-1.1l.33-.43c.39-.5.74-.96,1.12-1.4.18-.22.37-.44.56-.65l.57-.61c.37-.4.76-.79,1.16-1.17.43-.41.83-.74,1.22-1.02.29-.21.58-.4.89-.56.46-.24.94-.43,1.43-.55.47-.12.96-.18,1.45-.19h0c.52,0,.97.05,1.42.16.47.11.93.27,1.37.49.45.23.87.5,1.26.82.4.33.75.69,1.06,1.08.31.4.58.82.79,1.26.21.44.37.9.47,1.38.1.46.15.95.14,1.42-.01.48-.08.97-.22,1.46-.03.11-.07.24-.11.36-.03.1-.06.19-.1.27-.05.14-.1.26-.16.39-.11.26-.23.52-.36.77-.13.26-.27.5-.41.74-.15.25-.3.48-.46.72-.16.23-.33.46-.51.68-.09.11-.39.47-.39.47l-.39.44c-.44.5-.89,1-1.34,1.5-.91,1-1.83,1.99-2.77,2.97-.93.98-1.89,1.95-2.85,2.9l-.24.23-.25.23-.23.2-.24.19c-.3.24-.62.47-.96.68-.34.21-.67.39-.98.53-.32.15-.66.28-1,.39-.35.11-.69.19-1.03.25-.35.06-.71.1-1.06.11-.1,0-.19,0-.29,0-.62,0-1.25-.07-1.87-.21-.73-.16-1.47-.42-2.21-.78-.18-.09-.37-.18-.55-.28-.16-.09-.3-.17-.45-.26-.23-.14-.46-.28-.69-.43-.48-.31-.95-.63-1.42-.95l-.46-.31c-.4-.27-.79-.54-1.19-.8l-.52-.35-.31.53-3.73,8.95.39.28c.35.16.6.28.85.41l1.11.52.15.06s.08.04.15.06c.06.03.13.05.22.08l3.09,1.11,2.79.99.31.11.41.16c.29.12.57.25.84.4.27.15.53.3.79.48.24.17.48.35.7.54.22.19.43.4.63.62.39.43.73.92,1,1.45.07.13.13.27.19.41.06.13.11.27.17.41l.15.45.38,1.29c.95,3.18,2.06,6.94,3.12,10.74.5,1.8,1,3.61,1.48,5.41.24.9.48,1.79.71,2.69l.45,1.76.03.15c.08.4.12.82.11,1.23-.01.42-.07.83-.17,1.22-.1.4-.24.8-.42,1.18-.17.36-.39.73-.64,1.09-.51.7-1.13,1.3-1.85,1.79-.36.24-.75.46-1.14.63-.44.19-.9.34-1.36.43-.41.09-.82.13-1.24.14h-.17ZM54.1,32.72c.06,0,.12,0,.18,0,.06,0,.12.01.18.03.1.02.2.05.28.08.11.04.19.08.25.12.09.06.16.11.22.18.07.07.13.14.18.22.06.09.11.19.16.29.04.11.08.22.11.34l.02.13s0,.09,0,.13c0,.08-.01.17-.04.24-.05.18-.15.36-.28.52-.15.18-.34.33-.56.46-.12.07-.25.13-.38.18-.14.05-.28.09-.42.12-.17.04-.33.06-.49.08-.17.02-.34.04-.51.05l-.48.03c-.21.01-.42.03-.63.05l-.28.03-.17.25c-.65,1.63-1.26,3.17-1.88,4.71-.98,2.45-1.97,4.91-2.92,7.37l-.57,1.49c-.19.5-.73,1.92-.81,2.13-.08.22-.16.43-.23.65-.05.13-.09.27-.14.41-.04.14-.09.28-.13.42-.16.55-.28,1.09-.35,1.61-.08.51-.12,1.03-.12,1.54s.04.98.12,1.45c.08.48.2.94.35,1.37.15.43.35.86.59,1.26.25.41.52.8.81,1.14.29.34.64.68,1.03,1.01.38.31.79.61,1.24.88.46.28.94.53,1.44.75.5.22,1.03.42,1.63.61l.76.24c1.35.42,2.7.84,4.06,1.23,1.69.49,3.21.88,4.64,1.2.28.06.55.13.82.23.24.08.47.18.7.3.21.11.4.23.59.37.17.13.33.27.48.43.16.16.29.34.42.52.13.19.24.4.35.61.11.23.21.47.29.71.09.27.17.55.24.83.48,1.97,1.05,4.04,1.82,6.72.36,1.25.73,2.5,1.11,3.76.32,1.09.65,2.18.96,3.28.12.4.23.79.36,1.19.13.4.28.81.45,1.19l.1.22c.08.17.12.26.17.35.1.18.2.35.31.51.22.32.46.59.73.81.27.23.58.4.9.51.31.12.65.18,1.01.19h.04c.21,0,.35,0,.49-.02.09,0,.18-.02.27-.03.11-.02.21-.04.3-.06.38-.09.74-.23,1.05-.41.34-.2.62-.43.86-.7.24-.28.44-.6.59-.95.15-.37.25-.75.29-1.16,0-.11.02-.21.02-.31,0-.11,0-.21,0-.32,0-.23-.02-.44-.04-.66-.04-.4-.11-.82-.21-1.28-.04-.2-.1-.41-.15-.61-.05-.19-.1-.37-.15-.55l-.5-1.83-2.05-7.3c-.59-2.13-1.29-4.66-1.95-7.28-.1-.38-.22-.76-.35-1.13-.12-.34-.27-.69-.45-1.04-.18-.35-.36-.66-.56-.94-.2-.29-.42-.57-.67-.83-.24-.25-.5-.5-.78-.72-.28-.22-.58-.43-.89-.61-.32-.19-.66-.36-1-.51-.37-.16-.74-.29-1.11-.41-1.45-.45-2.99-.96-5-1.66-1.01-.35-2.03-.71-3.04-1.08l-2.32-.82c-.38-.13-.76-.26-1.14-.4-.27-.1-.55-.2-.82-.31-.08-.04-.19-.09-.28-.16-.08-.06-.16-.12-.23-.2-.06-.06-.11-.14-.16-.22-.04-.07-.08-.15-.11-.24-.06-.15-.08-.33-.08-.51,0-.18.04-.37.1-.53.07-.18.16-.34.27-.48.12-.14.25-.26.4-.34.08-.04.16-.08.25-.11.08-.03.17-.05.27-.06.05,0,.1,0,.15,0,.05,0,.1,0,.14,0,.11.01.23.03.34.07.26.08.52.18.79.27l.29.1c.2.07.4.14.6.21l.41.14.27-.36.98-2.15c.09-.22.19-.44.28-.66.83-1.98,5.09-12.12,5.09-12.12.12-.29.24-.58.37-.87.08-.17.16-.34.25-.51l.12-.2s.06-.09.1-.14c.07-.09.14-.16.21-.22.08-.06.16-.11.23-.14.08-.04.17-.07.27-.09.09-.02.19-.03.29-.03s.22,0,.33.03c.07.01.13.03.2.04.07.02.13.04.2.06.1.04.2.09.29.15.09.06.16.12.22.18.06.06.11.13.16.22.04.07.07.15.09.24.02.09.04.19.04.3,0,.09,0,.19-.02.28-.54,1.31-1.76,4.27-1.76,4.27l.29.29c.5.39.96.75,1.43,1.09.42.31.85.6,1.28.89.39.25.78.5,1.19.72.36.2.73.39,1.11.56.34.15.69.29,1.05.4.33.11.67.19.99.24.31.05.63.08.95.08h.19c.31-.02.62-.06.91-.12.29-.06.58-.16.87-.28.29-.12.57-.26.84-.42.28-.16.55-.35.81-.55.28-.21.54-.44.79-.68.07-.06.14-.13.21-.2l1.11-1.12c1.23-1.27,2.53-2.65,4.09-4.35l1.5-1.66.22-.25c.2-.24.39-.49.57-.74.18-.26.34-.52.49-.8.15-.27.28-.55.39-.84.1-.25.18-.52.22-.8.04-.3.04-.57,0-.82-.02-.23-.08-.48-.17-.73-.08-.23-.2-.47-.35-.7-.15-.22-.32-.43-.51-.62-.1-.1-.2-.19-.3-.27-.12-.09-.22-.17-.34-.25-.22-.15-.44-.27-.66-.37-.23-.1-.46-.18-.7-.23-.21-.04-.41-.06-.62-.06h-.11c-.22,0-.47.04-.72.11-.23.07-.46.16-.7.29-.13.07-.24.14-.34.21l-.17.12-.19.15c-.23.18-.45.39-.67.6-.21.21-.42.44-.62.66l-.29.33-.68.81c-.45.54-.89,1.08-1.34,1.62l-.36.44c-.51.62-1.01,1.23-1.52,1.84-.22.26-.77.9-.77.9l-.11.12c-.12.13-.25.27-.39.39-.11.1-.23.2-.35.29-.09.07-.2.14-.3.19-.08.04-.17.08-.26.1-.06.02-.13.03-.21.03-.06,0-.12,0-.18-.02-.07-.02-.14-.04-.21-.09-.09-.05-.18-.11-.26-.18-.04-.04-.09-.08-.14-.12-.05-.04-.08-.07-.11-.11-.09-.09-.14-.15-.2-.21l-.18-.21c-.12-.15-.23-.31-.35-.48-.12-.18-.24-.36-.36-.54l-1.18-1.78c-1.13-1.71-2.19-3.39-3.17-4.99-.21-.34-.42-.67-.65-.99-.23-.32-.48-.63-.74-.93-.25-.28-.5-.55-.77-.8-.27-.25-.56-.5-.85-.72-.58-.44-1.2-.82-1.85-1.12-.3-.14-.63-.27-1.02-.4-.35-.12-.7-.21-1.06-.29-.38-.08-.76-.14-1.14-.18-.38-.04-.76-.07-1.15-.07h-.18c-.16,0-.33,0-.49,0-.22,0-.44.02-.66.04-.46.03-2.79.2-2.79.2-2.06.16-4.12.33-6.18.51,0,0-4.26.36-6.17.52-.44.04-.86.11-1.25.23-.39.11-.77.26-1.11.45-.36.19-.69.41-.98.66-.3.25-.58.53-.83.84-.25.3-.48.64-.69.99-.05.08-.1.17-.15.27-.07.13-.33.61-.33.61l-.84,1.58c-1.11,2.1-2.22,4.21-3.3,6.33-.31.61-.63,1.22-.93,1.83-.31.65-.57,1.23-.79,1.79-.06.15-.12.31-.17.46-.03.1-.07.2-.1.31-.05.18-.08.38-.1.58-.03.38,0,.77.09,1.14.08.35.23.7.43,1.03.2.32.44.61.72.86.29.26.61.46.95.62.33.15.67.25,1.03.3.14.02.29.03.44.03.2,0,.4-.02.59-.05.35-.07.68-.18.99-.35.3-.16.6-.38.87-.65.13-.13.26-.28.38-.43.12-.16.23-.32.33-.48.2-.32.38-.65.55-.99l.99-2.09c.96-2.03,1.96-4.13,2.9-6.21.07-.16.15-.31.24-.46.09-.15.18-.29.29-.43.09-.13.2-.24.3-.35s.22-.21.34-.3c.12-.1.25-.18.38-.25.06-.03.13-.07.19-.1l.22-.09.26-.09.15-.04c.14-.04.22-.05.3-.07l.24-.04,2.64-.3c.87-.1,1.75-.19,2.62-.28.87-.09,1.75-.18,2.62-.27.8-.08,2.83-.28,2.83-.28.06,0,.12,0,.18,0h.03ZM17.53,65.75c-1.81,0-3.17,1.02-3.65,2.72-.56,2.03.5,4.08,2.53,4.87.43.17.92.29,1.46.38l3.85.58c5.25.79,10.49,1.58,15.74,2.34.39.06.78.09,1.16.09,1.53,0,2.87-.46,3.99-1.37,2.15-1.76,4.15-4.02,6.13-6.92l.66-.99-.54-.24c-.25-.11-.5-.22-.75-.35-.4-.2-.79-.41-1.17-.64-.37-.23-.73-.47-1.08-.73-.36-.27-.69-.55-.99-.83-.34-.32-.64-.62-.89-.93-.55-.65-1.01-1.33-1.38-2.04l-.42-.82-.46.81c-1.37,2.42-3.05,4.5-5.16,6.33-.46.37-.9.54-1.45.54-.07,0-.14,0-.22,0-.73-.05-1.47-.15-2.21-.29-3.71-.75-7.51-1.34-11.19-1.91-1.04-.16-2.09-.33-3.13-.49-.28-.04-.55-.07-.82-.07ZM67.09,9.39c-.29,0-.57.02-.86.05-.87.11-1.73.39-2.49.82-.79.44-1.5,1.05-2.06,1.77-.56.72-.98,1.56-1.21,2.43-.22.85-.29,1.76-.18,2.62.11.87.39,1.73.82,2.49.44.79,1.05,1.5,1.77,2.06.72.56,1.56.98,2.43,1.21.57.15,1.17.23,1.76.23.29,0,.57-.02.86-.05.87-.11,1.73-.39,2.49-.82.79-.44,1.5-1.05,2.06-1.77.56-.72.98-1.56,1.21-2.43.22-.84.29-1.75.18-2.62-.11-.87-.39-1.73-.82-2.49-.44-.79-1.05-1.5-1.77-2.06-.72-.56-1.56-.98-2.43-1.21-.57-.15-1.17-.23-1.76-.23Z"/>
    </symbol>

    <!-- NEURO -->
    <symbol id="neuro" viewBox="0 0 100 100">
        <path fill="currentColor" d="M80.44,48.79s.04-.12.08-.15c2.98-2.55,4.95-6.11,5.91-10.51,1.89-8.89-1.28-17.62-8.7-23.96-5.95-5.14-13.99-8.08-22.11-8.08-5.95,0-11.67,1.58-16.46,4.56-6.69,4.17-11.05,10.51-11.98,17.35-.54,4.52.58,8.46,3.21,11.44,2.82,3.17,7.3,5.02,12.25,5.02.54,0,1.08-.04,1.62-.08.04,0,.12.04.15.08s.04.12.04.15c-.39,2.4,1.04,3.94,2.82,5.95,2.51,2.78,5.64,6.22,4.6,13.45-.08.5.08,1,.39,1.39s.77.58,1.24.58c.27,0,.5-.08.73-.19l7-2.67c1.31-.5,1.08-1.89.89-3.01,0-.08,0-.15.08-.19s.15-.04.19,0c2.74,1.43,5.33,2.16,7.73,2.16,2.71,0,5.06-.97,6.84-2.74,2.4-2.4,3.56-6.03,3.48-10.55ZM47.9,44.85c.66-2.09,5.14-4.6,7.46-4.6.19,0,.35,0,.5.04.12.04.23.04.35.04.97,0,1.47-.81,1.58-1.55.08-.77-.27-1.62-1.31-1.86-.5-.08-1-.15-1.47-.15-2.4,0-4.1,1.16-5.76,2.28-1.31.89-2.59,1.74-4.1,1.97-.77.12-1.47.12-2.24.12-.08,0-.15-.04-.19-.12s0-.15.04-.19c2.51-2.51,2.36-3.83,2.05-6.49-.08-.23-.08-.54-.12-.89-.04-.27-.04-.58-.12-.89,0-.04,0-.12.04-.15s.08-.08.12-.08c2.43-.23,5.57-.93,9.04-1.97.08-.04.15,0,.19.04.77.77,2.86.93,4.56,1.08,1.7.15,2.78.27,3.21.7.31.31.73,1.24,1.39,2.71.46,1.04.93,2.09,1.28,2.63.04.04.04.12.04.15-1.47,5.6-3.17,8.93-8.31,11.52-.04.04-.08.04-.12,0-3.21-.73-5.95-1.39-7.38-2.47-.73-.43-.97-1.08-.73-1.86ZM30.97,33.37s.08-.04.12-.04.08,0,.08.04c1.31.73,2.16,1.12,2.94,1.12.81,0,1.55-.46,2.86-1.55l.31-.23c.39-.31.85-.66,1.35-1,.04-.04.08-.04.15-.04.27.04.62.15,1,.23s.81.19,1.31.31c.08.04.15.12.15.19,0,.46.04.89.08,1.31.04.35.04.7.04,1,.23,2.09.15,2.9-3.17,5.68-.04.04-.12.04-.19.04l-.35-.12c-3.44-1.2-5.8-3.52-6.76-6.76,0-.08.04-.15.08-.19ZM37.62,28.38c-.7.39-1.2.85-1.66,1.24-.73.62-1.28,1.08-2.16,1.08-.46,0-.97-.15-1.58-.43-.97-.46-1.62-.93-1.74-1.2,0-.04-.04-.08-.04-.12.31-3.56,2.05-7.38,4.6-10.28.31-.43.58-.62.81-.62.5,0,.66.81.73,1.16.54,2.86,3.17,4.95,6.3,4.95.43,0,.85-.04,1.24-.12.31-.04.62-.08.89-.08,1.82,0,3.13,1.12,4.44,2.2.46.39.97.81,1.47,1.16.08.04.08.12.08.19s-.08.12-.15.15l-.23.08c-2.36.66-4.75,1.31-7.19,1.31-1.43,0-2.71-.23-3.9-.7-.81-.46-1.08-.54-1.89,0ZM52.15,9.64l.31.23c5.1,3.79,9.51,7.07,11.17,11.29.04.04,0,.12,0,.15-.04.04-.08.08-.15.08-.85.08-1.51.43-2.16,1.78,0,0,0,.04-.04.04-.27.31-.66.5-1.08.5-.62,0-1.08-.39-1.24-.93-.77-3.56-1.74-3.86-3.09-4.29-.43-.15-.77-.31-1.31-1.2-1.08-1.82-2.59-2.71-4.68-2.71-2.55,0-5.41,1.31-7.96,2.51-.66.31-1.28.58-1.86.85-.04.04-.12.04-.15,0s-.08-.08-.12-.12c-.23-.89-.54-1.58-1.35-2.2-.04-.04-.08-.08-.08-.15s.04-.12.08-.15c3.79-3.01,8.5-4.99,13.64-5.68,0-.04.04,0,.08,0ZM61.12,28.19c0,.08,0,.12-.08.15-.04.04-.08.04-.15.04-.66-.12-1.35-.19-2.05-.27s-1.39-.15-2.05-.27c-.08,0-.12-.04-.15-.12-.12-.19-.19-.43-.39-.62-.04-.04-.08-.12-.04-.15,0-.04.04-.12.08-.15.31-.19.66-.54.97-.85.04-.04.08-.04.15-.04.04,0,.08,0,.12.04l.15.12c.85.5,1.58.97,2.47.97.23,0,.43-.04.66-.08.04,0,.12,0,.15.04.04.04.08.08.08.15l.08,1.04ZM42.76,20.38c.19-.08.46-.19.73-.35h.04c1.58-.73,4.21-1.97,6.11-1.97.97,0,1.66.31,2.01.97,1.2,2.09,2.28,2.47,3.21,2.67h.04l.04.04c.27.12.39.27.62.97,0,.08,0,.12-.04.19-1.35,1.55-2.2,2.01-2.94,1.47l-.04-.04c-2.09-3.17-5.14-3.83-7.3-3.83-1.08,0-1.93.15-2.32.27-.08.04-.19-.04-.23-.12-.04-.15,0-.23.08-.27ZM61.35,49.87c2.78-2.24,4.21-5.1,5.49-8.66.04-.08.08-.12.15-.12h.04c.08,0,.12.04.15.08,2.55,3.32,2.98,5.1.7,9.08-.04.04-.08.08-.15.08-2.13.12-4.25.08-6.22-.12-.08,0-.15-.08-.15-.15-.08-.08-.08-.15,0-.19ZM66.6,28.85s-.08.08-.15.08c-1.47,0-1.86-.23-1.93-.31-.04-.04-.04-.08-.04-.12-.04-.43-.23-2.63-.35-3.52,0-.08.04-.15.12-.19.27-.12.5-.12.85-.12.08,0,.15.04.19.12.5,1.12.81,2.16,1.04,2.98v.04c.08.31.19.58.27.85.04.08.04.15,0,.19ZM82.91,28.19s-.08.08-.12.08c-1.39.19-2.43.77-3.59,1.35-.66.35-1.31.7-2.05.97-2.78,1.08-3.83.62-6.07-.54l-.31-.15s-.04-.04-.08-.04c-.27-.35-.77-1.78-1.43-3.75-.35-.97-.66-1.89-.81-2.28-.04-.08,0-.19.08-.23.77-.39,1.28-.77,1.35-1.08,0,0,0-.04.04-.04.31-.5.66-.73,1.12-.77h.08c1.43-.23,3.09-.46,5.1-3.98.04-.04.08-.08.15-.08.04,0,.08,0,.12.04,3.36,3.01,5.49,6.49,6.42,10.36.04.04,0,.12,0,.15ZM72.17,49.37s-.08-.15-.04-.19c2.01-4.44.43-6.45-3.4-11.32l-.23-.31c-1.28-1.62-1.97-2.9-2.9-5.02-.04-.08-.04-.15.04-.19.04-.04.08-.08.15-.08h.04c.19.04.39.08.58.12.66.12,1.35.23,1.74.04.08-.04.15-.04.23.04,1.35,1.24,2.9,1.74,4.52,2.24,3.01.97,6.15,1.97,8.27,8,0,.04,0,.12-.04.15-2.16,3.4-4.95,5.49-8.73,6.61-.12,0-.19,0-.23-.08ZM79.01,33.45c.54-.23,1.08-.5,1.62-.77.85-.46,1.74-.89,2.71-1.12h.04s.08,0,.12.04.08.08.08.15c.12,2.24-.04,4.1-.46,6.03,0,.08-.08.15-.19.15-.08,0-.12-.04-.15-.12-1.12-2.05-2.36-3.09-3.83-4.02-.08-.04-.08-.12-.08-.19.04-.08.08-.12.15-.15ZM57.48,9.48c5.91.35,11.67,2.36,16.16,5.68.08.04.12.15.04.23-1.43,2.63-2.28,2.86-3.17,2.86l-.15.04c-1.12.19-2.13.39-3.13,2.09-.04.08-.12.08-.19.08h0c-.08,0-.15-.04-.15-.12-2.24-4.68-4.72-6.65-8.19-9.43-.46-.35-.93-.73-1.39-1.12-.08-.04-.08-.15-.08-.23.12,0,.19-.08.27-.08v-.19.19ZM58.68,59.88l.12.39c.04.08-.04.19-.12.23l-2.9,1.12s-.12,0-.19-.04-.08-.08-.08-.15c0-3.44-.81-6.45-2.51-9.2-.04-.08-.04-.15,0-.23.04-.04.08-.08.15-.08h.04c3.75.93,8.15,1.89,12.56,1.89,4.14,0,7.73-.85,11.01-2.55.08-.04.15-.04.19,0,.08.04.08.12.08.19-.5,4.6-3.13,7.19-7.11,7.19-2.59,0-5.57-1.12-8.15-3.09-.54-.39-1.12-.62-1.66-.62-.62,0-1.12.27-1.51.77-.73,1.12-.27,2.9.08,4.17Z"/>
        <path fill="currentColor" d="M92.19,35.73c1.12-10.44-1.39-18.71-7.38-24.7-5.49-5.49-13.8-8.85-24.58-10.01-1.66-.19-3.29-.27-4.91-.27-8.85,0-16.62,2.74-23.11,8.15-6.15,5.1-10.9,12.52-13.76,21.45-1.28,4.14-1.08,8.27.54,11.13.04.08.04.15,0,.19-1.12,1.82-3.59,5.49-5.53,8.43-.15.19-.31.43-.5.66-1.16,1.55-3.05,4.17-3.25,5.76-.35,3.52,3.63,4.91,5.41,5.33.04,0,.12.04.12.12.04.04.04.12,0,.15-1,2.13-.7,2.9,2.05,4.87.08.08.12.19.04.27-1.51,2.28-.81,4.17,2.28,6.26.04.04.08.12.08.15-.19,3.59.46,6.11,2.01,7.77,1.43,1.51,3.63,2.24,6.72,2.24,1.39,0,3.01-.15,4.87-.46,1.74-.31,3.4-.58,4.91-.58,3.56,0,5.68,1.58,6.72,5.02.73,2.36,1.28,4.87,1.82,7.34.27,1.2.54,2.43.81,3.63.19.81.77,1.28,1.55,1.28h0c.54,0,1.12-.27,1.43-.66.31-.39.43-.89.27-1.43-.31-1.31-.62-2.63-.89-3.94-.5-2.4-1.04-4.87-1.78-7.23-1.62-5.06-4.79-7.34-10.24-7.34-1.47,0-3.13.15-5.29.5-1.58.27-3.29.54-4.72.54-1.74,0-2.9-.39-3.71-1.28-.97-1.04-1.39-2.74-1.24-5.26v-.43c.04-.89.04-1.66-.81-2.16-.04-.04-.12-.08-.19-.12l-.08-.04c-.77-.43-2.2-1.2-2.13-1.93.04-.31.27-.54.77-.7h4.29c1.12,0,1.62-.89,1.62-1.7s-.5-1.7-1.62-1.7h-4.1s-.08,0-.12-.04c-1.12-.73-1.7-1.16-1.82-1.74-.08-.5.19-1,.77-1.86.31-.5.31-1.16.04-1.7-.27-.5-.73-.85-1.31-.89-.39-.04-3.75-.35-4.99-1.62-.39-.39-.15-.73.12-1.12.04-.04.08-.08.08-.15.27-.43.62-.93,1-1.55.5-.77,1.04-1.62,1.66-2.59,3.67-5.26,5.8-8.5,6.3-9.62.27-.54.35-1.35-.19-1.89-1.93-2.4-1.28-6.88-.58-9.16C27.14,14.01,39.51,4.07,55.51,4.07c1.39,0,2.86.08,4.29.23,20.87,2.24,30.92,12.99,28.99,31.11-.62,6.03-2.67,12.87-6.11,20.33-6.11,13.02-.35,27.75,4.72,40.74.31.81.66,1.62.97,2.43.39.97,1.16,1.08,1.47,1.08.58,0,1.12-.31,1.47-.73.19-.31.43-.81.12-1.55-.27-.7-.54-1.35-.81-2.09l-.12-.31c-4.6-11.75-10.36-26.32-4.83-38.22,3.52-7.34,5.76-14.73,6.53-21.37Z"/>
    </symbol>

    <!-- NUTRITION -->
    <symbol id="nutrition" viewBox="0 0 100 100">
        <path fill="currentColor" d="M85.89,50.64c-2.15-2.02-5.24-3.69-8.69-3.92,1.27-2.07,2-4.89,2.3-8.61.03-.4-.1-.8-.36-1.1-.26-.3-.64-.49-1.04-.52-2.53-.16-4.72.03-6.6.54v-14.02c0-2.49-2.03-4.52-4.52-4.52h-9.48v-.51c0-1.93-1.57-3.49-3.49-3.49h-6.66c-.7-3.42-3.73-6-7.35-6s-6.65,2.58-7.35,6h-6.66c-1.93,0-3.49,1.57-3.49,3.49v.51h-9.48c-2.49,0-4.52,2.03-4.52,4.52v63.97c0,2.49,2.03,4.52,4.52,4.52h46.98c.06,0,.12,0,.19-.02.17.01.33.02.5.02,1.15,0,2.22-.3,3.17-.87,1.04.63,2.02.84,2.78.87h.18c1.08,0,2.16-.33,3.19-.96.98.63,2.1.96,3.31.96.84,0,1.71-.15,2.61-.46,2.29-.79,5.18-3.58,8.59-8.31,2.87-3.98,6.25-9.28,6.83-14.97.73-7.06-1.22-13.15-5.46-17.12h0ZM76.31,39.44h.04c-.8,6.53-3.06,8.77-9.05,9.03-.04-.2-.08-.4-.13-.61-.14-1.58-.03-3.93,1.41-5.7,1.45-1.8,4.05-2.72,7.73-2.72h0ZM25.5,17.98c0-.27.22-.49.49-.49h8.01c.83,0,1.5-.67,1.5-1.5,0-2.48,2.02-4.5,4.5-4.5s4.5,2.02,4.5,4.5c0,.83.67,1.5,1.5,1.5h8.01c.27,0,.49.22.49.49v6.01c0,.27-.22.49-.49.49h-28.02c-.27,0-.49-.22-.49-.49v-6.01ZM11.5,86.97V23.01c0-.84.68-1.52,1.52-1.52h9.48v2.51c0,1.93,1.57,3.49,3.49,3.49h28.01c1.93,0,3.49-1.57,3.49-3.49v-2.51h9.48c.84,0,1.52.68,1.52,1.52v14.98c0,.1.01.2.03.3-.89.55-1.67,1.21-2.31,2-.85,1.05-1.37,2.21-1.69,3.36-.56-.42-1.23-.78-2.04-1.07-.78-.27-1.64.14-1.91.92-.27.78.14,1.64.92,1.91,1.59.56,2.31,1.53,2.7,3.02.01.07.01.13.02.2-6.23-3.78-12.49-1.38-16.11,2.02-4.25,3.99-6.19,10.07-5.47,17.12.58,5.69,3.96,10.99,6.83,14.97,1.77,2.45,3.39,4.37,4.87,5.77H13.02c-.84-.02-1.52-.7-1.52-1.54h0ZM88.37,67.45c-.51,4.98-3.62,9.84-6.28,13.52-4.14,5.73-6.37,6.96-7.14,7.23-.7.24-1.6.41-2.47.18.01-.02.03-.03.04-.05.53-.63.45-1.58-.18-2.11s-1.58-.45-2.11.18c-.83.98-2.12,2.14-3.5,2.09-1.01-.03-2.02-.71-2.98-2.02-.49-.67-1.43-.81-2.1-.32-.67.49-.81,1.43-.32,2.1.04.05.08.09.12.14-.85.2-1.72.03-2.4-.2-.77-.27-3-1.5-7.14-7.23-2.65-3.68-5.77-8.53-6.28-13.52-.63-6.1.98-11.29,4.54-14.63,2.73-2.56,6.99-4.27,11.4-2.23-.68.42-1.35.91-1.98,1.5-.6.57-.63,1.52-.07,2.12.57.6,1.52.63,2.12.07,3.18-2.98,7.11-2.96,10.8.07.28.23.62.34.95.34.43,0,.86-.19,1.16-.55.53-.64.43-1.59-.21-2.11-.66-.54-1.33-1-2.01-1.39,4.45-2.12,8.76-.4,11.51,2.18,3.54,3.35,5.15,8.54,4.54,14.64h0ZM27.5,37.99c0-.83.67-1.5,1.5-1.5h29c.83,0,1.5.67,1.5,1.5s-.67,1.5-1.5,1.5h-29c-.83,0-1.5-.67-1.5-1.5ZM37.5,55.99c0,.83-.67,1.5-1.5,1.5h-7c-.83,0-1.5-.67-1.5-1.5s.67-1.5,1.5-1.5h7c.83,0,1.5.67,1.5,1.5ZM37.5,73.99c0,.83-.67,1.5-1.5,1.5h-7c-.83,0-1.5-.67-1.5-1.5s.67-1.5,1.5-1.5h7c.83,0,1.5.67,1.5,1.5ZM23.5,37.99c0,.83-.67,1.5-1.5,1.5h-2c-.83,0-1.5-.67-1.5-1.5s.67-1.5,1.5-1.5h2c.83,0,1.5.67,1.5,1.5ZM23.5,55.99c0,.83-.67,1.5-1.5,1.5h-2c-.83,0-1.5-.67-1.5-1.5s.67-1.5,1.5-1.5h2c.83,0,1.5.67,1.5,1.5ZM23.5,73.99c0,.83-.67,1.5-1.5,1.5h-2c-.83,0-1.5-.67-1.5-1.5s.67-1.5,1.5-1.5h2c.83,0,1.5.67,1.5,1.5Z"/>
    </symbol>

    <!-- HOOK -->
    <symbol id="hook" viewBox="0 0 100 100">
        <path fill="red" d="M98.1,63.8c-3.2,0-8.4,1.1-14.5,2.4c-6.8,1.5-14.4,3.1-19,2.9c-8.4-0.5-15.1-2.6-21.6-4.6
        c-5-1.6-10-3.1-15.4-3.9c0.1-0.8,0.3-1.6,0.6-2.4c2.2-6.1,9-9.9,15.2-8c2.9,0.8,5.4,2.8,7.9,5.5c2.9,3.2,6.6,8.9,12.3,7.6
        c1.9-0.4,3.4-1.5,4.7-2.8c0.7-0.7,2.6-2.4,3.4-3.1c2.9-2.7,10.4-9.6,13.4-12.3c5.3-5.2-2.3-13-7.6-7.8c0,0-12.9,13.4-15.8,16.5
        c-4.4-4.4-9.7-10.1-16.4-11.3c-9.8-2.3-20.4,4.1-23.1,13.7c-0.4,1.3-0.6,2.6-0.7,3.9C15.7,60,9.2,60.9,1.4,63.6
        c-0.9,0.3-1.3,1.2-1,2.1c0.3,0.9,1.2,1.3,2.1,1c7.4-2.5,13.6-3.4,19.1-3.3c0.8,6.8,5.3,12.9,11,16.5c2.6,1.7,5.4-2,2.9-4
        c-4-3-7.2-7.4-7.7-12.1c5.1,0.7,9.7,2.2,14.5,3.7c6.7,2.1,13.6,4.3,22.4,4.8c0.4,0,0.7,0,1.1,0c5,0,11.9-1.5,18.7-3
        c5.6-1.2,10.9-2.4,13.7-2.3c0.9,0,1.7-0.7,1.7-1.6C99.8,64.6,99,63.8,98.1,63.8z"/>
        <path fill="red" d="M35.3,68.3c-0.9-0.2-1.8,0.4-2,1.3c-0.2,0.9,0.4,1.8,1.3,2c0.4,0.1,10.3,2.4,8.9,12.5
        c-0.1,0.9,0.5,1.7,1.4,1.9c0.1,0,0.2,0,0.2,0c0.8,0,1.5-0.6,1.6-1.4C48.2,74,39.9,69.3,35.3,68.3z"/>
    </symbol>


    <!-- ACUPUNCTURE -->
    <symbol id="acupuncture" viewBox="0 0 100 100">
        <path fill="currentColor" d="M98.1,63.8c-3.2,0-8.4,1.1-14.5,2.4c-0.9,0.2-1.7,0.4-2.6,0.6l3.2-24.9c0.7-0.2,1.4-0.5,2-0.9
        c1.1-0.8,1.7-2,1.9-3.3l1.6-12.3c0.2-1.3-0.2-2.6-1-3.7c-0.8-1.1-2-1.7-3.3-1.9c-1.3-0.2-2.6,0.2-3.7,1c-1.1,0.8-1.7,2-1.9,3.3
        l-1.6,12.3c-0.2,1.3,0.2,2.6,1,3.7c0.5,0.6,1.1,1.1,1.7,1.4l-3.4,26c-4.9,1-9.7,1.8-13,1.6c-4.8-0.3-9-1.1-13-2.1V28.7
        C53.6,28,55,26.1,55,24V11.5c0-2.8-2.2-5-5-5c-2.8,0-5,2.2-5,5V24c0,2.2,1.4,4,3.3,4.7v37.4c-1.8-0.5-3.6-1.1-5.3-1.6
        c-7.6-2.4-14.8-4.7-24-4.3l-3-23.1c0.7-0.3,1.2-0.8,1.7-1.4c0.8-1.1,1.2-2.4,1-3.7L17,19.6c-0.2-1.3-0.9-2.5-1.9-3.3
        c-1.1-0.8-2.4-1.2-3.7-1c-1.3,0.2-2.5,0.9-3.3,1.9c-0.8,1.1-1.2,2.4-1,3.7l1.6,12.3c0.2,1.3,0.9,2.5,1.9,3.3c0.6,0.5,1.3,0.8,2,0.9
        l3,22.9c-4.3,0.4-9,1.4-14.3,3.3c-0.9,0.3-1.3,1.2-1,2.1c0.3,0.9,1.2,1.3,2.1,1c5.1-1.7,9.6-2.7,13.7-3.1l1.7,13
        c0.1,0.8,0.8,1.4,1.6,1.4c0.1,0,0.1,0,0.2,0c0.9-0.1,1.5-1,1.4-1.9l-1.7-12.8c8.6-0.3,15.5,1.9,22.6,4.2c2.4,0.8,4.8,1.5,7.3,2.2
        c4.4,1.2,9.2,2.2,14.7,2.5c0.4,0,0.7,0,1.1,0c3.2,0,7.3-0.6,11.5-1.5l-1.3,9.8c-0.1,0.9,0.5,1.7,1.4,1.9c0.1,0,0.1,0,0.2,0
        c0.8,0,1.5-0.6,1.6-1.4l1.4-10.9c1.2-0.3,2.5-0.5,3.7-0.8c5.6-1.2,10.9-2.4,13.7-2.3c0.9,0,1.7-0.7,1.7-1.6
        C99.8,64.6,99,63.8,98.1,63.8z"/>
    </symbol>

    <!-- WAVE -->
    <symbol id="wave" viewBox="0 0 100 100">
        <path fill="currentColor" d="M98.1,63.8c-3.2,0-8.4,1.1-14.5,2.4c-6.8,1.5-14.4,3.1-19,2.9c-8.4-0.5-15.1-2.6-21.6-4.6
        c-5-1.6-10-3.1-15.4-3.9c0.1-0.8,0.3-1.6,0.6-2.4c2.2-6.1,9-9.9,15.2-8c2.9,0.8,5.4,2.8,7.9,5.5c2.9,3.2,6.6,8.9,12.3,7.6
        c1.9-0.4,3.4-1.5,4.7-2.8c0.7-0.7,2.6-2.4,3.4-3.1c2.9-2.7,10.4-9.6,13.4-12.3c5.3-5.2-2.3-13-7.6-7.8c0,0-12.9,13.4-15.8,16.5
        c-4.4-4.4-9.7-10.1-16.4-11.3c-9.8-2.3-20.4,4.1-23.1,13.7c-0.4,1.3-0.6,2.6-0.7,3.9C15.7,60,9.2,60.9,1.4,63.6
        c-0.9,0.3-1.3,1.2-1,2.1c0.3,0.9,1.2,1.3,2.1,1c7.4-2.5,13.6-3.4,19.1-3.3c0.8,6.8,5.3,12.9,11,16.5c2.6,1.7,5.4-2,2.9-4
        c-4-3-7.2-7.4-7.7-12.1c5.1,0.7,9.7,2.2,14.5,3.7c6.7,2.1,13.6,4.3,22.4,4.8c0.4,0,0.7,0,1.1,0c5,0,11.9-1.5,18.7-3
        c5.6-1.2,10.9-2.4,13.7-2.3c0.9,0,1.7-0.7,1.7-1.6C99.8,64.6,99,63.8,98.1,63.8z"/>
        <path fill="currentColor" d="M35.3,68.3c-0.9-0.2-1.8,0.4-2,1.3c-0.2,0.9,0.4,1.8,1.3,2c0.4,0.1,10.3,2.4,8.9,12.5
        c-0.1,0.9,0.5,1.7,1.4,1.9c0.1,0,0.2,0,0.2,0c0.8,0,1.5-0.6,1.6-1.4C48.2,74,39.9,69.3,35.3,68.3z"/>
    </symbol>

    <!-- PILATES -->
    <symbol id="pilates" viewBox="0 0 100 100">
        <path fill="currentColor" d="M98.82,59.83c-.46-1.63-1.94-2.74-3.6-2.71l-8.95.28-23.78-10.55c-2.49-1.14-5.35-.65-7.29,1.29l-4.58,4.55-1.85,1.81
        c-.12-.52-.22-1.05-.31-1.57-.86-4.89-2.21-18.21-2.21-22.85,0-.37.12-.65.37-.89l1.32-1.35c1.57-1.6,1.66-4.06.18-5.75l-9.6-11.17
        c-1.26-1.48-3.54-1.66-5.08-.4-1.32,1.08-1.72,2.89-1.02,4.4l3.84,8.09v43l-12.12,7.54c-1.91,1.17-3.2,2.92-4.06,4.83-.98,2.21-.98,6.8,1.11,9.54
        1.97,2.58,4.89,4.34,8.31,4.34h24.92c2.46,0,4.49-2,4.49-4.49s-2-4.49-4.49-4.49h-10.55c3.54-2.09,7.44-4.43,8.24-4.98l.09-.09
        c2.25-1.88,4.15-5.04,2.4-10.18l6.86-9.38,13.63,4.8c.98.37,1.11.43,1.32.92l.71,1.75c.65,1.66,2.21,2.68,3.91,2.68.4,0,.83-.06,1.26-.18l14.09-4.31
        c1.88-.55,2.95-2.55,2.43-4.46Z"/>
        <path fill="currentColor" d="M10.7,75.92c3.66,0,6.64,2.98,6.64,6.64s-2.98,6.64-6.64,6.64-6.64-2.98-6.64-6.64,2.98-6.64,6.64-6.64m0-3.07
        c-5.35,0-9.72,4.34-9.72,9.72s4.34,9.72,9.72,9.72,9.72-4.34,9.72-9.72-4.34-9.72-9.72-9.72Z"/>
    </symbol>

    <!-- Therapie manuelle -->
    <symbol id="therapie-manuelle" viewBox="0 0 100 100">
        <path fill="currentColor" d="M55.242,61.774L50.6,41.745c-1.995-9.067-4.522-11.78-7.722-15.215c-0.696-0.748-1.419-1.532-2.172-2.415V13.423    c0-2.125-1.728-3.854-3.851-3.854c-0.671,0-1.303,0.173-1.854,0.476V8.28c0-2.125-1.729-3.854-3.854-3.854    c-0.67,0-1.3,0.172-1.85,0.475V4.851C29.298,2.728,27.569,1,25.443,1c-1.816,0-3.343,1.264-3.746,2.958    c-0.574-0.34-1.244-0.536-1.958-0.536c-2.125,0-3.854,1.729-3.854,3.854v7.283c-0.734-0.502-1.622-0.796-2.576-0.796    c-2.523,0-4.576,2.053-4.576,4.576v12.802c0,5.388,2.663,10.322,7.152,13.311V62c0,0.553,0.448,1,1,1s1-0.447,1-1V43.907    c0-0.347-0.18-0.669-0.474-0.851c-4.182-2.584-6.678-7.038-6.678-11.914V18.341c0-1.42,1.156-2.576,2.576-2.576    s2.576,1.156,2.576,2.576v6.505c0,0.552,0.448,1,1,1c3.245,0,7.438,3.188,8.083,5.479c0.124,0.441,0.525,0.729,0.962,0.729    c0.089,0,0.181-0.012,0.271-0.038c0.531-0.149,0.841-0.702,0.691-1.233c-0.87-3.091-5.265-6.337-9.007-6.856V7.277    c0-1.022,0.832-1.854,1.854-1.854c1.022,0,1.854,0.832,1.854,1.854v13.124c0,0.552,0.448,1,1,1s1-0.448,1-1V4.851    c0-1.021,0.83-1.851,1.851-1.851c1.022,0,1.854,0.831,1.854,1.851v15.752c0,0.552,0.448,1,1,1s1-0.448,1-1V8.28    c0-1.022,0.83-1.854,1.85-1.854c1.022,0,1.854,0.832,1.854,1.854v13.268c0,0.552,0.448,1,1,1s1-0.448,1-1v-8.124    c0-1.022,0.832-1.854,1.854-1.854c1.021,0,1.851,0.832,1.851,1.854v17.719c0,2.216-0.53,4.39-1.536,6.35l-4.085-2.704    c-2.636-1.744-5.058-0.741-6.192,0.925c-1.181,1.734-1.226,4.427,1.017,6.002l3.357,2.355c0.775,0.646,1.081,1.548,1.502,2.797    c0.085,0.251,0.174,0.515,0.272,0.787c-0.005,0.014-0.013,0.021-0.013,0.041V62c0,0.553,0.448,1,1,1s1-0.447,1-1V51.424    c0.68,0.896,1.565,1.822,2.762,2.754l2.02,8.065C39.925,62.697,40.333,63,40.78,63c0.081,0,0.163-0.01,0.244-0.03    c0.536-0.134,0.861-0.677,0.728-1.213l-2.104-8.404c-0.056-0.223-0.187-0.42-0.371-0.558c-3.202-2.397-3.951-4.613-4.611-6.568    c-0.467-1.381-0.908-2.687-2.183-3.743l-3.422-2.405c-1.208-0.849-1.173-2.271-0.514-3.239c0.604-0.884,1.823-1.449,3.436-0.383    l6.043,4.001c0.46,0.305,1.081,0.179,1.386-0.282c0.305-0.46,0.179-1.081-0.282-1.386l-0.284-0.188    c1.217-2.292,1.86-4.85,1.86-7.459v-4.013c0.238,0.258,0.476,0.514,0.708,0.764c3.108,3.337,5.354,5.748,7.234,14.292l4.645,20.04    C53.4,62.688,53.812,63,54.267,63c0.075,0,0.151-0.008,0.227-0.025C55.031,62.85,55.366,62.313,55.242,61.774z"/>
        <path fill="currentColor" d="M25.834,42.71c-1.016-0.501-1.776-1.368-2.14-2.44c-0.364-1.071-0.288-2.221,0.213-3.236    c0.245-0.495,0.042-1.095-0.454-1.339c-0.495-0.246-1.095-0.042-1.339,0.454c-0.738,1.494-0.849,3.186-0.314,4.764    c0.536,1.579,1.654,2.854,3.149,3.591c0.143,0.07,0.293,0.104,0.441,0.104c0.369,0,0.724-0.205,0.898-0.558    C26.533,43.554,26.329,42.954,25.834,42.71z"/>
    </symbol>


    <!-- manuelle -->
    <symbol id="manuelle" viewBox="0 0 64 80">
        <path d="M55.242,61.774L50.6,41.745c-1.995-9.067-4.522-11.78-7.722-15.215c-0.696-0.748-1.419-1.532-2.172-2.415V13.423    c0-2.125-1.728-3.854-3.851-3.854c-0.671,0-1.303,0.173-1.854,0.476V8.28c0-2.125-1.729-3.854-3.854-3.854    c-0.67,0-1.3,0.172-1.85,0.475V4.851C29.298,2.728,27.569,1,25.443,1c-1.816,0-3.343,1.264-3.746,2.958    c-0.574-0.34-1.244-0.536-1.958-0.536c-2.125,0-3.854,1.729-3.854,3.854v7.283c-0.734-0.502-1.622-0.796-2.576-0.796    c-2.523,0-4.576,2.053-4.576,4.576v12.802c0,5.388,2.663,10.322,7.152,13.311V62c0,0.553,0.448,1,1,1s1-0.447,1-1V43.907    c0-0.347-0.18-0.669-0.474-0.851c-4.182-2.584-6.678-7.038-6.678-11.914V18.341c0-1.42,1.156-2.576,2.576-2.576    s2.576,1.156,2.576,2.576v6.505c0,0.552,0.448,1,1,1c3.245,0,7.438,3.188,8.083,5.479c0.124,0.441,0.525,0.729,0.962,0.729    c0.089,0,0.181-0.012,0.271-0.038c0.531-0.149,0.841-0.702,0.691-1.233c-0.87-3.091-5.265-6.337-9.007-6.856V7.277    c0-1.022,0.832-1.854,1.854-1.854c1.022,0,1.854,0.832,1.854,1.854v13.124c0,0.552,0.448,1,1,1s1-0.448,1-1V4.851    c0-1.021,0.83-1.851,1.851-1.851c1.022,0,1.854,0.831,1.854,1.851v15.752c0,0.552,0.448,1,1,1s1-0.448,1-1V8.28    c0-1.022,0.83-1.854,1.85-1.854c1.022,0,1.854,0.832,1.854,1.854v13.268c0,0.552,0.448,1,1,1s1-0.448,1-1v-8.124    c0-1.022,0.832-1.854,1.854-1.854c1.021,0,1.851,0.832,1.851,1.854v17.719c0,2.216-0.53,4.39-1.536,6.35l-4.085-2.704    c-2.636-1.744-5.058-0.741-6.192,0.925c-1.181,1.734-1.226,4.427,1.017,6.002l3.357,2.355c0.775,0.646,1.081,1.548,1.502,2.797    c0.085,0.251,0.174,0.515,0.272,0.787c-0.005,0.014-0.013,0.021-0.013,0.041V62c0,0.553,0.448,1,1,1s1-0.447,1-1V51.424    c0.68,0.896,1.565,1.822,2.762,2.754l2.02,8.065C39.925,62.697,40.333,63,40.78,63c0.081,0,0.163-0.01,0.244-0.03    c0.536-0.134,0.861-0.677,0.728-1.213l-2.104-8.404c-0.056-0.223-0.187-0.42-0.371-0.558c-3.202-2.397-3.951-4.613-4.611-6.568    c-0.467-1.381-0.908-2.687-2.183-3.743l-3.422-2.405c-1.208-0.849-1.173-2.271-0.514-3.239c0.604-0.884,1.823-1.449,3.436-0.383    l6.043,4.001c0.46,0.305,1.081,0.179,1.386-0.282c0.305-0.46,0.179-1.081-0.282-1.386l-0.284-0.188    c1.217-2.292,1.86-4.85,1.86-7.459v-4.013c0.238,0.258,0.476,0.514,0.708,0.764c3.108,3.337,5.354,5.748,7.234,14.292l4.645,20.04    C53.4,62.688,53.812,63,54.267,63c0.075,0,0.151-0.008,0.227-0.025C55.031,62.85,55.366,62.313,55.242,61.774z"/>
        <path d="M25.834,42.71c-1.016-0.501-1.776-1.368-2.14-2.44c-0.364-1.071-0.288-2.221,0.213-3.236    c0.245-0.495,0.042-1.095-0.454-1.339c-0.495-0.246-1.095-0.042-1.339,0.454c-0.738,1.494-0.849,3.186-0.314,4.764    c0.536,1.579,1.654,2.854,3.149,3.591c0.143,0.07,0.293,0.104,0.441,0.104c0.369,0,0.724-0.205,0.898-0.558    C26.533,43.554,26.329,42.954,25.834,42.71z"/>
    </symbol>

    <!-- blob 1 -->
    <symbol id="blob-1" viewBox="0 0 200 200" xmlns="http://www.w3.org/2000/symbol">
        <path fill="currentColor" d="M41.6,-52.8C51.7,-41.1,56.1,-25.9,55.5,-12.3C55,1.4,49.5,13.4,43.8,27.1C38,40.7,32,56,19.6,65.4C7.3,74.9,-11.3,78.5,-23.7,71.3C-36.1,64.1,-42.3,46.1,-46.1,30.8C-49.9,15.6,-51.2,3.2,-52.1,-12.2C-53,-27.6,-53.5,-46,-44.7,-57.9C-36,-69.8,-18,-75.4,-1.1,-74.1C15.8,-72.7,31.5,-64.5,41.6,-52.8Z" transform="translate(100 100)" />
    </symbol>
</svg>