<?xml version="1.0" encoding="UTF-8"?>
<svg id="Calque_1" xmlns="http://www.w3.org/2000/svg" version="1.1" viewBox="0 0 100 100">
  <!-- Generator: Adobe Illustrator 30.0.0, SVG Export Plug-In . SVG Version: 2.1.1 Build 123)  -->
  <path d="M89.28,47.32c0-2.96-.88-5.79-2.43-7.93,1.75-2.29,2.74-5.35,2.74-8.61,0-3.06-.89-5.98-2.48-8.22,1.49-1.65,2.32-3.78,2.32-6.04,0-4.96-4.04-8.99-9-8.99-4.13,0-7.63,2.75-8.69,6.61-.48-.08-.96-.12-1.45-.12-3.66,0-6.85,2.23-8.16,5.5-1.62-.79-3.39-1.21-5.2-1.21-3.35,0-6.48,1.39-8.69,3.81-1.66-2.29-4.34-3.69-7.28-3.69-1.6,0-3.12.4-4.47,1.17-2.01-1.98-4.92-3.13-8.01-3.13-.36,0-.73.02-1.13.05-1.57-1.21-3.5-1.87-5.5-1.87-4.96,0-9,4.03-9,8.99,0,1.36.29,2.68.86,3.87-1.11,1.05-1.76,2.53-1.76,4.1,0,.51.07,1.02.21,1.52-.87,1.42-1.33,3.04-1.33,4.72,0,1.83.57,3.61,1.61,5.12-1.3,1.59-2.03,3.61-2.03,5.69,0,2.78,1.28,5.36,3.42,7.05-1.19,1.56-1.85,3.47-1.85,5.45,0,4.96,4.05,8.99,9.02,8.99,2.72,0,5.17-1.22,6.82-3.14.84,2.53,2.48,4.05,3.99,4.94,1.89,1.12,4.16,1.61,6.25,1.61.96,0,1.89-.1,2.72-.3-.01,3.42,1.26,6.41,3.03,8.32.79.85,1.56,1.54,2.31,2.21,1.85,1.65,3.19,2.83,3.45,5.37.29,2.84,2.09,3.29,3.19,3.29h.1c1.99-.03,3.07-1.79,3.11-3.51v-.49c.03-3.17.05-5.84-.58-8.12,3.09.8,6.45.34,8.52-1.1,2.69,2.6,6.79,3.84,10.45,3.05,2.22-.49,6.08-2.14,7.73-7.73,4.19-1.15,7.26-5.88,7.26-11.43,0-2.97-.88-5.8-2.45-7.95,1.53-2.14,2.39-4.95,2.39-7.87h0ZM33.18,69.67c-2.47-1.47-3.55-4.07-3.2-7.73,0-.07,0-.13,0-.19.01-.2.02-.4.02-.6,0-2.8-1.28-5.38-3.42-7.06,1.19-1.56,1.85-3.48,1.85-5.44,0-1.85-.57-3.63-1.61-5.14,1.3-1.59,2.03-3.6,2.03-5.68,0-1-.16-1.97-.47-2.89.62,0,1.24-.04,1.85-.12.04,1.58.53,2.99,1.48,4.21.75.97,1.74,1.73,2.82,2.31-1.63.81-3.14,2.04-4.16,3.65-1.04,1.65-2.32,5.07.73,9.43,2.01,2.88,4.53,3.98,7.23,4.21-.8,2.04-1.35,4.68-1.05,6.27.12.63.68,1.08,1.3,1.08.08,0,.17,0,.25-.02.72-.14,1.19-.83,1.05-1.56-.23-1.2.51-4.22,1.37-5.82,1.84-.19,3.7-.62,5.48-1.03,1.11-.26,2.25-.52,3.35-.72,6.98-1.26,9.37-.42,13.04,2.77.25.22.56.33.87.33.37,0,.74-.15,1-.46.48-.55.42-1.39-.13-1.87-4.53-3.95-7.95-4.71-15.25-3.38-1.16.21-2.33.49-3.47.75-5.28,1.22-9.83,2.28-12.86-2.06-1.65-2.37-1.88-4.56-.66-6.5,1.41-2.25,4.53-3.65,6.67-3.57.21.02.41.05.61.06.71.05,1.34-.46,1.42-1.17.08-.71-.4-1.35-1.1-1.47-.21-.03-.43-.06-.65-.07-1.69-.23-4.36-1-5.74-2.8-.71-.91-1-1.99-.9-3.28.49-.19.95-.41,1.4-.66,1.71,1.87,4.12,2.95,6.67,2.95,2.05,0,4.04-.71,5.62-1.97,1.37,1.37,3.25,2.23,5.43,2.44,2.89.29,6.05-.57,7.99-2.12.33.07.66.12.99.17.02.17.05.34.09.51-2.37.73-4.1,2.94-4.1,5.54,0,.73.59,1.33,1.33,1.33s1.33-.59,1.33-1.33c0-1.47,1.01-2.7,2.38-3.04,1.47,2.6,4.25,4.35,7.44,4.35h.04c.73,0,1.33-.59,1.33-1.33s-.59-1.33-1.33-1.33h-.04c-2.39,0-4.46-1.44-5.38-3.5-.03-.1-.07-.19-.11-.27-.1-.25-.18-.51-.24-.78,2.47-.06,5.01-.67,7.45-1.8-.16,2.86.9,4.94,1.94,6.29-1.47,2.12-2.29,4.87-2.29,7.72s.89,5.81,2.46,7.95c-1.7,2.48-2.48,6-2.46,9.31-2.18-.4-5.09-.46-7.49.72-2.26-3.28-5.99-5.27-10.04-5.27-4.76,0-9.12,2.79-11.09,7.1-.51,1.09-.87,2.18-1.09,3.25-1.61.68-5.23.89-7.92-.71h-.03ZM80.81,72.13c-.53.08-.97.48-1.09,1-.85,3.59-2.96,5.93-5.93,6.57-3.11.68-6.79-.64-8.75-3.15-.25-.32-.63-.51-1.04-.51h0c-.41,0-.79.19-1.04.51-1.03,1.31-4.33,2.07-7.41,1.08-.72-.23-1.66-.65-2.49-1.36-.12-.12-.25-.24-.39-.36-.84-.87-1.49-2.1-1.57-3.85-.03-.73-.65-1.3-1.39-1.27-.73.03-1.3.65-1.27,1.39.09,2.1.81,3.91,2.07,5.34.06.09.14.17.22.24.17.19.36.36.56.53,2.08,2.21,2.06,5.3,2.02,10.17v.45c0,.07-.06.91-.51.91-.36,0-.5.01-.59-.9-.37-3.57-2.29-5.28-4.32-7.08-.7-.63-1.43-1.27-2.12-2.02-2.09-2.28-3.35-6.86-1.17-11.54,1.55-3.38,4.96-5.55,8.68-5.55,3.53,0,6.76,1.94,8.42,5.06.18.34.51.59.89.67.38.08.78,0,1.09-.24,2.09-1.58,5.36-1.32,7.34-.85.21,1.37.56,2.63,1.06,3.67.32.66,1.11.94,1.77.63.66-.32.94-1.11.63-1.77-.46-.96-.76-2.18-.91-3.51,0-.12,0-.24-.04-.36-.31-3.49.46-7.63,2.43-9.86.45-.51.44-1.27-.01-1.77-1.58-1.74-2.48-4.3-2.48-7.04s.86-5.18,2.36-6.91c.46-.53.43-1.31-.07-1.81-1.27-1.27-2.55-3.49-1.66-6.93.11-.07.21-.15.32-.22,4.3-2.95,7.21-7.15,7.61-10.95.07-.73-.45-1.38-1.18-1.46-.73-.08-1.38.45-1.46,1.18-.32,3.01-2.86,6.56-6.47,9.04-.2.14-.41.28-.62.41-.03.02-.06.04-.1.06-3.97,2.49-8.39,3.33-12.22,2.3-.46-.12-.95,0-1.29.35-1.09,1.1-3.71,2.14-6.42,1.87-1.38-.14-3.28-.68-4.45-2.47-.23-.34-.6-.56-1.01-.59-.41-.03-.81.13-1.09.44-1.23,1.38-2.92,2.14-4.76,2.14-2.1,0-4.08-1.05-5.28-2.81-.2-.3-.52-.5-.87-.56-.36-.06-.72.02-1.01.24-1.46,1.07-3.35,1.66-5.32,1.66-.75,0-1.46-.07-2.09-.22h0c-2.46-.55-4.48-2.06-5.4-4.04-.31-.67-1.09-.95-1.76-.65-.67.31-.95,1.09-.65,1.76,1.19,2.58,3.67,4.56,6.7,5.39.61.99.92,2.12.92,3.31,0,1.75-.74,3.44-2.02,4.63-.54.5-.57,1.33-.08,1.87,1.09,1.19,1.69,2.72,1.69,4.32,0,1.5-.55,2.95-1.53,4.11-1.02-.4-2.13-.61-3.25-.61-.73,0-1.33.59-1.33,1.33s.59,1.33,1.33,1.33c1.03,0,2.04.25,2.92.73,0,0,0,0,0,0s0,0,0,0c2.1,1.09,3.4,3.24,3.4,5.62,0,3.49-2.84,6.34-6.35,6.34s-6.36-2.84-6.36-6.34c0-1.79.77-3.51,2.11-4.72.32-.29.49-.72.43-1.15s-.32-.81-.7-1.01c-2.1-1.11-3.41-3.26-3.41-5.63,0-1.8.72-3.45,2.02-4.65.54-.5.57-1.33.08-1.87-1.09-1.19-1.69-2.72-1.69-4.3,0-1.35.42-2.65,1.22-3.75.27-.38.33-.87.15-1.3-.16-.38-.25-.79-.25-1.19,0-1.09.56-2.05,1.49-2.59.32-.18.55-.49.63-.85.08-.36.02-.73-.19-1.04-.68-1.02-1.04-2.23-1.04-3.5,0-3.49,2.85-6.34,6.35-6.34.67,0,1.31.1,1.92.29-1.18.69-2.09,1.67-2.59,2.86-.29.68.02,1.45.7,1.74.17.07.35.11.52.11.51,0,1-.3,1.22-.8.5-1.17,1.84-2.04,3.48-2.28.52-.06.96-.09,1.38-.09,2.74,0,5.26,1.14,6.74,3.04.45.58,1.28.68,1.86.23,1.11-.86,2.45-1.31,3.88-1.31,2.6,0,4.9,1.54,5.87,3.93.19.46.61.78,1.11.82.49.05.97-.19,1.24-.61,1.69-2.67,4.59-4.26,7.75-4.26,1.87,0,3.69.57,5.25,1.65.37.26.85.31,1.27.13.42-.17.72-.55.79-1,.51-2.94,3.05-5.07,6.05-5.07.7,0,1.39.12,2.04.35.38.14.81.09,1.16-.13.34-.22.57-.58.61-.99.33-3.26,3.05-5.72,6.33-5.72,3.5,0,6.35,2.84,6.35,6.34,0,1.9-.84,3.68-2.31,4.89-.28.23-.45.56-.48.92s.1.72.34.98c1.65,1.85,2.6,4.57,2.6,7.46s-1.01,5.82-2.77,7.67c-.48.51-.49,1.29-.02,1.81,1.58,1.73,2.48,4.31,2.48,7.06s-.89,5.25-2.43,7c-.45.51-.45,1.27,0,1.78,1.58,1.74,2.48,4.3,2.48,7.05,0,4.55-2.58,8.5-5.87,9h.01ZM49.86,46.63c-.76,1.22-1.87,2.31-3.23,3.12-1.7,1.02-3.66,1.56-5.65,1.56-.52,0-1.04-.04-1.56-.11-.73-.1-1.23-.78-1.13-1.5s.78-1.23,1.5-1.13c4.03.57,7.58-1.91,8.38-4.58.59-1.98-.4-3.68-2.79-4.8-.66-.31-.95-1.1-.64-1.76s1.1-.95,1.76-.64c3.76,1.76,4.75,4.63,4.41,7.03,5.01-.49,12.59.15,18.69,6.58.51.53.48,1.37-.05,1.87-.26.24-.58.36-.91.36-.35,0-.7-.14-.96-.41-5.9-6.23-13.47-6.26-17.82-5.6h0Z"/>
</svg>