<?xml version="1.0" encoding="utf-8"?>
<!-- Generator: Adobe Illustrator 28.1.0, SVG Export Plug-In . SVG Version: 6.00 Build 0)  -->
<svg version="1.1" id="Calque_3" xmlns="http://www.w3.org/2000/svg" xmlns:xlink="http://www.w3.org/1999/xlink" x="0px" y="0px"
	 viewBox="0 0 100 100" style="enable-background:new 0 0 100 100;" xml:space="preserve">
<style type="text/css">
	.st0{fill:#1D1D1B;}
</style>
<path class="st0" d="M98.1,63.8c-3.2,0-8.4,1.1-14.5,2.4c-6.8,1.5-14.4,3.1-19,2.9c-8.4-0.5-15.1-2.6-21.6-4.6
	c-11.8-3.7-22.9-7.2-41.7-0.8c-0.9,0.3-1.3,1.2-1,2.1c0.3,0.9,1.2,1.3,2.1,1C20.2,60.7,30.8,64,42,67.6c6.7,2.1,13.6,4.3,22.4,4.8
	c0.4,0,0.7,0,1.1,0c5,0,11.9-1.5,18.7-3c5.6-1.2,10.9-2.4,13.7-2.3c0.9,0,1.7-0.7,1.7-1.6C99.8,64.6,99,63.8,98.1,63.8z"/>
<path class="st0" d="M18,48.6c1.4,0,2.1,0.9,3.2,2.5c1.2,1.7,2.8,3.9,5.9,3.9c3.1,0,4.7-2.2,5.9-3.9c1.1-1.6,1.9-2.5,3.2-2.5
	c1.4,0,2.1,0.9,3.2,2.5c1.2,1.7,2.8,3.9,5.9,3.9c3.1,0,4.7-2.2,5.9-3.9c1.1-1.6,1.9-2.5,3.2-2.5c1.4,0,2.1,0.9,3.2,2.5
	c1.2,1.7,2.8,3.9,5.9,3.9c3.1,0,4.7-2.2,5.9-3.9c1.1-1.6,1.9-2.5,3.2-2.5c1.4,0,2.1,0.9,3.2,2.5c1.2,1.7,2.8,3.9,5.9,3.9
	c0.9,0,1.7-0.7,1.7-1.7s-0.7-1.7-1.7-1.7c-1.4,0-2.1-0.9-3.2-2.5c-1.2-1.7-2.8-3.9-5.9-3.9s-4.7,2.2-5.9,3.9
	c-1.1,1.6-1.9,2.5-3.2,2.5c-1.4,0-2.1-0.9-3.2-2.5c-1.2-1.7-2.8-3.9-5.9-3.9s-4.7,2.2-5.9,3.9c-1.1,1.6-1.9,2.5-3.2,2.5
	c-1.4,0-2.1-0.9-3.2-2.5c-1.2-1.7-2.8-3.9-5.9-3.9c-3.1,0-4.7,2.2-5.9,3.9c-1.1,1.6-1.9,2.5-3.2,2.5c-1.4,0-2.1-0.9-3.2-2.5
	c-1.2-1.7-2.8-3.9-5.9-3.9c-0.9,0-1.7,0.7-1.7,1.7S17.1,48.6,18,48.6z"/>
<path class="st0" d="M18,33.5c1.4,0,2.1,0.9,3.2,2.5c1.2,1.7,2.8,3.9,5.9,3.9c3.1,0,4.7-2.2,5.9-3.9c1.1-1.6,1.9-2.5,3.2-2.5
	c1.4,0,2.1,0.9,3.2,2.5c1.2,1.7,2.8,3.9,5.9,3.9c3.1,0,4.7-2.2,5.9-3.9c1.1-1.6,1.9-2.5,3.2-2.5c1.4,0,2.1,0.9,3.2,2.5
	c1.2,1.7,2.8,3.9,5.9,3.9c3.1,0,4.7-2.2,5.9-3.9c1.1-1.6,1.9-2.5,3.2-2.5c1.4,0,2.1,0.9,3.2,2.5c1.2,1.7,2.8,3.9,5.9,3.9
	c0.9,0,1.7-0.7,1.7-1.7s-0.7-1.7-1.7-1.7c-1.4,0-2.1-0.9-3.2-2.5c-1.2-1.7-2.8-3.9-5.9-3.9s-4.7,2.2-5.9,3.9
	c-1.1,1.6-1.9,2.5-3.2,2.5c-1.4,0-2.1-0.9-3.2-2.5c-1.2-1.7-2.8-3.9-5.9-3.9s-4.7,2.2-5.9,3.9c-1.1,1.6-1.9,2.5-3.2,2.5
	c-1.4,0-2.1-0.9-3.2-2.5c-1.2-1.7-2.8-3.9-5.9-3.9c-3.1,0-4.7,2.2-5.9,3.9c-1.1,1.6-1.9,2.5-3.2,2.5c-1.4,0-2.1-0.9-3.2-2.5
	c-1.2-1.7-2.8-3.9-5.9-3.9c-0.9,0-1.7,0.7-1.7,1.7C16.4,32.8,17.1,33.5,18,33.5z"/>
<path class="st0" d="M18,18.4c1.4,0,2.1,0.9,3.2,2.5c1.2,1.7,2.8,3.9,5.9,3.9c3.1,0,4.7-2.2,5.9-3.9c1.1-1.6,1.9-2.5,3.2-2.5
	c1.4,0,2.1,0.9,3.2,2.5c1.2,1.7,2.8,3.9,5.9,3.9c3.1,0,4.7-2.2,5.9-3.9c1.1-1.6,1.9-2.5,3.2-2.5c1.4,0,2.1,0.9,3.2,2.5
	c1.2,1.7,2.8,3.9,5.9,3.9c3.1,0,4.7-2.2,5.9-3.9c1.1-1.6,1.9-2.5,3.2-2.5c1.4,0,2.1,0.9,3.2,2.5c1.2,1.7,2.8,3.9,5.9,3.9
	c0.9,0,1.7-0.7,1.7-1.7s-0.7-1.7-1.7-1.7c-1.4,0-2.1-0.9-3.2-2.5c-1.2-1.7-2.8-3.9-5.9-3.9s-4.7,2.2-5.9,3.9
	c-1.1,1.6-1.9,2.5-3.2,2.5c-1.4,0-2.1-0.9-3.2-2.5c-1.2-1.7-2.8-3.9-5.9-3.9s-4.7,2.2-5.9,3.9c-1.1,1.6-1.9,2.5-3.2,2.5
	c-1.4,0-2.1-0.9-3.2-2.5c-1.2-1.7-2.8-3.9-5.9-3.9c-3.1,0-4.7,2.2-5.9,3.9c-1.1,1.6-1.9,2.5-3.2,2.5c-1.4,0-2.1-0.9-3.2-2.5
	c-1.2-1.7-2.8-3.9-5.9-3.9c-0.9,0-1.7,0.7-1.7,1.7S17.1,18.4,18,18.4z"/>
</svg>
